<svg xmlns="http://www.w3.org/2000/svg" width="24" height="24" viewBox="0 0 24 24">
  <g id="Group_36937" data-name="Group 36937" transform="translate(-3240 -8830)">
    <g id="wallet" transform="translate(3238.143 8827.98)">
      <path id="Path_24278" data-name="Path 24278" d="M22.559,8.057,17.415,3.681a1.67,1.67,0,0,0-2.088-.067L13.1,5.284l-1.4-1.4a1.67,1.67,0,0,0-2.355,0L5.163,8.1A2.505,2.505,0,0,0,3,10.563V22.255A2.505,2.505,0,0,0,5.505,24.76h16.7a2.505,2.505,0,0,0,2.505-2.505V10.563a2.505,2.505,0,0,0-2.155-2.505Zm.484,10.022h-1.67a1.67,1.67,0,1,1,0-3.341h1.67ZM16.362,4.95l3.591,3.107H15.87L14.291,6.479Zm-5.846.109,3,3h-6ZM22.209,23.09H5.505a.835.835,0,0,1-.835-.835V10.563a.835.835,0,0,1,.835-.835h16.7a.835.835,0,0,1,.835.835v2.505h-1.67a3.341,3.341,0,1,0,0,6.681h1.67v2.505A.835.835,0,0,1,22.209,23.09Z" fill="#e2e2e2"/>
      <path id="Path_24279" data-name="Path 24279" d="M24.242,18.241a.877.877,0,0,0-.242.593.835.835,0,1,0,.242-.593Z" transform="translate(-3.462 -2.426)" fill="#e2e2e2"/>
    </g>
    <rect id="Rectangle_1183" data-name="Rectangle 1183" width="24" height="24" transform="translate(3240 8830)" fill="none"/>
  </g>
</svg>
