<svg xmlns="http://www.w3.org/2000/svg" width="24" height="24" viewBox="0 0 24 24">
  <g id="Group_61566" data-name="Group 61566" transform="translate(7011 -17113)">
    <rect id="Rectangle_1625" data-name="Rectangle 1625" width="24" height="24" transform="translate(-7011 17113)" fill="none"/>
    <path id="_768380dbc46c1f1abf35413f942832ca" data-name="768380dbc46c1f1abf35413f942832ca" d="M10.974,14.725H10.09a.333.333,0,0,0-.266.57l1.986,1.93a.333.333,0,1,0,.465-.478L10.88,15.391h.1a1.441,1.441,0,0,0,1.4-1.128h.314a.333.333,0,1,0,0-.666h-.322a1.436,1.436,0,0,0-.184-.426h.506a.333.333,0,0,0,0-.666h-2.62a.333.333,0,0,0,0,.666h.9a.773.773,0,0,1,.688.426H10.071a.333.333,0,1,0,0,.666H11.68a.773.773,0,0,1-.705.462Zm.394,4a4,4,0,1,0-2.826-1.171,4,4,0,0,0,2.826,1.171Zm-2.354-6.35a3.331,3.331,0,1,1-.977,2.354,3.331,3.331,0,0,1,.977-2.354ZM22.7,23.163l-.482-.964a.993.993,0,0,0-.895-.555h-.048l-.39-.78a.992.992,0,0,0-.682-.53v-.505a1,1,0,0,0-.711-.957V10.579a1,1,0,0,0,.711-.957V9.165h.2a1,1,0,0,0,1-1l.015-.977V7.133a.152.152,0,0,0,0-.015.1.1,0,0,0,0-.016l0-.015A.046.046,0,0,0,21.4,7.07L21.4,7.056,21.39,7.04l-.007-.012-.009-.016L21.367,7l-.012-.016-.008-.01-.013-.015,0-.006,0,0-.014-.013-.012-.01-.013-.01-.015-.01-.006,0-9.589-5.87-.006,0a.6.6,0,0,0-.6,0l-.007,0L1.506,6.9l0,0-.016.011-.012.008-.013.011-.012.011-.01.01-.012.013-.008.011L1.408,7,1.4,7.009l-.008.014-.009.017-.005.011c0,.006-.005.013-.008.02l0,.01c0,.006,0,.013-.006.02l0,.012,0,.018a.077.077,0,0,1,0,.015c0,.005,0,.01,0,.014v.023l-.018.98v0a1,1,0,0,0,1,1h.2v.457a1,1,0,0,0,.711.957v8.293a1,1,0,0,0-.711.957v.505a.992.992,0,0,0-.682.53l-.39.78H1.411a.993.993,0,0,0-.893.552l-.482.964a.333.333,0,0,0,.3.482H22.4a.333.333,0,0,0,.3-.482Zm-3.162-3.331v.48h-2.71v-.483a.333.333,0,0,1,.333-.333h2.043a.333.333,0,0,1,.333.333ZM5.818,18.86V10.592a1,1,0,0,0,.755-.969V9.165h9.592v.457a1,1,0,0,0,.755.969V18.86a1,1,0,0,0-.755.969v.483H6.573v-.483A1,1,0,0,0,5.818,18.86Zm11.768-.03V10.622h1.243V18.83ZM19.54,9.623a.334.334,0,0,1-.333.333H17.164a.334.334,0,0,1-.333-.333V9.165H19.54Zm-8.171-8,8.537,5.229H2.859Zm-8.5,6.87a.327.327,0,0,0-.056,0H2.332A.334.334,0,0,1,2,8.168l.01-.649h18.74l-.01.642v0a.333.333,0,0,1-.333.333h-.477a.318.318,0,0,0-.111,0H16.553a.318.318,0,0,0-.111,0H6.3a.318.318,0,0,0-.111,0H2.92a.327.327,0,0,0-.056,0ZM3.2,9.623V9.165H5.907v.457a.334.334,0,0,1-.333.333H3.531A.334.334,0,0,1,3.2,9.623Zm1.954,1V18.83H3.908V10.622ZM3.2,19.829a.333.333,0,0,1,.333-.333H5.573a.333.333,0,0,1,.333.333v.483H3.2Zm-.752,1.332a.331.331,0,0,1,.3-.183H19.994a.331.331,0,0,1,.3.184l.241.482H2.2ZM.872,22.976l.241-.482a.331.331,0,0,1,.3-.184H21.326a.331.331,0,0,1,.3.184l.241.482Zm10.5-19.762A1.332,1.332,0,1,0,12.7,4.547,1.332,1.332,0,0,0,11.369,3.215Zm0,2a.666.666,0,1,1,.666-.666.666.666,0,0,1-.666.666Z" transform="translate(-7010.368 17112.705)" fill="#fff" stroke="#fff" stroke-width="0.2"/>
  </g>
</svg>
