<svg xmlns="http://www.w3.org/2000/svg" xmlns:xlink="http://www.w3.org/1999/xlink" width="261.707" height="248.858" viewBox="0 0 261.707 248.858">
  <defs>
    <linearGradient id="linear-gradient" x1="0.5" x2="0.5" y2="1" gradientUnits="objectBoundingBox">
      <stop offset="0" stop-color="#fb5e32"/>
      <stop offset="1" stop-color="#8618a1"/>
    </linearGradient>
  </defs>
  <g id="c577f276cb4db9915fcce454abf146c5" transform="translate(0 -3)">
    <path id="Path_24372" data-name="Path 24372" d="M116.707,65.133l20.935,11.043a6.707,6.707,0,0,0,5.506,0l20.935-11.043a2.927,2.927,0,0,0,1.182-4.122l-23.284-39.4a1.905,1.905,0,0,0-1.586-1.1,1.885,1.885,0,0,0-1.571,1.1l-23.284,39.4a2.934,2.934,0,0,0,1.167,4.122Zm26.8-28.7,12.521,21.184-12.521-4.9Zm0,22.973,10.405,4.059-10.405,5.475Zm-6.221,9.55-10.576-5.584L137.284,59.3Zm0-32.538V52.644L124.9,57.4Z" transform="translate(63.933 9.724)" fill="url(#linear-gradient)"/>
    <path id="Path_24373" data-name="Path 24373" d="M182.976,98.247a.968.968,0,0,0,.778.436.994.994,0,0,0,.793-.436l24.077-39.708c.544-.747.622-1.135.3-1.135a2.256,2.256,0,0,0-1,.42L185.107,70.562a2.133,2.133,0,0,1-1.135.3,2.235,2.235,0,0,1-1.135-.28L159.6,57.808a2.39,2.39,0,0,0-1-.42c-.342,0-.264.4.28,1.151ZM187.051,76.5a8.137,8.137,0,0,0,1.182-.544l3.873-2.178L187.051,82.1Zm-7.295-.513a9.555,9.555,0,0,0,1.073.5v6.237L175.246,73.5ZM36.71,94.717a8.5,8.5,0,0,0,6.315,8.2,8.945,8.945,0,0,0,8.43,5.879,8.78,8.78,0,0,0,6.952-3.328,8.78,8.78,0,0,0,6.952,3.328,8.941,8.941,0,0,0,8.85-7.357,18.91,18.91,0,0,0,7.077-27.3A19.082,19.082,0,0,0,74.21,46.687a8.955,8.955,0,0,0-8.85-7.357,8.747,8.747,0,0,0-6.952,3.344,8.747,8.747,0,0,0-6.952-3.344,8.963,8.963,0,0,0-8.461,5.895,8.494,8.494,0,0,0-6.284,8.2,8.312,8.312,0,0,0,6.221,8.088v25.1A8.317,8.317,0,0,0,36.71,94.717Zm8.974-39.055c-1.524,0-2.753-.809-2.753-2.24a2.478,2.478,0,0,1,2.753-2.349H48.7V48.165a2.7,2.7,0,0,1,2.753-2.613,2.566,2.566,0,0,1,2.6,2.613v2.909h8.71V48.165a2.566,2.566,0,0,1,2.6-2.613,2.691,2.691,0,0,1,2.753,2.613v2.893A12.65,12.65,0,0,1,78.238,63.64a13.113,13.113,0,0,1-5.382,10.483,13.089,13.089,0,0,1,5.382,10.359A12.65,12.65,0,0,1,68.113,97.065v2.893a2.691,2.691,0,0,1-2.753,2.613,2.566,2.566,0,0,1-2.6-2.613V97.065h-8.71v2.893a2.566,2.566,0,0,1-2.6,2.613,2.674,2.674,0,0,1-2.722-2.613V97.065H45.684a2.487,2.487,0,0,1-2.753-2.349c0-1.446,1.229-2.255,2.753-2.255h3.468v-36.8Z" transform="translate(20.387 20.176)" fill="url(#linear-gradient)"/>
    <path id="Path_24374" data-name="Path 24374" d="M87.81,83.723a7.886,7.886,0,0,0-7.839-7.886H69.441v16.1h10.53a8.071,8.071,0,0,0,7.839-8.212ZM75.663,82.059h4.308a1.666,1.666,0,0,1,1.618,1.664,1.913,1.913,0,0,1-1.618,1.991H75.663ZM87.81,104.892a8.293,8.293,0,0,0-7.839-8.352H69.441v16.1h10.53a7.68,7.68,0,0,0,7.839-7.746Zm-12.147-2.131h4.308a2.174,2.174,0,0,1,1.618,2.131,1.485,1.485,0,0,1-1.618,1.524H75.663Zm-3.369,31.332L27.769,172.5a3.111,3.111,0,1,0,4.065,4.71l42.722-36.855L110.8,164.865a3.112,3.112,0,0,0,4.051-.491l53.339-59.032-1.057,7.681a3.111,3.111,0,1,0,6.164.849L175.976,94.4A3.111,3.111,0,0,0,171.72,91.1l-18.177,7.408a3.111,3.111,0,1,0,2.348,5.761l7.728-3.149L112.044,158.2,76.069,133.871A3.111,3.111,0,0,0,72.294,134.093ZM243.86,21.664a4.666,4.666,0,1,0-4.666,4.666,4.666,4.666,0,0,0,4.666-4.666Zm-7,0A2.333,2.333,0,1,1,239.193,24,2.333,2.333,0,0,1,236.86,21.664ZM103.877,12.332a4.666,4.666,0,1,0-4.666-4.666A4.666,4.666,0,0,0,103.877,12.332Zm0-7a2.333,2.333,0,1,1-2.333,2.333A2.333,2.333,0,0,1,103.877,5.333ZM27.664,60.548a3.111,3.111,0,1,0-3.111-3.111,3.111,3.111,0,0,0,3.111,3.111Zm0-4.666a1.555,1.555,0,1,1-1.555,1.555,1.555,1.555,0,0,1,1.555-1.555ZM139.65,43.439a3.111,3.111,0,1,0-3.111-3.111A3.111,3.111,0,0,0,139.65,43.439Zm0-4.666a1.555,1.555,0,1,1-1.555,1.555,1.555,1.555,0,0,1,1.555-1.555ZM12.111,12.332a3.111,3.111,0,1,0,3.111,3.111,3.111,3.111,0,0,0-3.111-3.111Zm0,4.666a1.555,1.555,0,1,1,1.555-1.555A1.555,1.555,0,0,1,12.111,17Z" transform="translate(4.998 0)" fill="url(#linear-gradient)"/>
    <circle id="Ellipse_472" data-name="Ellipse 472" cx="2.974" cy="2.974" r="2.974" transform="translate(0 222.222)" fill="url(#linear-gradient)"/>
    <path id="Path_24375" data-name="Path 24375" d="M13.777,144H9.111a3.111,3.111,0,0,0,0,6.221h4.666a3.111,3.111,0,0,0,0-6.221Zm231.749,0H240.86a3.111,3.111,0,0,0,0,6.221h4.666a3.111,3.111,0,0,0,0-6.221Z" transform="translate(3.332 78.306)" fill="url(#linear-gradient)"/>
    <ellipse id="Ellipse_473" data-name="Ellipse 473" cx="3.399" cy="2.974" rx="3.399" ry="2.974" transform="translate(254.91 222.222)" fill="url(#linear-gradient)"/>
    <path id="Path_24376" data-name="Path 24376" d="M226.094,164.5H136.157a16.26,16.26,0,0,0,1.218-1.555,15.387,15.387,0,0,0-5.319-22.071,17.207,17.207,0,0,0-8.446-1.991,1.2,1.2,0,0,1-.482-.124,1.1,1.1,0,0,1-.031-.311c0-.187,0-.436.513-.436a18.148,18.148,0,0,0,8.523-2.022,15.413,15.413,0,0,0,.093-26.83,16.345,16.345,0,0,0-15.834-.078,15.619,15.619,0,0,0-7.87,13.454,16.159,16.159,0,0,0,2.38,7.979,1.854,1.854,0,0,1,.2.653c-.047.031-.109.062-.187.109l-.327.124a.936.936,0,0,1-.731-.436l-.156-.249a23.853,23.853,0,0,0-5.833-5.63l-.14-.093a16.111,16.111,0,0,0-15.74,0,15.435,15.435,0,0,0,0,26.908,16.2,16.2,0,0,0,15.662.047,15.836,15.836,0,0,0,6.1-6.175,1.06,1.06,0,0,1,.435-.373,1.074,1.074,0,0,1,.311.109.774.774,0,0,1,.28.731,16.574,16.574,0,0,0-2.271,8.119,15.329,15.329,0,0,0,2.644,8.586,16.076,16.076,0,0,0,1.21,1.555H18.546a3.137,3.137,0,1,0,0,6.221H226.094a3.137,3.137,0,1,0,0-6.221ZM110.188,139.183a6.957,6.957,0,0,0-5.833,3.5,9.7,9.7,0,0,1-3.748,3.842,9.829,9.829,0,0,1-9.5,0,9.212,9.212,0,0,1,0-16.129,9.739,9.739,0,0,1,9.457-.047,17.454,17.454,0,0,1,4.106,4.028,7.14,7.14,0,0,0,5.926,3.251,6.436,6.436,0,0,0,3.173-.824,6.036,6.036,0,0,0,3.5-4.635,7.8,7.8,0,0,0-.887-4.619,10.361,10.361,0,0,1-1.633-5.008,9.412,9.412,0,0,1,4.822-8.1,9.542,9.542,0,0,1,14.216,8.1,9.371,9.371,0,0,1-4.682,8.026,11.728,11.728,0,0,1-5.49,1.229,6.657,6.657,0,1,0,0,13.314,11.187,11.187,0,0,1,5.413,1.2,9.206,9.206,0,0,1,.016,16.114,10.034,10.034,0,0,1-1.089.529,9.512,9.512,0,0,1-7.388,0,8.6,8.6,0,0,1-1.073-.529,9.331,9.331,0,0,1-4.759-8.057,10.631,10.631,0,0,1,1.524-5.179,6.974,6.974,0,0,0-2.66-9.068A7.114,7.114,0,0,0,110.188,139.183Z" transform="translate(8.33 57.802)" fill="url(#linear-gradient)"/>
    <path id="Path_24377" data-name="Path 24377" d="M126.029,10.61V8.955l-3.674.485V9.392l2.313-3.041-1.461-.827L121.724,8.93h-.05l-1.509-3.383L118.68,6.4l2.288,2.969v.048l-3.577-.462V10.61l3.6-.462V10.2l-2.313,2.968,1.387.877,1.583-3.431h.047l1.46,3.406,1.534-.876-2.336-2.921v-.048Z" transform="translate(65.194 1.402)" fill="url(#linear-gradient)"/>
    <path id="Path_24378" data-name="Path 24378" d="M111.518,38.028l-1.333,1.709.8.5.911-1.975h.028l.84,1.961.883-.5L112.3,38.04v-.028l2.115.254v-.953l-2.115.28v-.028l1.331-1.751-.84-.476-.855,1.961h-.028l-.868-1.949-.857.491L111.5,37.55v.028l-2.061-.266v.953L111.518,38Z" transform="translate(60.78 17.959)" fill="url(#linear-gradient)"/>
    <path id="Path_24379" data-name="Path 24379" d="M80.084,57.09,77.816,60l1.361.86,1.552-3.367h.047l1.433,3.342,1.5-.859-2.291-2.865v-.048l3.6.429V55.872l-3.6.478V56.3l2.269-2.983-1.432-.812L80.8,55.847h-.05l-1.479-3.318-1.457.837,2.244,2.912v.048l-3.509-.454v1.622l3.532-.453Z" transform="translate(42.514 27.494)" fill="url(#linear-gradient)"/>
    <path id="Path_24380" data-name="Path 24380" d="M52.791,32.435l-1.957,2.512,1.173.742,1.341-2.9h.039l1.237,2.882,1.3-.74-1.977-2.471v-.042l3.109.372v-1.4l-3.109.411v-.04L55.9,29.181l-1.235-.7-1.257,2.882h-.04L52.091,28.5l-1.257.722,1.936,2.512v.04l-3.028-.39v1.4l3.049-.392Z" transform="translate(27.625 14.151)" fill="url(#linear-gradient)"/>
    <path id="Path_24381" data-name="Path 24381" d="M157.115,153H144.193a3.121,3.121,0,0,0,0,6.221h12.922a3.121,3.121,0,0,0,0-6.221Zm-93.322,0H50.871a3.121,3.121,0,0,0,0,6.221H63.793a3.121,3.121,0,0,0,0-6.221Zm71.307,0H72.886a3.111,3.111,0,1,0,0,6.221H97.678v3.111H85.329a3.111,3.111,0,0,0,0,6.221h38.884a3.111,3.111,0,1,0,0-6.221h-13.9v-3.111H135.1a3.111,3.111,0,0,0,0-6.221Z" transform="translate(26.657 83.304)" fill="url(#linear-gradient)"/>
  </g>
</svg>
