<svg id="_1c1fbd00a33dfea13a46290d7c1b0ca6" data-name="1c1fbd00a33dfea13a46290d7c1b0ca6" xmlns="http://www.w3.org/2000/svg" xmlns:xlink="http://www.w3.org/1999/xlink" width="64" height="65.143" viewBox="0 0 64 65.143">
  <defs>
    <linearGradient id="linear-gradient" x1="0.5" x2="0.5" y2="1" gradientUnits="objectBoundingBox">
      <stop offset="0" stop-color="#ffb508"/>
      <stop offset="1" stop-color="#fc2a02"/>
    </linearGradient>
  </defs>
  <ellipse id="Ellipse_22-2" data-name="Ellipse 22-2" cx="32" cy="32.571" rx="32" ry="32.571" fill="url(#linear-gradient)"/>
  <path id="Path_148" data-name="Path 148" d="M22.1,15.646c.922.251,1.843.419,2.765.67s1.843.419,2.765.67c.251.084.335,0,.419-.251.335-1.424.67-2.765,1.005-4.19.084-.251.168-.335.419-.251.838.251,1.592.419,2.43.587.251.084.251.168.168.335-.335,1.341-.67,2.765-1.005,4.106a.633.633,0,0,1-.084.335c.67.168,1.424.335,2.095.5.084,0,.168-.168.251-.251.251-1.089.5-2.095.838-3.184l.251-1.005c0-.168.084-.251.251-.168.838.251,1.676.419,2.6.67.084,0,.084.084.168.084-.251,1.089-.5,2.095-.754,3.1a6.98,6.98,0,0,1-.335,1.257c-.084.251,0,.335.251.419l2.765,1.257a7.108,7.108,0,0,1,2.179,2.011,5.019,5.019,0,0,1,.5,3.938,5.207,5.207,0,0,1-1.257,2.43,5.122,5.122,0,0,1-1.843,1.089c-.084,0-.168.084-.335.084.335.251.67.419,1.005.67a5.283,5.283,0,0,1,2.011,2.849,6.569,6.569,0,0,1-.168,2.849,8.231,8.231,0,0,1-1.508,3.1A5.2,5.2,0,0,1,36.507,41.2a17.348,17.348,0,0,1-5.111-.168.351.351,0,0,0-.5.251c-.335,1.341-.67,2.765-1.005,4.106-.084.335-.084.419-.5.251-.754-.168-1.592-.419-2.346-.587-.251-.084-.251-.168-.168-.335.335-1.424.67-2.849,1.089-4.19,0-.168.084-.251-.084-.335-.67-.168-1.341-.335-2.095-.5-.168.754-.419,1.508-.587,2.262s-.419,1.508-.587,2.262c-.084.168-.084.251-.335.168-.838-.251-1.676-.419-2.514-.587-.251-.084-.251-.168-.168-.335.335-1.424.67-2.849,1.089-4.19,0-.084.084-.168.084-.335-1.927-.5-3.854-1.005-5.865-1.508.168-.335.251-.587.419-.922.335-.754.67-1.508.922-2.179.084-.251.168-.251.419-.251A14.593,14.593,0,0,0,20.5,34.5a.931.931,0,0,0,1.257-.754c1.089-4.273,2.179-8.547,3.184-12.9a1.452,1.452,0,0,0-1.005-1.676c-.754-.251-1.508-.419-2.179-.587-.168,0-.251-.084-.168-.251.251-.922.5-1.927.754-2.849-.335.251-.335.251-.251.168Zm4.273,20.7a.293.293,0,0,1,.168.084,23.191,23.191,0,0,0,4.19.838,6.5,6.5,0,0,0,2.849-.251,2.674,2.674,0,0,0,1.341-3.938,5.117,5.117,0,0,0-1.76-1.508,16.908,16.908,0,0,0-4.944-1.508c-.251-.084-.251,0-.335.251-.168.838-.419,1.592-.587,2.43-.335,1.173-.587,2.346-.922,3.6ZM33.407,27.8a5.471,5.471,0,0,0,.922-.168,2.442,2.442,0,0,0,1.592-3.6,3.983,3.983,0,0,0-1.927-1.592,25.609,25.609,0,0,0-3.6-1.089c-.251-.084-.335,0-.419.251-.419,1.76-.838,3.435-1.341,5.2-.084.168,0,.251.168.335.335.084.587.168.922.251a26.109,26.109,0,0,0,3.687.419Z" transform="translate(1 3.505)" fill="#fff"/>
</svg>
