<svg xmlns="http://www.w3.org/2000/svg" width="24" height="24" viewBox="0 0 24 24">
  <g id="Group_60914" data-name="Group 60914" transform="translate(13462 -11199)">
    <rect id="Rectangle_1384" data-name="Rectangle 1384" width="24" height="24" transform="translate(-13462 11199)" fill="none"/>
    <g id="Iconly_Light-Outline_Calendar" data-name="Iconly/Light-Outline/Calendar" transform="translate(-13461.75 11199.25)">
      <g id="Calendar" transform="translate(2 1)">
        <path id="Combined-Shape" d="M13.793,0a.75.75,0,0,1,.75.75V1.6a5.382,5.382,0,0,1,3.531,1.46A5.372,5.372,0,0,1,19.5,6.975V16.1c0,3.332-2.116,5.4-5.521,5.4H5.521C2.116,21.5,0,19.4,0,16.022V6.973A5,5,0,0,1,4.965,1.6V.75a.75.75,0,1,1,1.5,0v.829h6.578V.75A.75.75,0,0,1,13.793,0ZM18,8.9H1.5v7.118C1.5,18.588,2.928,20,5.521,20h8.458C16.572,20,18,18.614,18,16.1ZM14.2,15.2a.749.749,0,1,1-.009,0Zm-4.438,0a.749.749,0,1,1-.009,0Zm-4.447,0a.75.75,0,1,1-.009,0ZM14.2,11.31a.749.749,0,1,1-.009,0Zm-4.438,0a.749.749,0,1,1-.009,0Zm-4.447,0a.75.75,0,1,1-.009,0Zm7.726-8.231H6.465v.962a.75.75,0,0,1-1.5,0V3.1A3.487,3.487,0,0,0,1.5,6.973V7.4H18V6.973a3.865,3.865,0,0,0-.987-2.855A3.864,3.864,0,0,0,14.544,3.1v.939a.75.75,0,0,1-1.5,0Z" fill="#fff" fill-rule="evenodd"/>
      </g>
    </g>
  </g>
</svg>
