<?xml version="1.0" encoding="utf-8"?>
<!-- Generator: Adobe Illustrator 27.3.1, SVG Export Plug-In . SVG Version: 6.00 Build 0)  -->
<svg version="1.1" id="Layer_1" xmlns="http://www.w3.org/2000/svg" xmlns:xlink="http://www.w3.org/1999/xlink" x="0px" y="0px"
	 viewBox="0 0 24 24" style="enable-background:new 0 0 24 24;" xml:space="preserve">
<style type="text/css">
	.st0{fill:none;}
	.st1{fill-rule:evenodd;clip-rule:evenodd;}
</style>
<g id="Group_60914" transform="translate(13462 -11199)">
	<rect id="Rectangle_1384" x="-13462" y="11199" class="st0" width="24" height="24"/>
	<g id="Iconly_Light-Outline_Calendar" transform="translate(-13461.75 11199.25)">
		<g id="Calendar" transform="translate(2 1)">
			<path id="Combined-Shape" class="st1" d="M13.8,0c0.4,0,0.8,0.3,0.8,0.8v0.9c1.3,0,2.6,0.6,3.5,1.5c1,1.1,1.5,2.5,1.4,3.9v9.1
				c0,3.3-2.1,5.4-5.5,5.4H5.5C2.1,21.5,0,19.4,0,16V7c-0.2-2.8,1.9-5.2,4.6-5.4c0.1,0,0.2,0,0.4,0V0.8C5,0.3,5.3,0,5.7,0
				s0.8,0.3,0.8,0.8v0.8H13V0.8C13,0.3,13.4,0,13.8,0z M18,8.9H1.5V16c0,2.6,1.4,4,4,4H14c2.6,0,4-1.4,4-3.9V8.9z M14.2,15.2
				c0.4,0,0.7,0.3,0.7,0.8c0,0.4-0.3,0.7-0.8,0.7s-0.7-0.3-0.7-0.8C13.4,15.5,13.8,15.2,14.2,15.2L14.2,15.2z M9.8,15.2
				c0.4,0,0.7,0.3,0.7,0.8c0,0.4-0.3,0.7-0.8,0.7S9,16.4,9,15.9C9,15.5,9.3,15.2,9.8,15.2L9.8,15.2z M5.3,15.2
				c0.4,0,0.7,0.3,0.7,0.8c0,0.4-0.3,0.7-0.8,0.7s-0.7-0.3-0.7-0.8C4.6,15.5,4.9,15.2,5.3,15.2L5.3,15.2z M14.2,11.3
				c0.4,0,0.7,0.3,0.7,0.8c0,0.4-0.3,0.7-0.8,0.7c-0.4,0-0.7-0.3-0.7-0.8C13.4,11.6,13.8,11.3,14.2,11.3L14.2,11.3z M9.8,11.3
				c0.4,0,0.7,0.3,0.7,0.8c0,0.4-0.3,0.7-0.8,0.7c-0.4,0-0.7-0.3-0.7-0.8C9,11.6,9.3,11.3,9.8,11.3L9.8,11.3z M5.3,11.3
				c0.4,0,0.7,0.3,0.7,0.8c0,0.4-0.3,0.7-0.8,0.7s-0.7-0.3-0.7-0.8C4.6,11.6,4.9,11.3,5.3,11.3L5.3,11.3z M13,3.1H6.5v1
				c0,0.4-0.3,0.8-0.8,0.8S5,4.5,5,4V3.1C3,3.1,1.5,4.7,1.5,6.6c0,0.1,0,0.3,0,0.4v0.4H18V7c0.1-1-0.3-2.1-1-2.9
				c-0.7-0.6-1.6-1-2.5-1V4c0,0.4-0.3,0.8-0.8,0.8S13,4.5,13,4L13,3.1z"/>
		</g>
	</g>
</g>
</svg>
