<svg xmlns="http://www.w3.org/2000/svg" width="18" height="18" viewBox="0 0 18 18">
  <path id="_8e73d24d4cb9d5708c8d4a209f54a6bd" data-name="8e73d24d4cb9d5708c8d4a209f54a6bd" d="M17,3H11A4.012,4.012,0,0,0,7,7a4.012,4.012,0,0,0-4,4v6a4.012,4.012,0,0,0,4,4h6a4.012,4.012,0,0,0,4-4,4.012,4.012,0,0,0,4-4V7A4.012,4.012,0,0,0,17,3ZM15,17a2.006,2.006,0,0,1-2,2H7a2.006,2.006,0,0,1-2-2V11A2.006,2.006,0,0,1,7,9h6a2.006,2.006,0,0,1,2,2Zm4-4a2.006,2.006,0,0,1-2,2V11a4.012,4.012,0,0,0-4-4H9a2.006,2.006,0,0,1,2-2h6a2.006,2.006,0,0,1,2,2Z" transform="translate(-3 -3)" fill="#dbdbdb"/>
</svg>
