<svg xmlns="http://www.w3.org/2000/svg" xmlns:xlink="http://www.w3.org/1999/xlink" width="80.1" height="80.1" viewBox="0 0 80.1 80.1">
  <defs>
    <linearGradient id="linear-gradient" x1="0.482" y1="0.526" x2="1.374" y2="0.54" gradientUnits="objectBoundingBox">
      <stop offset="0" stop-color="#ff602e" stop-opacity="0"/>
      <stop offset="1" stop-color="#fe374b" stop-opacity="0.2"/>
    </linearGradient>
    <linearGradient id="linear-gradient-2" x1="0.164" y1="0.265" x2="0.993" y2="0.918" gradientUnits="objectBoundingBox">
      <stop offset="0" stop-color="#ff602e"/>
      <stop offset="0.368" stop-color="#fe1c5e"/>
      <stop offset="1" stop-color="#570ebe"/>
    </linearGradient>
  </defs>
  <g id="Group_60734" data-name="Group 60734" transform="translate(-17245.95 -12758.95)">
    <g id="Group_60731" data-name="Group 60731" transform="translate(21732 -3719)">
      <g id="Group_60730" data-name="Group 60730" transform="translate(52 37)">
        <g id="Group_60728" data-name="Group 60728" transform="translate(194 -25)">
          <circle id="Ellipse_497" data-name="Ellipse 497" cx="40" cy="40" r="40" transform="translate(-4732 16466)" stroke="#ff5a32" stroke-width="0.1" fill="url(#linear-gradient)"/>
        </g>
      </g>
    </g>
    <g id="_76594658038b232e5380da67e12c7e3c" data-name="76594658038b232e5380da67e12c7e3c" transform="translate(17264.754 12776.715)">
      <path id="Path_24325" data-name="Path 24325" d="M29.4,11.126a9.132,9.132,0,0,0-18.259,0,9.132,9.132,0,0,0,18.259,0Zm-14.2,0a5.076,5.076,0,0,1,10.144,0,5.076,5.076,0,0,1-10.144,0ZM9.314,31.82a7.108,7.108,0,0,1,6.9-5.68h8.115A8.128,8.128,0,0,1,29,27.763a2.013,2.013,0,0,0,2.637-3.043,11.921,11.921,0,0,0-7.3-2.637H16.211A11.409,11.409,0,0,0,5.256,30.8L4.242,34.66a5.988,5.988,0,0,0,1.014,5.478,6.173,6.173,0,0,0,4.869,2.232h14a2.029,2.029,0,0,0,0-4.057h-14a1.46,1.46,0,0,1-1.42-.811A1.636,1.636,0,0,1,8.1,35.674Z" fill="url(#linear-gradient-2)"/>
      <path id="Path_24326" data-name="Path 24326" d="M21.086,28.172a1.917,1.917,0,0,0,2.029-2.029V24.115h2.029a1.917,1.917,0,0,0,2.029-2.029,1.917,1.917,0,0,0-2.029-2.029H23.115V18.029A1.917,1.917,0,0,0,21.086,16a1.917,1.917,0,0,0-2.029,2.029v2.029H17.029A1.917,1.917,0,0,0,15,22.086a1.917,1.917,0,0,0,2.029,2.029h2.029v2.029a1.917,1.917,0,0,0,2.028,2.028Z" transform="translate(11.355 14.197)" fill="url(#linear-gradient-2)"/>
    </g>
  </g>
</svg>
