<svg xmlns="http://www.w3.org/2000/svg" xmlns:xlink="http://www.w3.org/1999/xlink" width="80.1" height="80.1" viewBox="0 0 80.1 80.1">
  <defs>
    <linearGradient id="linear-gradient" x1="0.482" y1="0.526" x2="1.374" y2="0.54" gradientUnits="objectBoundingBox">
      <stop offset="0" stop-color="#ff602e" stop-opacity="0"/>
      <stop offset="1" stop-color="#fe374b" stop-opacity="0.2"/>
    </linearGradient>
    <linearGradient id="linear-gradient-2" x1="0.164" y1="0.265" x2="0.993" y2="0.918" gradientUnits="objectBoundingBox">
      <stop offset="0" stop-color="#ff602e"/>
      <stop offset="0.368" stop-color="#fe1c5e"/>
      <stop offset="1" stop-color="#570ebe"/>
    </linearGradient>
  </defs>
  <g id="Group_60736" data-name="Group 60736" transform="translate(-17228.95 -12892.95)">
    <g id="Group_60735" data-name="Group 60735" transform="translate(-17 134)">
      <g id="Group_60731" data-name="Group 60731" transform="translate(21732 -3719)">
        <g id="Group_60730" data-name="Group 60730" transform="translate(52 37)">
          <g id="Group_60728" data-name="Group 60728" transform="translate(194 -25)">
            <circle id="Ellipse_497" data-name="Ellipse 497" cx="40" cy="40" r="40" transform="translate(-4732 16466)" stroke="#ff5a32" stroke-width="0.1" fill="url(#linear-gradient)"/>
          </g>
        </g>
      </g>
    </g>
    <g id="_1025b2d15707e05bfb9f3eb1e5eef0c1" data-name="1025b2d15707e05bfb9f3eb1e5eef0c1" transform="translate(17136.596 12809.289)">
      <path id="Path_24327" data-name="Path 24327" d="M130.566,123.041a9.46,9.46,0,1,1,9.459-9.46,9.46,9.46,0,0,1-9.459,9.46Zm0-16.192a6.733,6.733,0,1,0,6.732,6.733,6.733,6.733,0,0,0-6.732-6.733Zm1.767,36.453h-16.87l-1.363-1.363a16.484,16.484,0,0,1,16.466-16.465,16.3,16.3,0,0,1,10.113,3.471,16.8,16.8,0,0,1,1.3,1.124l.983.946-1.891,1.966-.983-.946a13.873,13.873,0,0,0-1.082-.939,13.6,13.6,0,0,0-8.437-2.9A13.76,13.76,0,0,0,116.9,140.575h15.44Z" fill="url(#linear-gradient-2)"/>
      <path id="Path_24328" data-name="Path 24328" d="M258.785,310.652l-2.082-.019L250.62,303.3l2.1-1.74,5.053,6.1,9.779-11.35,2.066,1.78Z" transform="translate(-118.91 -167.39)" fill="url(#linear-gradient-2)"/>
    </g>
  </g>
</svg>
