<svg xmlns="http://www.w3.org/2000/svg" width="24" height="24" viewBox="0 0 24 24">
  <g id="Group_60968" data-name="Group 60968" transform="translate(18406 18596)">
    <g id="Iconly_Light-Outline_Hide" data-name="Iconly/Light-Outline/Hide" transform="translate(-18407 -18596)">
      <g id="Hide" transform="translate(2 3)">
        <path id="Combined-Shape" d="M19.417.232a.791.791,0,0,1,0,1.119L2.787,17.98a.79.79,0,0,1-1.118-1.118l2.079-2.078A15.553,15.553,0,0,1,.065,9.419a.786.786,0,0,1,0-.625A15.2,15.2,0,0,1,4.45,2.829a9.612,9.612,0,0,1,11.648-.4l2.2-2.2A.79.79,0,0,1,19.417.232Zm-.39,5.083a17.021,17.021,0,0,1,1.994,3.477.782.782,0,0,1,0,.627c-2.21,5.121-6.127,8.177-10.478,8.177a9.247,9.247,0,0,1-2.919-.475.791.791,0,0,1,.5-1.5,7.635,7.635,0,0,0,2.42.4c3.614,0,6.917-2.574,8.888-6.909a15.287,15.287,0,0,0-1.667-2.84.791.791,0,1,1,1.263-.951ZM5.429,4.071A13.427,13.427,0,0,0,1.656,9.108a13.729,13.729,0,0,0,3.212,4.556l2.254-2.254a4.08,4.08,0,0,1-.705-2.3,4.125,4.125,0,0,1,6.432-3.424l2.11-2.11A8,8,0,0,0,5.429,4.071Zm8.527,4.85a.791.791,0,0,1,.639.918,4.132,4.132,0,0,1-3.312,3.318.831.831,0,0,1-.142.013A.791.791,0,0,1,11,11.6a2.539,2.539,0,0,0,2.037-2.042A.794.794,0,0,1,13.956,8.921ZM10.543,6.559A2.549,2.549,0,0,0,8,9.108a2.519,2.519,0,0,0,.276,1.151L11.7,6.836A2.545,2.545,0,0,0,10.543,6.559Z" fill="#fff" fill-rule="evenodd"/>
      </g>
    </g>
    <rect id="Rectangle_1374" data-name="Rectangle 1374" width="24" height="24" transform="translate(-18406 -18596)" fill="none"/>
  </g>
</svg>
