<svg xmlns="http://www.w3.org/2000/svg" width="18" height="18.6" viewBox="0 0 18 18.6">
  <path id="d0ccabf3230c04804a88b1ed0659e500" d="M14.3,7.05,13.05,8.29,6.39,14.95a1,1,0,0,0-.28.57L5.4,20.46c-.074.59.29,1.14,1.14,1.14l4.94-.71a1,1,0,0,0,.57-.28l6.66-6.66,1.12-1.12a1.546,1.546,0,0,0,.12-.13A4,4,0,0,0,14.3,7.05Zm2.7.97A1.974,1.974,0,0,1,19,10a1.932,1.932,0,0,1-.4,1.18L15.82,8.4A1.935,1.935,0,0,1,17,8.02ZM10.87,18.96l-3.3.47.47-3.3L14.38,9.8l2.82,2.82ZM4,5h9a1,1,0,0,0,0-2H4A1,1,0,0,0,4,5ZM4,9h6a1,1,0,0,0,0-2H4A1,1,0,0,0,4,9Zm2,2H4a1,1,0,0,0,0,2H6a1,1,0,0,0,0-2Z" transform="translate(-3 -3)" fill="#dbdbdb"/>
</svg>
