<svg xmlns="http://www.w3.org/2000/svg" xmlns:xlink="http://www.w3.org/1999/xlink" width="30" height="29" viewBox="0 0 30 29">
  <defs>
    <linearGradient id="linear-gradient" x1="0.164" y1="0.265" x2="0.993" y2="0.918" gradientUnits="objectBoundingBox">
      <stop offset="0" stop-color="#ff602e"/>
      <stop offset="0.368" stop-color="#fe1c5e"/>
      <stop offset="1" stop-color="#570ebe"/>
    </linearGradient>
  </defs>
  <g id="Group_60949" data-name="Group 60949" transform="translate(8345 -3447)">
    <rect id="Rectangle_1360" data-name="Rectangle 1360" width="30" height="29" transform="translate(-8345 3447)" fill="none"/>
    <path id="_209183a484cbb3fecd7e82253faf29f0" data-name="209183a484cbb3fecd7e82253faf29f0" d="M11.051,13.5V5.622l7.526,3.954ZM27.575,4.256a6.1,6.1,0,0,0-1.107-2.784A3.965,3.965,0,0,0,23.677.284C19.78,0,13.933,0,13.933,0H13.92S8.074,0,4.176.284A3.962,3.962,0,0,0,1.385,1.472,6.092,6.092,0,0,0,.279,4.256,42.739,42.739,0,0,0,0,8.8v2.128a42.707,42.707,0,0,0,.279,4.54,6.092,6.092,0,0,0,1.107,2.784,4.7,4.7,0,0,0,3.071,1.2c2.228.215,9.47.282,9.47.282s5.853-.009,9.751-.293a3.968,3.968,0,0,0,2.791-1.188,6.1,6.1,0,0,0,1.107-2.784,42.692,42.692,0,0,0,.279-4.54V8.8a42.739,42.739,0,0,0-.279-4.54Z" transform="translate(-8343.927 3451.635)" fill-rule="evenodd" fill="url(#linear-gradient)"/>
  </g>
</svg>
