<svg width="29" height="29" viewBox="0 0 29 29" fill="none" xmlns="http://www.w3.org/2000/svg">
<g clip-path="url(#clip0_283_1983)">
<path d="M29 14.5C29 6.49187 22.5081 0 14.5 0C6.49187 0 0 6.49187 0 14.5C0 22.5081 6.49187 29 14.5 29C22.5081 29 29 22.5081 29 14.5Z" fill="#419FD9"/>
<path d="M29 14.5C29 6.49187 22.5081 0 14.5 0C6.49187 0 0 6.49187 0 14.5C0 22.5081 6.49187 29 14.5 29C22.5081 29 29 22.5081 29 14.5Z" fill="url(#paint0_linear_283_1983)"/>
<path d="M14.5037 10.649C13.7419 10.649 12.9973 10.8749 12.364 11.2981C11.7306 11.7213 11.237 12.3228 10.9455 13.0265C10.654 13.7303 10.5777 14.5046 10.7263 15.2517C10.875 15.9988 11.2418 16.685 11.7804 17.2237C12.319 17.7623 13.0052 18.1291 13.7523 18.2777C14.4994 18.4263 15.2738 18.35 15.9775 18.0585C16.6812 17.767 17.2827 17.2734 17.7059 16.64C18.1291 16.0067 18.355 15.2621 18.355 14.5004C18.355 13.9946 18.2554 13.4938 18.0618 13.0265C17.8683 12.5593 17.5846 12.1347 17.227 11.7771C16.8693 11.4194 16.4448 11.1357 15.9775 10.9422C15.5102 10.7486 15.0094 10.649 14.5037 10.649ZM14.5037 17.0006C14.0092 17.0006 13.5257 16.854 13.1146 16.5793C12.7034 16.3045 12.3829 15.914 12.1937 15.4572C12.0045 15.0003 11.9549 14.4976 12.0514 14.0125C12.1479 13.5275 12.386 13.082 12.7357 12.7324C13.0854 12.3827 13.5309 12.1446 14.0159 12.0481C14.5009 11.9516 15.0036 12.0011 15.4605 12.1904C15.9174 12.3796 16.3079 12.7001 16.5826 13.1113C16.8573 13.5224 17.004 14.0059 17.004 14.5004C17.004 14.8287 16.9394 15.1539 16.8137 15.4572C16.6881 15.7606 16.5039 16.0362 16.2717 16.2684C16.0395 16.5006 15.7639 16.6848 15.4605 16.8104C15.1572 16.936 14.832 17.0007 14.5037 17.0006Z" fill="white"/>
<path d="M21.9552 11.4081C21.9429 10.7859 21.8251 10.1703 21.6068 9.58755C21.4182 9.08719 21.123 8.63384 20.7417 8.2589C20.3673 7.87724 19.9141 7.58198 19.4137 7.39377C18.8309 7.17534 18.2153 7.05755 17.5931 7.04541C16.7934 7.009 16.5378 7 14.5009 7C12.4641 7 12.2082 7.00845 11.4081 7.04541C10.7859 7.0577 10.1703 7.17549 9.58755 7.39377C9.08705 7.58215 8.63364 7.87739 8.2589 8.2589C7.87703 8.63335 7.58176 9.08684 7.39382 9.58755C7.17555 10.1703 7.05776 10.7859 7.04546 11.4081C7.00849 12.2078 7 12.4635 7 14.5003C7 16.5371 7.00849 16.7928 7.04544 17.5925C7.05774 18.2147 7.17554 18.8303 7.39382 19.413C7.58182 19.9137 7.87708 20.3672 8.2589 20.7417C8.63383 21.123 9.08718 21.4181 9.58755 21.6068C10.1703 21.825 10.7859 21.9428 11.4081 21.9551C12.2082 21.9915 12.4635 22.0006 14.5003 22.0006C16.5371 22.0006 16.7928 21.9921 17.5925 21.9551C18.2147 21.9428 18.8303 21.825 19.413 21.6068C19.9114 21.4141 20.3639 21.1194 20.7417 20.7417C21.1195 20.3639 21.4141 19.9113 21.6068 19.413C21.8253 18.8303 21.9431 18.2147 21.9552 17.5925C21.9916 16.7922 22 16.5371 22 14.5003C22 12.4635 21.9916 12.2078 21.9552 11.4081ZM20.6059 17.5313C20.6001 18.007 20.5128 18.4781 20.3479 18.9242C20.223 19.2477 20.0319 19.5414 19.7866 19.7865C19.5414 20.0316 19.2476 20.2226 18.9241 20.3473C18.4781 20.5127 18.0069 20.6 17.5313 20.6053C16.7407 20.6417 16.5032 20.6489 14.5002 20.6489C12.4973 20.6489 12.2605 20.6417 11.4701 20.6053C10.9945 20.5999 10.5233 20.5126 10.0773 20.3473C9.75149 20.2269 9.45673 20.0352 9.21455 19.7863C8.96523 19.5447 8.77349 19.25 8.65353 18.9242C8.48817 18.4782 8.40089 18.007 8.39552 17.5314C8.35914 16.7408 8.35191 16.5033 8.35191 14.5003C8.35191 12.4974 8.35977 12.2606 8.39552 11.4693C8.40151 10.9937 8.48877 10.5227 8.65353 10.0765C8.77392 9.75074 8.9656 9.45599 9.21455 9.21381C9.45631 8.96435 9.75119 8.77259 10.0773 8.65279C10.5233 8.48744 10.9945 8.40016 11.4701 8.39478C12.2607 8.35841 12.4982 8.35116 14.5002 8.35116C16.5023 8.35116 16.74 8.35903 17.5313 8.39478C18.0069 8.40077 18.4779 8.48803 18.9241 8.65279C19.2477 8.77748 19.5416 8.9686 19.7868 9.21382C20.0321 9.45904 20.2232 9.75293 20.3479 10.0765C20.5132 10.5225 20.6005 10.9937 20.6059 11.4693C20.6422 12.2606 20.6495 12.4974 20.6495 14.5004C20.6495 16.5033 20.6422 16.7401 20.6059 17.5313Z" fill="white"/>
<path d="M18.5055 9.59656C18.2669 9.5966 18.0377 9.69144 17.8689 9.86021C17.7002 10.029 17.6054 10.2579 17.6055 10.4965C17.6055 10.7352 17.7003 10.964 17.8691 11.1328C18.0378 11.3015 18.2667 11.3963 18.5053 11.3963C18.744 11.3963 18.9729 11.3015 19.1416 11.1328C19.3104 10.964 19.4052 10.7352 19.4052 10.4965C19.4052 10.2579 19.3105 10.029 19.1417 9.86021C18.973 9.69144 18.7442 9.5966 18.5055 9.59656Z" fill="white"/>
</g>
<defs>
<linearGradient id="paint0_linear_283_1983" x1="4.756" y1="7.685" x2="28.797" y2="26.622" gradientUnits="userSpaceOnUse">
<stop stop-color="#FF602E"/>
<stop offset="0.368" stop-color="#FE1C5E"/>
<stop offset="1" stop-color="#570EBE"/>
</linearGradient>
<clipPath id="clip0_283_1983">
<rect width="29" height="29" fill="white"/>
</clipPath>
</defs>
</svg>
