<svg xmlns="http://www.w3.org/2000/svg" width="20" height="20" viewBox="0 0 20 20">
  <g id="Group_15557" data-name="Group 15557" transform="translate(-1636 -5266)">
    <rect id="Rectangle_1033" data-name="Rectangle 1033" width="20" height="20" transform="translate(1636 5266)" fill="none"/>
    <path id="f93e92c74c7ad5bf50796583dd7fc241" d="M11.189,11.545l-2,1.987a.871.871,0,1,0,1.232,1.232L13.9,11.293a.9.9,0,0,0,0-1.232L10.426,6.59A.871.871,0,0,0,9.194,7.822l2,1.987H2.868a.868.868,0,1,0,0,1.735ZM10.677,2a8.677,8.677,0,0,0-7.81,4.816A.873.873,0,0,0,4.43,7.6a6.977,6.977,0,1,1,.035,6.161.873.873,0,0,0-1.562.781A8.677,8.677,0,1,0,10.677,2Z" transform="translate(1635.324 5265.322)" fill="#fff"/>
  </g>
</svg>
