<svg xmlns="http://www.w3.org/2000/svg" xmlns:xlink="http://www.w3.org/1999/xlink" width="20" height="20" viewBox="0 0 20 20">
  <defs>
    <linearGradient id="linear-gradient" x1="0.164" y1="0.265" x2="0.993" y2="0.918" gradientUnits="objectBoundingBox">
      <stop offset="0" stop-color="#ff602e"/>
      <stop offset="0.368" stop-color="#fe1c5e"/>
      <stop offset="1" stop-color="#570ebe"/>
    </linearGradient>
  </defs>
  <g id="moonheads" transform="translate(-16176 -3356)">
    <rect id="Rectangle_1343" data-name="Rectangle 1343" width="20" height="20" transform="translate(16176 3356)" fill="none"/>
    <g id="_8754a167af58b079a7e99a86d36cc6db" data-name="8754a167af58b079a7e99a86d36cc6db" transform="translate(16170.439 3350.893)">
      <path id="Path_24355" data-name="Path 24355" d="M19.332,24.155a9.224,9.224,0,0,1-6.192-2.4h.6a9.848,9.848,0,0,0,7.912-15.7,9.2,9.2,0,0,1-2.316,18.091Z" transform="translate(-4.154)" fill="url(#linear-gradient)"/>
      <path id="Path_24356" data-name="Path 24356" d="M12.7,12.008a.262.262,0,0,0,.181-.133l.61-1.106.607,1.106a.262.262,0,0,0,.181.133l1.238.237-.862.921a.251.251,0,0,0-.07.213l.157,1.249L13.6,14.1a.251.251,0,0,0-.223,0l-1.144.534.157-1.249a.258.258,0,0,0-.066-.213l-.865-.921ZM7.283,17.147l.1-.809a.258.258,0,0,0-.07-.213l-.555-.593.8-.147a.272.272,0,0,0,.181-.133l.391-.7.394.7a.258.258,0,0,0,.178.133l.8.15-.565.59a.269.269,0,0,0-.07.213l.1.809L8.232,16.8a.269.269,0,0,0-.223,0Zm6.782,2.166a.262.262,0,0,0-.066.213l.1.806-.736-.349a.258.258,0,0,0-.112-.024.248.248,0,0,0-.112.024l-.736.349.1-.806a.265.265,0,0,0-.07-.213l-.558-.593.8-.153a.265.265,0,0,0,.181-.129l.394-.715.391.715a.265.265,0,0,0,.181.129l.8.153Z" transform="translate(0 -3.067)" fill="url(#linear-gradient)"/>
    </g>
  </g>
</svg>
