<svg width="32" height="32" viewBox="0 0 32 32" fill="none" xmlns="http://www.w3.org/2000/svg">
<path d="M9.85209 0.581543L4.92188 5.51176H9.85209V0.581543Z" fill="#383838"/>
<path d="M15.1932 13.626C14.0402 13.626 12.8873 14.065 12.0045 14.943C10.2485 16.6989 10.2485 19.5596 12.0045 21.3156C13.7604 23.0715 16.6211 23.0715 18.3771 21.3156C20.1331 19.5596 20.1331 16.6989 18.3771 14.943C17.4991 14.065 16.3462 13.626 15.1932 13.626ZM17.3737 19.632C17.5618 19.8201 17.5618 20.124 17.3737 20.3122C17.2772 20.4086 17.1566 20.4521 17.0312 20.4521C16.9057 20.4521 16.7851 20.4038 16.6887 20.3122L15.1884 18.8119L13.6881 20.3122C13.5916 20.4086 13.471 20.4521 13.3456 20.4521C13.2201 20.4521 13.0995 20.4038 13.0031 20.3122C12.8149 20.124 12.8149 19.8201 13.0031 19.632L14.5034 18.1317L13.0031 16.6314C12.8149 16.4432 12.8149 16.1393 13.0031 15.9512C13.1912 15.763 13.4951 15.763 13.6833 15.9512L15.1835 17.4515L16.6838 15.9512C16.872 15.763 17.1759 15.763 17.364 15.9512C17.5522 16.1393 17.5522 16.4432 17.364 16.6314L15.8637 18.1317L17.3737 19.632Z" fill="#383838"/>
<path d="M10.2591 13.1963C7.53344 15.9219 7.53344 20.3408 10.2591 23.0664C12.9847 25.792 17.4035 25.792 20.1291 23.0664C22.8547 20.3408 22.8547 15.9219 20.1291 13.1963C17.4035 10.4707 12.9847 10.4707 10.2591 13.1963ZM19.063 22.0003C17.9969 23.0664 16.5931 23.6019 15.1941 23.6019C13.7951 23.6019 12.3913 23.0664 11.3252 22.0003C9.19293 19.868 9.19293 16.3947 11.3252 14.2624C13.4574 12.1302 16.9308 12.1302 19.063 14.2624C21.1953 16.3947 21.1953 19.868 19.063 22.0003Z" fill="#383838"/>
<path d="M19.4945 24.9625L19.3932 24.866C18.1438 25.6524 16.7014 26.0769 15.1914 26.0769C13.0688 26.0769 11.0765 25.252 9.5762 23.7517C6.47914 20.6546 6.47914 15.6135 9.5762 12.5164C11.0765 11.0161 13.0688 10.1912 15.1914 10.1912C17.314 10.1912 19.3064 11.0161 20.8067 12.5164C22.307 14.0167 23.1319 16.0139 23.1319 18.1316C23.1319 19.6464 22.7074 21.0888 21.9259 22.3382L22.0223 22.4347C22.6832 22.4395 23.3056 22.7 23.7735 23.168L24.4151 23.8096V0.586426H10.8208V6.48146H4.92578V26.6558H20.1651C19.7309 26.1927 19.4945 25.5897 19.4945 24.9625ZM21.704 8.98516H16.904C16.6387 8.98516 16.4216 8.76807 16.4216 8.50275C16.4216 8.23743 16.6387 8.02034 16.904 8.02034H21.704C21.9693 8.02034 22.1864 8.23743 22.1864 8.50275C22.1864 8.76807 21.9693 8.98516 21.704 8.98516ZM21.704 7.05552H16.904C16.6387 7.05552 16.4216 6.83844 16.4216 6.57312C16.4216 6.30779 16.6387 6.09071 16.904 6.09071H21.704C21.9693 6.09071 22.1864 6.30779 22.1864 6.57312C22.1864 6.83844 21.9693 7.05552 21.704 7.05552ZM12.5623 2.23144H21.704C21.9693 2.23144 22.1864 2.44852 22.1864 2.71385C22.1864 2.97917 21.9693 3.19626 21.704 3.19626H12.5623C12.297 3.19626 12.0799 2.97917 12.0799 2.71385C12.0799 2.44852 12.297 2.23144 12.5623 2.23144ZM12.5623 4.16107H21.704C21.9693 4.16107 22.1864 4.37816 22.1864 4.64348C22.1864 4.90881 21.9693 5.12589 21.704 5.12589H12.5623C12.297 5.12589 12.0799 4.90881 12.0799 4.64348C12.0799 4.37816 12.297 4.16107 12.5623 4.16107Z" fill="#383838"/>
<path d="M6.84375 27.6206V28.5758H22.083L21.1279 27.6206H6.84375Z" fill="#383838"/>
<path d="M26.3341 2.50635H25.3789V24.7743L26.3341 25.7247V2.50635Z" fill="#383838"/>
<path d="M27.5463 28.3007L23.0937 23.8481C22.7029 23.4573 22.1626 23.3271 21.6609 23.438L21.3618 23.1389C21.1882 23.3512 21.0048 23.5538 20.8119 23.7516C20.6141 23.9494 20.4115 24.1327 20.1992 24.3015L20.4983 24.6054C20.3874 25.1071 20.5224 25.6474 20.9084 26.0382L25.361 30.4908C25.964 31.0938 26.9433 31.0938 27.5463 30.4908C28.1493 29.883 28.1493 28.9037 27.5463 28.3007Z" fill="#383838"/>
</svg>
