<svg id="Group_60888" data-name="Group 60888" xmlns="http://www.w3.org/2000/svg" xmlns:xlink="http://www.w3.org/1999/xlink" width="63.984" height="63.979" viewBox="0 0 63.984 63.979">
  <defs>
    <linearGradient id="linear-gradient" x1="0.164" y1="0.265" x2="0.993" y2="0.918" gradientUnits="objectBoundingBox">
      <stop offset="0" stop-color="#ff602e"/>
      <stop offset="0.368" stop-color="#fe1c5e"/>
      <stop offset="1" stop-color="#570ebe"/>
    </linearGradient>
  </defs>
  <ellipse id="Ellipse_479" data-name="Ellipse 479" cx="27.5" cy="27" rx="27.5" ry="27" transform="translate(4.993 9)" fill="url(#linear-gradient)"/>
  <g id="b39d99720dbba8887bcf7ad10a894cb4">
    <path id="Path_24282" data-name="Path 24282" d="M55.192,9.9a31.994,31.994,0,0,0-45.6,44.882l.233.237.02.02h0l.1.1.234.234a31.965,31.965,0,0,0,9.143,6.277l.324.145h0c.23.1.463.2.7.3l.376.152.376.148q.4.155.81.3h.008q.433.154.877.293l.455.142q.635.194,1.28.359l.431.108c.23.058.461.11.693.16s.465.1.7.145q.438.086.877.159c.147.025.293.049.441.071s.294.044.442.064l.356.048c.113.015.225.029.339.041h.031l.348.039.351.035.358.031c.239.02.478.036.719.051l.443.024h.043c.144.006.289.013.435.016h.12c.086,0,.172,0,.258.006h.061c.2,0,.4.006.6.006h.013q.783,0,1.561-.039c.243-.011.485-.026.726-.043h.069c.125-.01.25-.019.376-.03l.387-.035q.387-.038.773-.084c.257-.031.512-.066.768-.1s.511-.078.764-.125q.188-.032.376-.068l.376-.071.376-.076.406-.088.312-.071c.03-.006.061-.013.091-.021h.014c.1-.023.2-.048.3-.073q.188-.045.376-.094l.376-.1q.376-.1.738-.21c.125-.036.25-.074.367-.113s.244-.076.366-.116.243-.079.364-.125l.723-.25.359-.134c.125-.045.238-.091.357-.138.238-.094.473-.19.71-.289.177-.074.352-.15.527-.228s.348-.157.522-.238l.314-.148c.1-.046.2-.094.294-.143q.282-.139.562-.283h0A32.155,32.155,0,0,0,54.9,55.391l.059-.048h0c.085-.07.158-.143.222-.207.109-.109.218-.219.324-.329l.015-.014.041-.044a31.956,31.956,0,0,0-.376-44.86ZM21.74,14.109a15.327,15.327,0,1,1-4.489,10.837A15.327,15.327,0,0,1,21.74,14.109ZM12.127,54.632c.088-.1.177-.205.266-.307l.021-.02.006-.006c.031-.036.064-.074.1-.109l.2-.218c.066-.073.133-.145.2-.217l.033-.035.01-.011c.066-.073.133-.143.2-.213.1-.106.2-.213.308-.317h0c.064-.065.125-.125.194-.193s.116-.118.175-.173l.073-.071c.064-.061.125-.125.192-.182l.026-.025.009-.009h0l.039-.036c.07-.068.14-.133.212-.2h0l.133-.125.028-.024c.066-.063.135-.125.2-.183l.154-.135c.07-.063.142-.125.213-.183l.18-.154c.061-.053.125-.105.188-.157s.14-.115.212-.172c.053-.044.105-.086.159-.125l.023-.018.031-.025c.06-.049.125-.1.183-.144l.014-.01q.073-.059.147-.113l.025-.02.144-.109h.008l.015-.011c.09-.069.18-.137.272-.2.024-.019.049-.038.074-.054.094-.07.188-.138.283-.2l.163-.114L17.254,50l.208-.144.024-.018.03-.02.06-.039c.1-.071.208-.14.313-.209s.2-.131.3-.2c.069-.044.138-.088.208-.125l.038-.024.308-.189c.125-.078.261-.155.392-.23h0l.045-.026h.008c.074-.044.149-.085.224-.125l.049-.026.044-.025c.058-.033.115-.065.174-.1h0c.088-.049.175-.1.264-.143l.125-.064.018-.009.063-.033.04-.021c.1-.051.193-.1.288-.149l.339-.168.174-.085h.011l.031-.015.045-.021c.1-.049.2-.1.3-.142l.068-.031c.125-.059.258-.116.388-.173l.084-.038.311-.133h.01l.357-.145a.763.763,0,0,1,.074-.03h.008l.155-.06L23,46.985l.143-.055c.125-.045.243-.09.364-.133a.822.822,0,0,1,.083-.03c.106-.039.214-.076.322-.111.063-.023.125-.044.189-.064.1-.034.2-.066.3-.1l.125-.04.031-.01.021-.006c.125-.036.238-.074.358-.109l7.439,10.131L40.256,46.34l.154.046c.1.03.2.063.306.094l.135.043.25.081.075.025.3.1h.011l.193.068.155.058c.1.036.2.074.3.113.137.051.272.1.407.158h0l.06.024.061.025.125.05.036.015.02.009.033.013c.069.026.139.056.207.086.106.044.209.09.314.137l.031.014.054.024.094.041.093.043h0c.016.008.034.014.05.023l.2.09.039.019c.034.015.068.03.1.048h.006c.108.051.218.1.324.157l.115.058.029.014c.089.044.178.088.266.134l.048.025h.009a.433.433,0,0,1,.048.025l.048.025.04.02.289.153.1.056q.17.091.338.188a.578.578,0,0,1,.054.03l.376.217c.024.013.046.028.07.041l.292.175c.07.043.14.085.21.125l.026.016.168.105.018.011h.011l.079.05.054.035c.105.066.212.135.316.205l.09.06q.125.084.25.173l.013.009.2.135h0c.055.038.111.076.167.118s.132.093.2.14.165.125.25.18l.033.025.149.111c.113.084.225.17.337.258.09.069.179.139.268.21l.147.118.257.212c.035.028.07.056.1.086h0c.075.063.15.125.224.192h0l.02.018H50.1l.009.008.086.074c.049.041.1.085.145.125l.04.036c.086.074.173.152.258.229q.311.279.61.572.1.1.2.2c.081.079.162.159.242.24q.341.343.668.7c.014.015.028.029.04.044.069.075.138.15.205.227l.008.008.071.081c.108.125.213.243.318.366A30.247,30.247,0,0,1,12.127,54.632Z" transform="translate(-0.589 -0.515)" fill="#161616"/>
    <path id="Path_24283" data-name="Path 24283" d="M211.661,358.4l.078.023-8.611,11.056L195,358.413c.064-.021.13-.04.2-.057l.2-.056c.15-.042.3-.083.45-.123l.215-.056h0l.029-.007.237-.06.237-.057.07-.016.209-.049.208-.047.094-.022h.029l.193-.041.194-.04q.1-.023.205-.041c.1-.021.2-.04.3-.057l.168-.031.326-.059h0l.244-.04.244-.038.178-.026.179-.025h.1l.248-.031h.086c.1-.012.2-.025.294-.034s.2-.023.3-.033l.181-.047c.12-.012.241-.022.361-.033l.374-.027.3-.019h.1l.346-.018h.1l.3-.011h1.621c.115,0,.23,0,.345.011h.045c.1,0,.2.007.305.012h.01l.3.018.145.008c.089,0,.176.011.265.019h.026c.086,0,.174.012.26.021h.012c.127.01.253.022.379.034h.052l.137.014.19.021h.053l.3.034h.031l.055.007.126.016.3.041.207.03.052.008.245.038.41.068c.137.023.261.047.391.073.17.033.341.066.51.1s.338.073.508.111l.445.105.148.037.056.014.239.063c.194.051.389.1.581.159C211.39,358.321,211.525,358.358,211.661,358.4Z" transform="translate(-171.36 -314.313)" fill="#161616"/>
    <path id="Path_24284" data-name="Path 24284" d="M116.791,354.58l-.508-.722a27.764,27.764,0,0,0-14.191-10.637,24.051,24.051,0,0,0-7.458-1.171h-.088a24.458,24.458,0,0,0-7,1.053q-.714.213-1.415.469a28.063,28.063,0,0,0-13.162,10.311l-.506.72h0l.228.253.019.022h0l.332.367a31.1,31.1,0,0,0,8.8,6.857l.313.159h0c.222.111.447.22.671.326l.362.166.362.161c.26.112.519.222.781.326h.007c.28.111.56.218.845.32l.438.155q.612.209,1.234.393l.415.118q.333.09.668.175t.673.159q.423.094.845.174c.141.027.283.053.425.078s.284.048.426.07l.343.052c.109.016.217.031.327.045h.03l.336.042.338.038.345.034c.231.022.461.04.693.056l.427.026h.041c.139.007.279.014.419.018h.116c.083,0,.165,0,.249.007h.059c.193,0,.388.007.582.007h.012q.755,0,1.5-.042c.234-.011.467-.027.7-.047H96.9c.121-.011.242-.021.362-.033l.373-.038c.249-.026.5-.057.745-.092s.494-.073.74-.112.493-.085.737-.137q.181-.035.362-.074l.362-.078.362-.083.391-.1.3-.078c.029-.007.059-.014.088-.023h.013c.1-.025.2-.052.292-.079q.181-.049.362-.1l.362-.108q.362-.107.711-.23c.121-.04.242-.081.354-.123s.235-.083.353-.127.234-.086.351-.137c.233-.088.466-.181.7-.274l.347-.146c.121-.049.229-.1.344-.151.229-.1.456-.208.685-.316.17-.081.339-.164.508-.249s.336-.171.5-.26l.3-.161c.1-.051.19-.1.284-.156q.272-.152.542-.309h0a31.3,31.3,0,0,0,7.474-6.133h0l.526-.586.014-.015.041-.047Zm-41.886-.137c.085-.112.17-.224.256-.335l.021-.026.006-.007c.03-.04.062-.081.093-.119l.19-.238c.064-.079.128-.159.193-.237l.031-.038.01-.012c.064-.079.128-.156.193-.233.1-.116.2-.233.3-.346h0c.062-.071.121-.137.187-.211s.112-.129.169-.189l.07-.078c.062-.067.121-.137.185-.2l.025-.027.008-.01h0l.037-.04c.068-.074.135-.145.2-.215h0l.128-.137.027-.026c.064-.068.13-.137.2-.2l.149-.148c.068-.068.136-.137.205-.2l.174-.168c.059-.057.121-.115.181-.171s.135-.126.2-.187c.051-.048.1-.094.153-.137l.022-.019.03-.027c.058-.053.121-.105.176-.157l.013-.011q.07-.064.141-.123l.024-.022.139-.119h.007l.014-.012c.087-.075.174-.149.262-.22.023-.021.047-.041.071-.059.091-.077.181-.151.273-.223l.157-.125.021-.015.2-.157.023-.019.029-.022.058-.042c.1-.078.2-.153.3-.229s.194-.144.293-.213c.066-.048.133-.1.2-.137l.036-.026.3-.207c.121-.085.251-.17.378-.252h0l.043-.029h.007c.071-.048.144-.093.216-.137l.047-.029.042-.027c.056-.036.111-.071.168-.105h0c.085-.053.169-.105.255-.156l.121-.07.017-.01.06-.036.039-.023c.092-.056.186-.108.278-.163l.327-.183.168-.093h.011L83.5,347l.043-.023c.1-.053.194-.1.292-.155l.065-.034c.121-.064.249-.127.374-.189l.081-.041.3-.145h.01l.344-.159a.685.685,0,0,1,.071-.033h.007l.15-.066.157-.068.138-.06c.121-.049.234-.1.351-.145a.731.731,0,0,1,.08-.033c.1-.042.206-.083.31-.122.06-.025.121-.048.182-.07.094-.037.19-.073.285-.105l.121-.044.03-.011.021-.007c.121-.04.229-.081.345-.119.057-.021.115-.04.173-.057l.174-.056c.133-.042.264-.083.4-.123l.19-.056h0l.025-.007.209-.06.209-.057.062-.016.185-.049.184-.047.083-.022h.025l.17-.041.171-.04q.091-.023.181-.041c.088-.021.178-.04.266-.057l.149-.031.291-.1h0l.215-.04.215-.038.157-.026.158-.025h.085l.219-.031h.076c.087-.012.173-.025.26-.034s.179-.023.268-.033l.159-.047c.106-.012.213-.022.319-.033l.33-.027.262-.019h.091l.306-.018H93.6l.267-.011H95.3a2.825,2.825,0,0,1,.3.011h.04c.091,0,.18.008.269.012h.008l.262.018.128.008a2.244,2.244,0,0,1,.234.019h.023l.229.021h.011c.112.01.223.022.334.034h.046l.121.014.168.021h.047l.267.034h.028l.048.007.111.016.266.041.182.03.046.008.216.038.362.068c.115.023.231.047.345.073.15.033.3.066.45.1s.3.073.448.111l.392.105.13.037.05.014.211.063c.171.051.343.1.513.159.121.038.242.075.362.116l.069.023.149.051c.1.033.2.068.295.1l.13.047.242.089.072.027.287.112h.011l.186.074.15.063c.1.04.194.081.292.123.132.056.262.114.392.172h0l.058.026.059.027.121.055.035.016.019.01.031.014c.066.029.134.062.2.094.1.048.2.1.3.149l.03.015.052.026.091.045.089.047h0c.016.008.033.015.048.025l.19.1.037.021c.033.016.065.033.1.052h.006c.1.056.21.112.313.171l.111.063.028.015c.086.048.171.1.256.146l.046.027h.008a.4.4,0,0,1,.046.027l.046.027.039.022c.093.053.187.111.279.167l.1.062q.164.1.326.205a.548.548,0,0,1,.052.033c.121.077.242.156.362.237.023.014.045.03.068.045.094.063.188.126.281.192.068.047.135.093.2.137l.025.018.162.115.017.012h.011l.076.055.052.038c.1.073.2.148.3.224l.087.066c.083.062.164.125.242.189l.012.01.188.148h0c.053.041.107.083.161.129s.127.1.19.153.159.137.242.2l.031.027.144.122c.109.092.217.186.325.282.087.075.173.152.258.23l.141.129.248.231c.034.03.068.062.1.094h0c.074.068.145.137.216.209h0l.019.019h.006l.008.008.083.081c.047.045.093.093.14.137l.039.04c.083.081.167.166.249.25q.3.305.588.625.1.105.192.213c.078.086.156.174.233.263q.328.375.644.766c.013.016.027.031.039.048.066.082.133.164.2.248l.007.008.069.089c.1.137.205.265.307.4-11.013,11.643-28.362,11.654-39.41.085Z" transform="translate(-62.634 -301.226)" fill="#161616"/>
    <path id="Path_24285" data-name="Path 24285" d="M213.667,350.672,205.5,361.156l-7.78-10.6a30.237,30.237,0,0,1,7.779-1.021A29.486,29.486,0,0,1,213.667,350.672Z" transform="translate(-173.705 -306.627)" fill="#161616"/>
    <path id="Path_24286" data-name="Path 24286" d="M203.108,343.23a30.525,30.525,0,0,0-8.345-1.17h-.107a31.232,31.232,0,0,0-8.045,1.056l-1.452.387.059.081,1.287,1.751,8.127,11.067,8.611-11.056,1.322-1.7Zm-14.487,1.514a29.179,29.179,0,0,1,6.038-.633h.116a28.693,28.693,0,0,1,6.278.707L194.682,353l-6.032-8.209Z" transform="translate(-162.864 -301.235)" fill="#161616"/>
  </g>
</svg>
