<svg xmlns="http://www.w3.org/2000/svg" xmlns:xlink="http://www.w3.org/1999/xlink" width="80.1" height="80.1" viewBox="0 0 80.1 80.1">
  <defs>
    <linearGradient id="linear-gradient" x1="0.482" y1="0.526" x2="1.374" y2="0.54" gradientUnits="objectBoundingBox">
      <stop offset="0" stop-color="#ff602e" stop-opacity="0"/>
      <stop offset="1" stop-color="#fe374b" stop-opacity="0.2"/>
    </linearGradient>
    <linearGradient id="linear-gradient-2" x1="0.164" y1="0.265" x2="0.993" y2="0.918" gradientUnits="objectBoundingBox">
      <stop offset="0" stop-color="#ff602e"/>
      <stop offset="0.368" stop-color="#fe1c5e"/>
      <stop offset="1" stop-color="#570ebe"/>
    </linearGradient>
  </defs>
  <g id="Group_60727" data-name="Group 60727" transform="translate(4732.05 -16465.95)">
    <circle id="Ellipse_497" data-name="Ellipse 497" cx="40" cy="40" r="40" transform="translate(-4732 16466)" stroke="#ff5a32" stroke-width="0.1" fill="url(#linear-gradient)"/>
    <path id="a4d1c92a86eb618884de4b705069eeab" d="M28.766,30.421a18.764,18.764,0,0,1-6.634.453A17.022,17.022,0,0,1,23.9,33.166c.346.552-.392.913-.7.717a20.317,20.317,0,0,1-3.991-3.212,1.052,1.052,0,0,1,.058-1.4,21.563,21.563,0,0,1,3.945-3.138c.275-.195,1.12.044.7.716a17.426,17.426,0,0,1-1.81,2.33,17.25,17.25,0,0,1,6.66.246C29.441,29.585,29.07,30.346,28.766,30.421Zm18.08,9.594a.844.844,0,0,1-.85.833c-4.594-.135-9.337.1-13.891-.374-.285.376-.651-.219-.676-1.482-.073-2.561-.254-9.049-.28-11.522l-.027-1.92a6,6,0,0,1,3.915-6.166C30.018,16.1,31.879,6.942,39.106,6.9c7.23.31,8.99,9.21,3.933,12.466A6,6,0,0,1,46.92,24.1C47.123,28.3,46.836,35.751,46.846,40.015Zm-9.9-20.99c1.389-.093,2.834.044,4.143-.011a5.466,5.466,0,0,0,3.1-5.4,5.146,5.146,0,0,0-10.241-.082,5.483,5.483,0,0,0,3,5.493Zm8.187,20.152c-.043-3.387-.123-10.011-.124-12.675.3-2.785-.95-5.428-3.982-5.517-.6-.04-2.242-.014-2.862-.024l-.973-.019a4.143,4.143,0,0,0-4.158,2.947,18.274,18.274,0,0,0-.232,3.583c-.1,2.845-.214,9.4-.457,12.29,4.228-.428,8.545-.394,12.791-.585ZM25.906,18.785a18.411,18.411,0,0,0-1.815,2.427c-.407.677.434.906.707.707a22.505,22.505,0,0,0,3.885-3.2.994.994,0,0,0,.024-1.389,21.284,21.284,0,0,0-3.866-3.29c-.582-.364-.9.435-.707.707a18.277,18.277,0,0,0,1.68,2.337,18.741,18.741,0,0,0-6.667.412c-.308.075-.628.844,0,1A17.491,17.491,0,0,0,25.906,18.785Zm-9.052,6.367c-.1,3.891.027,10.591-.372,14.531.492.282-.116.692-1.428.739q-6.561.333-13.123.517a.833.833,0,0,1-.857-.828c-.017,0,0-8.807-.007-8.815.045-1.619-.011-5.05.054-6.644a5.924,5.924,0,0,1,3.926-5.3C.132,16.117,1.87,7.109,8.979,6.987c7.14.076,8.881,9.2,3.9,12.405A5.93,5.93,0,0,1,16.854,25.152ZM6.988,19.008c1.249.05,2.6.043,3.909.076,3.271-1.47,4.247-6.318,1.447-8.792C9.4,7.461,4.284,9.565,4,13.6a5.413,5.413,0,0,0,2.988,5.408ZM15.745,39.48c-.334-2.97-.423-9.474-.561-12.406l-.054-1.918a4.105,4.105,0,0,0-2.383-3.786c-1.549-.674-3.6-.262-5.286-.382a4,4,0,0,0-3.888,2.085c-.644,1.18-.448,2.487-.505,3.831-.034,2.759-.19,9.488-.259,12.33C7.111,39.294,11.449,39.253,15.745,39.48Z" transform="translate(-4716.03 16482.078)" fill="url(#linear-gradient-2)"/>
  </g>
</svg>
