<svg xmlns="http://www.w3.org/2000/svg" xmlns:xlink="http://www.w3.org/1999/xlink" width="80.1" height="80.1" viewBox="0 0 80.1 80.1">
  <defs>
    <linearGradient id="linear-gradient" x1="0.482" y1="0.526" x2="1.374" y2="0.54" gradientUnits="objectBoundingBox">
      <stop offset="0" stop-color="#ff602e" stop-opacity="0"/>
      <stop offset="1" stop-color="#fe374b" stop-opacity="0.2"/>
    </linearGradient>
    <linearGradient id="linear-gradient-2" x1="0.164" y1="0.265" x2="0.993" y2="0.918" gradientUnits="objectBoundingBox">
      <stop offset="0" stop-color="#ff602e"/>
      <stop offset="0.368" stop-color="#fe1c5e"/>
      <stop offset="1" stop-color="#570ebe"/>
    </linearGradient>
  </defs>
  <g id="Group_60731" data-name="Group 60731" transform="translate(4486.05 -16477.95)">
    <g id="Group_60730" data-name="Group 60730" transform="translate(52 37)">
      <g id="Group_60728" data-name="Group 60728" transform="translate(194 -25)">
        <circle id="Ellipse_497" data-name="Ellipse 497" cx="40" cy="40" r="40" transform="translate(-4732 16466)" stroke="#ff5a32" stroke-width="0.1" fill="url(#linear-gradient)"/>
      </g>
    </g>
    <g id="e08504ab756ef5d6748816007595972f" transform="translate(-4478 16486.492)">
      <path id="Path_24322" data-name="Path 24322" d="M31.5,8.017a2.5,2.5,0,1,0-2.5-2.5A2.5,2.5,0,0,0,31.5,8.017Zm0-4a1.5,1.5,0,1,1-1.5,1.5A1.5,1.5,0,0,1,31.5,4.017ZM31,9h1v8H31Zm9.5,2.017a2.5,2.5,0,1,0-2.5-2.5A2.5,2.5,0,0,0,40.5,11.017Zm0-4a1.5,1.5,0,1,1-1.5,1.5A1.5,1.5,0,0,1,40.5,7.017ZM41,12H40v2H35v4h1V15h5ZM25.017,8.517a2.5,2.5,0,1,0-2.5,2.5,2.5,2.5,0,0,0,2.5-2.5Zm-4,0a1.5,1.5,0,1,1,1.5,1.5A1.5,1.5,0,0,1,21.017,8.517ZM28,14H23V12H22v3h5v3h1Zm21.5,2.017a2.5,2.5,0,1,0,2.5,2.5,2.5,2.5,0,0,0-2.5-2.5Zm0,4a1.5,1.5,0,1,1,1.5-1.5,1.5,1.5,0,0,1-1.5,1.5Zm-10.5-1h1v1H39Zm3-1h1v1H42Zm2,0h1v1H44Zm-4,0h1v1H40Zm-1,3h1v1H39Zm-24.5-5a2.5,2.5,0,1,0,2.5,2.5A2.5,2.5,0,0,0,14.5,16.017Zm0,4a1.5,1.5,0,1,1,1.5-1.5,1.5,1.5,0,0,1-1.5,1.5Zm9.5-1h1v1H24Zm-1-1h1v1H23Zm-4,0h1v1H19Zm5,3h1v1H24Zm-3-3h1v1H21ZM39.458,47H38V43.247a7.89,7.89,0,0,0,1.957-5.1A2.078,2.078,0,0,0,40,37.736V25.08a2,2,0,0,0-2-2c-.354,0-1,.1-1,.269v-.8a2,2,0,0,0-1.988-2c-.364,0-1.012.1-1.012.269v-.425a2,2,0,0,0-4,0v.45c0-.186-.661-.293-1.043-.293a1.977,1.977,0,0,0-1.957,2v6.03a4.309,4.309,0,0,0-2.493-1.019.5.5,0,0,0-.5.5l.011,9.742a.508.508,0,0,0-.023.152,8.059,8.059,0,0,0,2,5.318V47H24.542A1.538,1.538,0,0,0,23,48.518v5A1.509,1.509,0,0,0,24.542,55H25v5H39V55h.458A1.509,1.509,0,0,0,41,53.517v-5A1.538,1.538,0,0,0,39.458,47ZM25.01,28.608A2.414,2.414,0,0,1,27,30.941V33h1V22.73a1.146,1.146,0,0,1,.967-1.182,1.049,1.049,0,0,1,1.03.9V31h1V20.392a1,1,0,1,1,2,0V31h1V22.677a.464.464,0,0,0,.027-.128,1,1,0,0,1,1-1,.975.975,0,0,1,.974,1V24.8a.5.5,0,0,0,.047.2H36v7h1V25h-.046a.483.483,0,0,0,.041-.1,1.054,1.054,0,0,1,1-.818,1,1,0,0,1,1,1V37.737a2.108,2.108,0,0,1-.033.307A6.982,6.982,0,1,1,25,38.257a.527.527,0,0,0,.019-.133l-.011-9.516ZM27,44.24a7.892,7.892,0,0,0,10-.018V47H27ZM38,59H26V55H38Zm-.967-8.483a.5.5,0,0,1,1,0,.494.494,0,0,1-.416.483h-.169a.494.494,0,0,1-.415-.483Zm2.967,3a.509.509,0,0,1-.542.483H38V51.936a1.5,1.5,0,1,0-1-.021V54H24.542A.509.509,0,0,1,24,53.517v-5A.537.537,0,0,1,24.542,48H39.458a.537.537,0,0,1,.542.518Z" fill="url(#linear-gradient-2)"/>
      <path id="Path_24323" data-name="Path 24323" d="M31.985,43.517a5.5,5.5,0,1,0-5.485-5.5,5.5,5.5,0,0,0,5.485,5.5Zm0-10a4.5,4.5,0,1,1-4.485,4.5A4.5,4.5,0,0,1,31.985,33.517Z" fill="url(#linear-gradient-2)"/>
      <path id="Path_24324" data-name="Path 24324" d="M31.5,41.517h1V40.41c1-.223,1-.756,1-1.381a1.508,1.508,0,0,0-1.527-1.521.449.449,0,0,1-.48-.494.563.563,0,0,1,.612-.49l1.4.009v-1l-1-.007V34.517h-1v1.118c-1,.224-1,.757-1,1.378a1.436,1.436,0,0,0,1.477,1.494.5.5,0,0,1,.522.52.56.56,0,0,1-.61.49H30.5v1h1Z" fill="url(#linear-gradient-2)"/>
    </g>
  </g>
</svg>
