<svg xmlns="http://www.w3.org/2000/svg" xmlns:xlink="http://www.w3.org/1999/xlink" width="80.1" height="80.1" viewBox="0 0 80.1 80.1">
  <defs>
    <linearGradient id="linear-gradient" x1="0.482" y1="0.526" x2="1.374" y2="0.54" gradientUnits="objectBoundingBox">
      <stop offset="0" stop-color="#ff602e" stop-opacity="0"/>
      <stop offset="1" stop-color="#fe374b" stop-opacity="0.2"/>
    </linearGradient>
    <linearGradient id="linear-gradient-2" x1="0.164" y1="0.265" x2="0.993" y2="0.918" gradientUnits="objectBoundingBox">
      <stop offset="0" stop-color="#ff602e"/>
      <stop offset="0.368" stop-color="#fe1c5e"/>
      <stop offset="1" stop-color="#570ebe"/>
    </linearGradient>
  </defs>
  <g id="Group_60729" data-name="Group 60729" transform="translate(4538.05 -16440.95)">
    <g id="Group_60728" data-name="Group 60728" transform="translate(194 -25)">
      <circle id="Ellipse_497" data-name="Ellipse 497" cx="40" cy="40" r="40" transform="translate(-4732 16466)" stroke="#ff5a32" stroke-width="0.1" fill="url(#linear-gradient)"/>
    </g>
    <g id="_1918186aafe219e6009aef9f0ce2a92d" data-name="1918186aafe219e6009aef9f0ce2a92d" transform="translate(-4521.267 16457.732)">
      <path id="Path_24319" data-name="Path 24319" d="M39.572,2H19.722a3.549,3.549,0,0,0-3.545,3.545V23.268H13.342A2.836,2.836,0,0,0,10.506,26.1a2.8,2.8,0,0,0,.15.868c-.047-.006-.091-.023-.142-.026a1.668,1.668,0,0,0-1.355.593A1.789,1.789,0,0,0,8.8,29.1l.467,2.045a12.376,12.376,0,0,1-2.941-5.877L6,23.637A2.2,2.2,0,0,0,4,21.85a1.9,1.9,0,0,0-1.5.625,2.038,2.038,0,0,0-.476,1.692l.5,3.16A19.091,19.091,0,0,0,8.246,38.161v.7H7.67a.709.709,0,0,0-.709.709v4.254a.709.709,0,0,0,.709.709h8.507a.709.709,0,0,0,.709-.709V39.573a.709.709,0,0,0-.709-.709h-.016l-.067-2.785v-.011a8.45,8.45,0,0,0-2.971-6.031L12.5,28.8a2.783,2.783,0,0,0,.844.143H32.483a3.5,3.5,0,0,0,1.715-.462l-.786,1.56a8.45,8.45,0,0,0-2.971,6.032v.011l-.068,2.785h-.016a.709.709,0,0,0-.709.709v4.254a.709.709,0,0,0,.709.709h8.507a.709.709,0,0,0,.709-.709V39.573a.709.709,0,0,0-.709-.709h-.576v-.7a19.091,19.091,0,0,0,5.719-10.835l.5-3.16a2.038,2.038,0,0,0-.476-1.692,1.9,1.9,0,0,0-1.5-.627,2.2,2.2,0,0,0-2.008,1.789l-.323,1.63a12.376,12.376,0,0,1-2.941,5.877l.467-2.045a1.789,1.789,0,0,0-.354-1.565,1.64,1.64,0,0,0-1.355-.593,1.763,1.763,0,0,0-.4.076,3.5,3.5,0,0,0,.413-1.625V7.671h7.8a.709.709,0,0,0,.709-.709A4.969,4.969,0,0,0,39.572,2Zm-24.1,41.117H8.379V40.282h7.089Zm-.793-7,.067,2.744H9.664v-1.01a.709.709,0,0,0-.231-.522A17.673,17.673,0,0,1,3.927,27.106l-.5-3.16a.638.638,0,0,1,.133-.525.431.431,0,0,1,.377-.154.78.78,0,0,1,.682.647l.322,1.631a13.718,13.718,0,0,0,6.074,8.912.709.709,0,0,0,1.012-.922l-1.378-2.723-.462-2.025a.389.389,0,0,1,.062-.34.254.254,0,0,1,.2-.085.474.474,0,0,1,.375.273l1.1,2.172a.709.709,0,0,0,.187.232,7.007,7.007,0,0,1,2.565,5.08Zm16.344-8.6H13.342a1.418,1.418,0,1,1,0-2.836H31.02a3.4,3.4,0,0,0,0,2.84Zm7.134,15.6H31.065V40.282h7.089ZM35.706,28.636a.473.473,0,0,1,.375-.273.231.231,0,0,1,.2.085.389.389,0,0,1,.062.34l-.46,2.025L34.51,33.539a.709.709,0,0,0,1.012.922A13.718,13.718,0,0,0,41.6,25.549l.322-1.631a.78.78,0,0,1,.68-.651.454.454,0,0,1,.377.153.638.638,0,0,1,.133.525l-.5,3.16A17.673,17.673,0,0,1,37.1,37.331a.709.709,0,0,0-.231.522v1.01H31.791l.067-2.744a7.007,7.007,0,0,1,2.566-5.08.7.7,0,0,0,.186-.232Zm-1.1-21.673V25.394a2.123,2.123,0,0,1-1.878,2.1,1.931,1.931,0,0,1,.177-2.953.709.709,0,0,0-.425-1.276H17.6V5.545a2.127,2.127,0,0,1,2.127-2.127H36.106a4.943,4.943,0,0,0-1.5,3.545ZM36.1,6.254a3.545,3.545,0,0,1,6.947,0Z" fill="url(#linear-gradient-2)"/>
      <path id="Path_24320" data-name="Path 24320" d="M38.343,18H36.925v7.089H35.507V19.418H34.089v5.671H32.671V20.836H31.254V25.09H29.836V22.254H28.418V25.09H27v1.418H39.761V25.089H38.343Z" transform="translate(-7.278 -4.657)" fill="url(#linear-gradient-2)"/>
      <path id="Path_24321" data-name="Path 24321" d="M32.847,14.268l1.643,1.1a.709.709,0,0,0,.932-.129l4.254-4.962L38.6,9.35l-3.845,4.485-1.6-1.07a.709.709,0,0,0-.9.089L27.3,17.816l1,1Z" transform="translate(-7.363 -2.139)" fill="url(#linear-gradient-2)"/>
    </g>
  </g>
</svg>
