<svg xmlns="http://www.w3.org/2000/svg" width="24" height="24" viewBox="0 0 24 24">
  <g id="Group_36944" data-name="Group 36944" transform="translate(-3294 -8872)">
    <g id="Iconly_Light-Outline_3-User" data-name="Iconly/Light-Outline/3-User" transform="translate(3294.112 8871.604)">
      <g id="_3-User" data-name="3-User" transform="translate(1 4)">
        <path id="Combined-Shape" d="M10.889,10.416h.366c1.931.013,6.344.208,6.344,3.2,0,2.971-4.259,3.165-6.314,3.178h-.761c-1.931-.013-6.345-.208-6.345-3.195s4.414-3.169,6.345-3.182h.366Zm0,1.5c-2.376,0-5.21.292-5.21,1.682,0,1.359,2.664,1.677,4.993,1.695h.217c2.376,0,5.209-.291,5.209-1.678C16.1,12.212,13.265,11.916,10.889,11.916Zm7.955-1.906c2.424.363,2.933,1.5,2.933,2.392a2.2,2.2,0,0,1-1.644,2.082.759.759,0,0,1-.267.049.75.75,0,0,1-.267-1.451c.678-.258.678-.543.678-.68,0-.438-.557-.744-1.655-.908a.75.75,0,1,1,.223-1.484Zm-15.057.63a.752.752,0,0,1-.631.854c-1.1.164-1.655.47-1.655.908,0,.137,0,.421.679.68a.75.75,0,0,1-.267,1.451.759.759,0,0,1-.267-.049A2.2,2.2,0,0,1,0,12.4c0-.89.509-2.029,2.934-2.392A.755.755,0,0,1,3.787,10.64ZM10.889,0a4.57,4.57,0,1,1,0,9.14h-.027A4.556,4.556,0,0,1,6.32,4.567,4.574,4.574,0,0,1,10.889,0Zm0,1.5A3.073,3.073,0,0,0,7.82,4.57a3.055,3.055,0,0,0,3.044,3.07l.025.75V7.64a3.07,3.07,0,1,0,0-6.139ZM17.079.98a3.622,3.622,0,0,1-.085,7.161.737.737,0,0,1-.1.007.75.75,0,0,1-.1-1.493,2.122,2.122,0,0,0,.048-4.195A.75.75,0,1,1,17.079.98ZM5.561,1.6a.751.751,0,0,1-.618.862A2.122,2.122,0,0,0,4.99,6.655a.75.75,0,0,1-.1,1.493.737.737,0,0,1-.1-.007A3.622,3.622,0,0,1,4.7.98.746.746,0,0,1,5.561,1.6Z" transform="translate(0 0)" fill="#fff" fill-rule="evenodd"/>
      </g>
    </g>
    <rect id="Rectangle_1190" data-name="Rectangle 1190" width="24" height="24" transform="translate(3294 8872)" fill="none"/>
  </g>
</svg>
