<svg xmlns="http://www.w3.org/2000/svg" width="24" height="24" viewBox="0 0 24 24">
  <g id="Group_36945" data-name="Group 36945" transform="translate(-3262 -8910)">
    <rect id="Rectangle_1191" data-name="Rectangle 1191" width="24" height="24" transform="translate(3262 8910)" fill="none"/>
    <g id="Iconly_Light-Outline_Setting" data-name="Iconly/Light-Outline/Setting" transform="translate(3262.357 8909.639)">
      <g id="Setting" transform="translate(2 1)">
        <path id="Combined-Shape" d="M10.267,1A2.659,2.659,0,0,1,12.93,3.74a1.068,1.068,0,0,0,.151.51,1.153,1.153,0,0,0,1.583.415,2.671,2.671,0,0,1,3.64.977l.623,1.079a.85.85,0,0,1,.042.086,2.673,2.673,0,0,1-1.01,3.545,1.142,1.142,0,0,0-.424.421,1.174,1.174,0,0,0-.12.883,1.142,1.142,0,0,0,.54.7A2.654,2.654,0,0,1,18.925,16L18.261,17.1a2.665,2.665,0,0,1-3.627.959,1.191,1.191,0,0,0-.558-.155H14.07a1.157,1.157,0,0,0-.8.338,1.143,1.143,0,0,0-.337.821,2.67,2.67,0,0,1-2.664,2.657H9.014A2.666,2.666,0,0,1,6.35,19.059a1.076,1.076,0,0,0-.151-.532A1.145,1.145,0,0,0,4.623,18.1,2.663,2.663,0,0,1,.98,17.07L.355,15.993a2.658,2.658,0,0,1,.97-3.625,1.163,1.163,0,0,0,0-2.015A2.668,2.668,0,0,1,.354,6.72l.678-1.113a2.661,2.661,0,0,1,3.622-.966,1.1,1.1,0,0,0,.552.157A1.167,1.167,0,0,0,6.36,3.652,2.651,2.651,0,0,1,9.014,1Zm0,1.5H9.014A1.151,1.151,0,0,0,7.86,3.659,2.677,2.677,0,0,1,5.2,6.3a2.58,2.58,0,0,1-1.3-.362,1.165,1.165,0,0,0-1.576.436L1.645,7.485a1.161,1.161,0,0,0,.432,1.57,2.663,2.663,0,0,1,0,4.612,1.155,1.155,0,0,0-.421,1.575l.631,1.088a1.166,1.166,0,0,0,1.594.464,2.652,2.652,0,0,1,2.005-.265A2.668,2.668,0,0,1,7.5,17.771a2.563,2.563,0,0,1,.355,1.28,1.166,1.166,0,0,0,1.164,1.171h1.253a1.165,1.165,0,0,0,1.164-1.157A2.653,2.653,0,0,1,14.1,16.406a2.723,2.723,0,0,1,1.282.354,1.171,1.171,0,0,0,1.59-.421l.664-1.107a1.156,1.156,0,0,0-.426-1.572,2.637,2.637,0,0,1-1.242-1.618,2.671,2.671,0,0,1,.271-2.019,2.639,2.639,0,0,1,.971-.969,1.166,1.166,0,0,0,.417-1.578.558.558,0,0,1-.035-.069L17,6.391a1.165,1.165,0,0,0-1.586-.429,2.653,2.653,0,0,1-3.628-.95,2.554,2.554,0,0,1-.359-1.286,1.193,1.193,0,0,0-.329-.874A1.168,1.168,0,0,0,10.267,2.5ZM9.645,7.975a3.386,3.386,0,1,1-3.386,3.387A3.391,3.391,0,0,1,9.645,7.975Zm0,1.5a1.886,1.886,0,1,0,1.886,1.887A1.889,1.889,0,0,0,9.645,9.475Z" fill="#fff" fill-rule="evenodd"/>
      </g>
    </g>
  </g>
</svg>
