<svg xmlns="http://www.w3.org/2000/svg" xmlns:xlink="http://www.w3.org/1999/xlink" width="20" height="20" viewBox="0 0 20 20">
  <defs>
    <linearGradient id="linear-gradient" x1="0.164" y1="0.265" x2="0.993" y2="0.918" gradientUnits="objectBoundingBox">
      <stop offset="0" stop-color="#ff602e"/>
      <stop offset="0.368" stop-color="#fe1c5e"/>
      <stop offset="1" stop-color="#570ebe"/>
    </linearGradient>
  </defs>
  <path id="sunheads" d="M5,12a1,1,0,0,0-1-1H3a1,1,0,0,0,0,2H4A1,1,0,0,0,5,12Zm.64,5-.71.71a1,1,0,0,0,1.41,1.41l.71-.71A1,1,0,0,0,5.64,17ZM12,5a1,1,0,0,0,1-1V3a1,1,0,0,0-2,0V4A1,1,0,0,0,12,5Zm5.66,2.34a1,1,0,0,0,.7-.29l.71-.71a1,1,0,1,0-1.41-1.41L17,5.64a1,1,0,0,0,.66,1.7Zm-12-.29A1,1,0,0,0,7.07,5.64l-.71-.71A1,1,0,1,0,4.93,6.34ZM21,11H20a1,1,0,0,0,0,2h1a1,1,0,0,0,0-2Zm-2.64,6A1,1,0,0,0,17,18.36l.71.71a1,1,0,0,0,1.41-1.41ZM12,6.5A5.5,5.5,0,1,0,17.5,12,5.5,5.5,0,0,0,12,6.5Zm0,9A3.5,3.5,0,1,1,15.5,12,3.5,3.5,0,0,1,12,15.5ZM12,19a1,1,0,0,0-1,1v1a1,1,0,0,0,2,0V20A1,1,0,0,0,12,19Z" transform="translate(-2 -2)" fill="url(#linear-gradient)"/>
</svg>
