<svg width="25" height="25" viewBox="0 0 25 25" fill="none" xmlns="http://www.w3.org/2000/svg">
<g clip-path="url(#clip0_491_6190)">
<path d="M15.3119 6.58512C15.5415 6.71546 15.8133 6.74972 16.068 6.68042C16.3227 6.61112 16.5397 6.44389 16.6716 6.21521C16.7807 6.02261 16.9507 5.87169 17.1549 5.78609C17.359 5.7005 17.5858 5.68509 17.7997 5.74227C18.0135 5.79945 18.2024 5.92599 18.3365 6.10205C18.4707 6.27811 18.5427 6.49372 18.5412 6.71509C18.5412 6.98024 18.4358 7.23453 18.2483 7.42202C18.0608 7.60951 17.8066 7.71484 17.5414 7.71484C17.2762 7.71484 17.022 7.82017 16.8345 8.00767C16.647 8.19516 16.5416 8.44945 16.5416 8.7146C16.5416 8.97975 16.647 9.23404 16.8345 9.42153C17.022 9.60902 17.2762 9.71435 17.5414 9.71435C18.0678 9.71402 18.5848 9.57514 19.0406 9.31169C19.4963 9.04823 19.8747 8.66947 20.1376 8.21347C20.4006 7.75747 20.539 7.24029 20.5387 6.71389C20.5385 6.18749 20.3998 5.67041 20.1364 5.21462C19.8731 4.75883 19.4944 4.38038 19.0385 4.11729C18.5825 3.8542 18.0654 3.71574 17.539 3.71582C17.0126 3.7159 16.4955 3.85453 16.0396 4.11777C15.5838 4.381 15.2052 4.75958 14.942 5.21545C14.8759 5.32956 14.8331 5.45562 14.8159 5.58636C14.7987 5.71711 14.8076 5.84996 14.8419 5.97727C14.8763 6.10458 14.9355 6.22383 15.0162 6.32815C15.0969 6.43247 15.1974 6.5198 15.3119 6.58512ZM19.6109 13.7134C19.3485 13.6793 19.0832 13.7507 18.8733 13.9119C18.6634 14.073 18.526 14.3108 18.4912 14.5732C18.2814 16.2679 17.4591 17.8275 16.1794 18.9581C14.8996 20.0887 13.2505 20.7124 11.5429 20.7117H5.95423L6.60407 20.0618C6.79028 19.8745 6.89479 19.6211 6.89479 19.357C6.89479 19.0929 6.79028 18.8395 6.60407 18.6522C5.62926 17.6735 4.96586 16.4283 4.69743 15.0733C4.429 13.7183 4.56756 12.3142 5.09564 11.0379C5.62372 9.76149 6.51771 8.66993 7.665 7.90069C8.81229 7.13145 10.1616 6.71893 11.5429 6.71509C11.808 6.71509 12.0623 6.60976 12.2498 6.42227C12.4373 6.23477 12.5426 5.98048 12.5426 5.71533C12.5426 5.45018 12.4373 5.19589 12.2498 5.0084C12.0623 4.82091 11.808 4.71558 11.5429 4.71558C9.85251 4.72263 8.19833 5.20569 6.76983 6.10943C5.34133 7.01317 4.19629 8.30102 3.4659 9.82545C2.73551 11.3499 2.44931 13.0492 2.64008 14.7288C2.83086 16.4084 3.49089 18.0002 4.54457 19.322L2.83499 21.0016C2.69627 21.1422 2.60229 21.3207 2.56493 21.5147C2.52756 21.7086 2.54848 21.9093 2.62504 22.0913C2.70004 22.2739 2.82741 22.4302 2.99109 22.5405C3.15477 22.6508 3.34744 22.7102 3.54482 22.7112H11.5429C13.7338 22.7115 15.8495 21.9124 17.4932 20.4638C19.1369 19.0152 20.1956 17.0167 20.4707 14.8431C20.489 14.7124 20.4812 14.5794 20.4478 14.4517C20.4144 14.324 20.3561 14.2042 20.2761 14.0991C20.1962 13.9941 20.0963 13.9059 19.9821 13.8397C19.8679 13.7735 19.7418 13.7306 19.6109 13.7134ZM17.9213 10.7841C17.7393 10.7036 17.5374 10.6792 17.3414 10.7141L17.1615 10.7741L16.9815 10.8641L16.8316 10.994C16.7416 11.0862 16.6704 11.1948 16.6216 11.314C16.5625 11.4387 16.535 11.576 16.5416 11.7139C16.5387 11.8472 16.5625 11.9798 16.6116 12.1038C16.6633 12.2238 16.7381 12.3324 16.8316 12.4237C16.925 12.5164 17.0358 12.5897 17.1576 12.6394C17.2794 12.6892 17.4098 12.7144 17.5414 12.7136C17.8066 12.7136 18.0608 12.6083 18.2483 12.4208C18.4358 12.2333 18.5412 11.979 18.5412 11.7139C18.5445 11.5827 18.5171 11.4526 18.4612 11.334C18.3538 11.0937 18.1615 10.9015 17.9213 10.7941V10.7841Z" fill="white"/>
<path d="M126.611 -63.0412C131.508 -60.2606 137.306 -59.5298 142.74 -61.0082C148.174 -62.4866 152.803 -66.0542 155.617 -70.9326C157.945 -75.0413 161.571 -78.2611 165.926 -80.0871C170.282 -81.913 175.12 -82.2419 179.682 -81.022C184.244 -79.8021 188.273 -77.1026 191.135 -73.3467C193.998 -69.5908 195.533 -64.991 195.5 -60.2686C195.5 -54.612 193.253 -49.1871 189.254 -45.1873C185.254 -41.1875 179.829 -38.9404 174.172 -38.9404C168.516 -38.9404 163.091 -36.6934 159.091 -32.6936C155.091 -28.6938 152.844 -23.2689 152.844 -17.6123C152.844 -11.9557 155.091 -6.53086 159.091 -2.53106C163.091 1.46874 168.516 3.71581 174.172 3.71581C185.402 3.70861 196.432 0.745971 206.155 -4.87442C215.877 -10.4948 223.948 -18.575 229.559 -28.303C235.169 -38.0311 238.12 -49.0643 238.116 -60.2942C238.111 -71.5241 235.151 -82.555 229.533 -92.2785C223.915 -102.002 215.837 -110.076 206.11 -115.688C196.383 -121.301 185.351 -124.255 174.121 -124.253C162.891 -124.251 151.86 -121.294 142.135 -115.678C132.41 -110.062 124.334 -101.986 118.719 -92.2608C117.309 -89.8265 116.394 -87.1373 116.028 -84.348C115.661 -81.5588 115.85 -78.7246 116.584 -76.0087C117.317 -73.2927 118.581 -70.7487 120.302 -68.5232C122.022 -66.2977 124.167 -64.4346 126.611 -63.0412ZM218.321 89.0283C212.723 88.3017 207.065 89.8244 202.587 93.2626C198.109 96.7009 195.177 101.774 194.434 107.37C189.958 143.525 172.417 176.796 145.115 200.916C117.813 225.036 82.6341 238.341 46.2035 238.325H-73.0207L-59.1574 224.462C-55.185 220.466 -52.9554 215.06 -52.9554 209.426C-52.9554 203.791 -55.185 198.385 -59.1574 194.389C-79.9534 173.511 -94.106 146.946 -99.8324 118.04C-105.559 89.1342 -102.603 59.18 -91.3373 31.9506C-80.0716 4.72126 -60.9998 -18.5653 -36.5243 -34.9758C-12.0487 -51.3862 16.7358 -60.1867 46.2035 -60.2686C51.8601 -60.2686 57.285 -62.5156 61.2848 -66.5154C65.2846 -70.5152 67.5316 -75.9401 67.5316 -81.5967C67.5316 -87.2533 65.2846 -92.6782 61.2848 -96.678C57.285 -100.678 51.8601 -102.925 46.2035 -102.925C10.1426 -102.774 -25.1467 -92.469 -55.6213 -73.1893C-86.096 -53.9095 -110.523 -26.4353 -126.105 6.08584C-141.687 38.607 -147.792 74.8596 -143.722 110.69C-139.653 146.521 -125.572 180.481 -103.093 208.679L-139.564 244.51C-142.524 247.51 -144.529 251.318 -145.326 255.456C-146.123 259.593 -145.677 263.874 -144.043 267.758C-142.443 271.653 -139.726 274.987 -136.234 277.34C-132.742 279.693 -128.632 280.96 -124.421 280.981H46.2035C92.9431 280.988 138.079 263.94 173.145 233.037C208.21 202.134 230.795 159.499 236.664 113.129C237.054 110.341 236.888 107.502 236.175 104.778C235.463 102.054 234.218 99.4983 232.513 97.2577C230.808 95.0171 228.676 93.1364 226.24 91.724C223.804 90.3115 221.113 89.3953 218.321 89.0283ZM182.277 26.5369C178.394 24.819 174.087 24.2992 169.907 25.0439L166.068 26.3236L162.229 28.2431L159.029 31.0158C157.111 32.9812 155.59 35.2987 154.55 37.8408C153.289 40.5012 152.703 43.4313 152.844 46.3721C152.782 49.2165 153.29 52.0447 154.337 54.69C155.44 57.2498 157.034 59.5685 159.029 61.515C161.022 63.4917 163.386 65.0556 165.984 66.117C168.583 67.1784 171.365 67.7164 174.172 67.7002C179.829 67.7002 185.254 65.4531 189.254 61.4533C193.253 57.4535 195.5 52.0286 195.5 46.3721C195.572 43.5743 194.988 40.7986 193.794 38.2674C191.502 33.1424 187.402 29.0419 182.277 26.7502V26.5369Z" fill="white"/>
</g>
<defs>
<clipPath id="clip0_491_6190">
<rect width="23.9941" height="23.9941" fill="white" transform="translate(0.546875 0.716797)"/>
</clipPath>
</defs>
</svg>
