<svg width="29" height="29" viewBox="0 0 29 29" fill="none" xmlns="http://www.w3.org/2000/svg">
<g clip-path="url(#clip0_283_1945)">
<path d="M29 14.5C29 6.49187 22.5081 0 14.5 0C6.49187 0 0 6.49187 0 14.5C0 22.5081 6.49187 29 14.5 29C22.5081 29 29 22.5081 29 14.5Z" fill="#419FD9"/>
<path d="M29 14.5C29 6.49187 22.5081 0 14.5 0C6.49187 0 0 6.49187 0 14.5C0 22.5081 6.49187 29 14.5 29C22.5081 29 29 22.5081 29 14.5Z" fill="url(#paint0_linear_283_1945)"/>
<path d="M6.51739 14.1804C10.734 12.3047 13.5458 11.068 14.9527 10.4705C18.9696 8.76466 19.8043 8.46832 20.3483 8.45847C20.468 8.45642 20.7355 8.48668 20.9088 8.63023C21.0551 8.75149 21.0954 8.91528 21.1147 9.03019C21.1339 9.14517 21.1579 9.40701 21.1388 9.61158C20.9211 11.9468 19.9793 17.6138 19.5001 20.2293C19.2973 21.336 18.8981 21.7071 18.5116 21.7434C17.6716 21.8223 17.0338 21.1767 16.2202 20.6321C14.9471 19.7801 14.228 19.2497 12.9922 18.4183C11.5642 17.4574 12.4899 16.9293 13.3038 16.0662C13.5168 15.8404 17.2177 12.4033 17.2894 12.0915C17.2983 12.0525 17.3067 11.9071 17.2221 11.8304C17.1375 11.7537 17.0127 11.7799 16.9226 11.8007C16.7949 11.8303 14.7612 13.2028 10.8214 15.9182C10.2441 16.3229 9.72128 16.52 9.25281 16.5097C8.73637 16.4984 7.74294 16.2116 7.00441 15.9665C6.09858 15.6658 5.37862 15.5069 5.44131 14.9963C5.47396 14.7304 5.83264 14.4584 6.51739 14.1804Z" fill="white"/>
</g>
<defs>
<linearGradient id="paint0_linear_283_1945" x1="4.756" y1="7.685" x2="28.797" y2="26.622" gradientUnits="userSpaceOnUse">
<stop stop-color="#FF602E"/>
<stop offset="0.368" stop-color="#FE1C5E"/>
<stop offset="1" stop-color="#570EBE"/>
</linearGradient>
<clipPath id="clip0_283_1945">
<rect width="29" height="29" fill="white"/>
</clipPath>
</defs>
</svg>
