<svg xmlns="http://www.w3.org/2000/svg" width="570.146" height="328.306" viewBox="0 0 570.146 328.306">
  <g id="fd" transform="translate(-15.677 -95.444)">
    <path id="Path_24503" data-name="Path 24503" d="M185.818,315.814v-43.7H304.859v43.7h5.918V159.9H179.9V315.814Zm0-146.582H304.859v44.84h-8.877V189.034H297.8V184.71H278v4.325h1.821v25.037H260.475V189.034H262.3V184.71h-19.8v4.325h1.821v25.037H209.262V189.034h1.821V184.71h-19.8v4.325H193.1v25.037h-6.6v-44.84Zm0,54.4H304.859v38.922H185.818Z" transform="translate(209.156 107.436)" fill="none" stroke="#5269b0" stroke-linecap="round" stroke-linejoin="round" stroke-miterlimit="10" stroke-width="1"/>
    <path id="Path_24504" data-name="Path 24504" d="M162.759,161.6H37.8V313.645h5.918v-42.48H162.759v42.48h5.918V161.6Zm0,62.675H43.718V200.6H162.759Zm0-29.713H43.718V167.4H162.759Z" transform="translate(27.819 109.605)" fill="#5269b0"/>
    <path id="Path_24505" data-name="Path 24505" d="M233.207,158.64l-1.366-.91a1.183,1.183,0,0,1-.455-.91v-9.787h.683a1.312,1.312,0,0,0,1.366-1.366,1.207,1.207,0,0,0-1.366-1.366H223.42a1.312,1.312,0,0,0-1.366,1.366,1.207,1.207,0,0,0,1.366,1.366h.683v9.787a1.725,1.725,0,0,1-.455.91l-1.366.91a13.937,13.937,0,0,0-5.007,18.664,4.406,4.406,0,0,0,3.869,2.276h13.429a4.694,4.694,0,0,0,3.869-2.276A14.168,14.168,0,0,0,233.207,158.64Zm-10.7-12.746a.979.979,0,0,1,.91-.91h8.649a.91.91,0,1,1,0,1.821H223.42A.979.979,0,0,1,222.51,145.893Zm-.228,12.974,1.366-.91a1.252,1.252,0,0,0,.683-1.138v-9.787H230.7v1.821h-3.187c-.228,0-.228,0-.228.228s0,.228.228.228H230.7v4.552h-3.187c-.228,0-.228,0-.228.228s0,.228.228.228H230.7v2.5a1.252,1.252,0,0,0,.683,1.138l1.366.91c.228.228.455.228.683.455H229.11c-.228,0-.228,0-.228.228s0,.228.228.228h4.78a12.54,12.54,0,0,1,3.869,4.552h-5.918c-.228,0-.228,0-.228.228s0,.228.228.228h6.146a7.41,7.41,0,0,1,.91,3.187H218.413a11.7,11.7,0,0,1,5.463-7.284.36.36,0,0,0-.228-.683,12.919,12.919,0,0,0-5.918,7.966h-2.048A15.7,15.7,0,0,1,222.282,158.867Z" transform="translate(254.632 87.528)" fill="#5269b0"/>
    <path id="Path_24506" data-name="Path 24506" d="M213.263,158.787l-.91-.683c-.228-.228-.228-.228-.228-.455v-6.828h.455a.91.91,0,1,0,0-1.821h-5.918a.91.91,0,1,0,0,1.821h.455v6.828a.8.8,0,0,1-.228.455l-.91.683a9.6,9.6,0,0,0-3.414,12.974,3.158,3.158,0,0,0,2.731,1.593h9.332a3.471,3.471,0,0,0,2.731-1.593A10.554,10.554,0,0,0,213.263,158.787Zm-7.511-8.649a.727.727,0,0,1,.683-.683h5.918a.727.727,0,0,1,.683.683.6.6,0,0,1-.683.683h-6.146C205.98,150.593,205.752,150.366,205.752,150.138Zm0,8.877.91-.683a1.182,1.182,0,0,0,.455-.91v-6.828h4.552v1.138h-2.276a.223.223,0,0,0-.228.228c0,.228,0,.228.228.228h2.276v3.187h-2.276a.223.223,0,0,0-.228.228c0,.228,0,.228.228.228h2.276v1.821a1.725,1.725,0,0,0,.455.91l.91.683c.228,0,.228.228.455.228h-2.959a.228.228,0,0,0,0,.455h3.414a11.978,11.978,0,0,1,2.731,3.187h-4.1a.223.223,0,0,0-.228.228c0,.228,0,.228.228.228h4.325c.228.683.455,1.366.683,2.276h-14.34a7.68,7.68,0,0,1,3.869-5.007c.228,0,.228-.228,0-.455,0-.228-.228-.228-.455,0a9.319,9.319,0,0,0-4.1,5.69H201.2C201.883,162.884,203.249,160.381,205.752,159.015Z" transform="translate(236.337 93.526)" fill="#5269b0"/>
    <rect id="Rectangle_1423" data-name="Rectangle 1423" width="109.709" height="26.631" transform="translate(74.269 340.399)" fill="none" stroke="#fff" stroke-linecap="round" stroke-linejoin="round" stroke-miterlimit="10" stroke-width="0.323"/>
    <path id="Path_24507" data-name="Path 24507" d="M168.207,147.641l-49.164-1.366c-3.187-12.974-6.373-28.451-5.918-32.321.455-2.731,1.366-4.1,2.5-4.552A14.715,14.715,0,0,0,122,103.94c3.187-5.235,11.153-12.063,30.728-9.787,12.063,1.366,21.168,10.015,21.623,13.2a10.473,10.473,0,0,1-.91,5.918s3.869.683,2.276,7.739C174.807,124.88,171.393,136.944,168.207,147.641Z" transform="translate(123.887 22.959)" fill="#77434e"/>
    <rect id="Rectangle_1424" data-name="Rectangle 1424" width="22.761" height="45.75" transform="translate(256.813 169.69)" fill="#f8ad9c"/>
    <path id="Path_24508" data-name="Path 24508" d="M122.961,138.018a16.719,16.719,0,0,1-7.966-4.1c-3.869-3.414-2.959-9.1.91-10.243s7.284,2.731,7.284,2.731l1.821-19.8a5.512,5.512,0,0,1,5.69-5.007l30.045.91a5.539,5.539,0,0,1,5.463,5.463l-.228,19.119c.228,0,6.828-6.6,10.015-.91,4.78,8.649-9.787,13.429-9.787,13.429s-8.194,17.071-20.485,16.843C131.61,156.227,122.961,138.018,122.961,138.018Z" transform="translate(123.155 33.038)" fill="#f8ad9c"/>
    <ellipse id="Ellipse_516" data-name="Ellipse 516" cx="7.056" cy="1.138" rx="7.056" ry="1.138" transform="translate(249.723 148.404) rotate(-0.992)" fill="#4d1e33"/>
    <ellipse id="Ellipse_517" data-name="Ellipse 517" cx="1.138" cy="7.056" rx="1.138" ry="7.056" transform="translate(273.191 150.98) rotate(-87.587)" fill="#4d1e33"/>
    <path id="Path_24509" data-name="Path 24509" d="M132.323,128.305a21.111,21.111,0,0,1-10.243-3.414c-.228-.228-.455-.683-.228-.91h0c.228-.228.683-.455.91-.228a19.055,19.055,0,0,0,20.485.228.664.664,0,0,1,.683,1.138C140.745,127.622,136.648,128.533,132.323,128.305Z" transform="translate(134.961 61.187)" fill="#d08487"/>
    <path id="Path_24510" data-name="Path 24510" d="M118.752,115.859c-.683-2.5-3.869-2.959-4.1-2.959a.223.223,0,0,0-.228.228c0,.228,0,.228.228.228,0,0,3.187.455,3.869,2.731,0,.228.228.683.228.91-.683.228-2.276,1.138-3.187.683a1.408,1.408,0,0,1-.91-1.138.228.228,0,1,0-.455,0,2.041,2.041,0,0,0,1.138,1.593c.228,0,.455.228.683.228a5.534,5.534,0,0,0,2.5-.683,7.928,7.928,0,0,1-.228,3.187.223.223,0,0,0,.228.228h0a.223.223,0,0,0,.228-.228A10.979,10.979,0,0,0,118.752,115.859Z" transform="translate(125.315 47.458)" fill="#d08487"/>
    <path id="Path_24511" data-name="Path 24511" d="M137.77,115.859c.683-2.5,3.869-2.959,4.1-2.959a.223.223,0,0,1,.228.228c0,.228,0,.228-.228.228,0,0-3.187.455-3.869,2.731,0,.228-.228.683-.228.91.683.228,2.276,1.138,3.187.683a1.408,1.408,0,0,0,.91-1.138.228.228,0,0,1,.455,0,2.041,2.041,0,0,1-1.138,1.593c-.228,0-.455.228-.683.228a5.534,5.534,0,0,1-2.5-.683,7.928,7.928,0,0,0,.228,3.187.223.223,0,0,1-.228.228h0a.223.223,0,0,1-.228-.228A10.98,10.98,0,0,1,137.77,115.859Z" transform="translate(155.006 47.458)" fill="#d08487"/>
    <path id="Path_24512" data-name="Path 24512" d="M131.168,115.253l-.91.228a5.548,5.548,0,0,1-2.731,0l-1.366-.455c-.455-.228-.91.455-.455.91l.91.683a3.387,3.387,0,0,0,5.007-.228l.455-.455A.693.693,0,0,0,131.168,115.253Z" transform="translate(139.757 50.113)" fill="#d08487"/>
    <path id="Path_24513" data-name="Path 24513" d="M165.374,99.713a10.182,10.182,0,0,1,9.56,12.746h0a.727.727,0,0,1-.683.683,6.157,6.157,0,0,0-3.642,5.463l-.228,5.918s-6.828-2.049-7.056-5.69l-.455-3.642s-11.608,1.593-20.257-1.366c-8.422-3.187-12.291-6.828-12.291-6.828a9.872,9.872,0,0,1-7.739,5.463H121.9l-2.959,9.1H116.21s-.455-2.959-1.138-7.056A13.78,13.78,0,0,1,128.956,98.8Z" transform="translate(126.264 29.462)" fill="#77434e"/>
    <g id="Group_60990" data-name="Group 60990" transform="translate(259.146 133.784)">
      <path id="Path_24514" data-name="Path 24514" d="M146.44,108.907a42.552,42.552,0,0,1-12.974-1.821A48.378,48.378,0,0,1,123,101.851c-.228-.228-.228-.455,0-.455.228-.228.455-.228.455,0a45.437,45.437,0,0,0,10.243,5.235c6.146,2.276,13.884,2.049,17.754,1.593a.36.36,0,0,1,.228.683Z" transform="translate(-122.825 -101.225)" fill="#9e5f67"/>
    </g>
    <g id="Group_60992" data-name="Group 60992" transform="translate(245.631 158.993)">
      <path id="Path_24515" data-name="Path 24515" d="M132.423,127.733a20.357,20.357,0,0,1-10.243-3.414,1,1,0,0,1-.228-1.138h0a1,1,0,0,1,1.138-.228,18.992,18.992,0,0,0,20.713.228c.455-.228.91-.228.91.228.228.455.228.91-.228.91A19.548,19.548,0,0,1,132.423,127.733Z" transform="translate(-110.543 -98.826)" fill="#d08487"/>
      <path id="Path_24516" data-name="Path 24516" d="M131.268,114.353l-.91.228a5.548,5.548,0,0,1-2.731,0l-1.366-.455c-.455-.228-.91.455-.455.91l.91.683a3.387,3.387,0,0,0,5.007-.228l.455-.455C132.179,114.808,131.724,114.125,131.268,114.353Z" transform="translate(-105.747 -110.028)" fill="#d08487"/>
      <path id="Path_24517" data-name="Path 24517" d="M117.3,112.3l21.4,13.429L160.546,112.3" transform="translate(-116.36 -112.3)" fill="none" stroke="#3e586d" stroke-linecap="round" stroke-linejoin="round" stroke-miterlimit="10" stroke-width="0.323"/>
      <g id="Group_60991" data-name="Group 60991" transform="translate(0 0.631)">
        <path id="Path_24518" data-name="Path 24518" d="M154.7,119.685a17.691,17.691,0,0,0-3.642.455l-7.511-5.918a7.378,7.378,0,0,0-10.015.683l-7.966,8.194-6.373.91a2.741,2.741,0,0,0-2.276,2.959l1.821,11.381a2.741,2.741,0,0,0,2.959,2.276l4.78-.683,2.276,1.138a22.47,22.47,0,0,0,17.981,1.138,12.887,12.887,0,0,0,8.194,2.959,12.725,12.725,0,0,0,12.746-12.746A13.229,13.229,0,0,0,154.7,119.685Z" transform="translate(-116.887 -112.577)" fill="#102230"/>
        <path id="Path_24519" data-name="Path 24519" d="M139.025,132.9c-.228,0-.228,0-.455-.228l-7.511-5.235a8.117,8.117,0,0,1-3.187-8.877l1.366-4.552c.228-.455.683-.683.91-.455.455.228.683.683.455.91l-1.366,4.552a6.157,6.157,0,0,0,2.5,7.056l7.511,5.235c.455.228.455.683.228,1.138A.49.49,0,0,1,139.025,132.9Z" transform="translate(-103.26 -111.45)" fill="#3e586d"/>
        <path id="Path_24520" data-name="Path 24520" d="M121.267,132.9c-.228,0-.455-.228-.683-.455-.228-.455-.228-.91.228-1.138l7.511-5.235a6.267,6.267,0,0,0,2.5-7.056l-1.366-4.552c-.228-.455,0-.91.455-.91.455-.228.91,0,.91.455l1.366,4.552a7.571,7.571,0,0,1-3.187,8.877l-7.511,5.235A.223.223,0,0,1,121.267,132.9Z" transform="translate(-112.361 -111.45)" fill="#3e586d"/>
        <circle id="Ellipse_518" data-name="Ellipse 518" cx="9.104" cy="9.104" r="9.104" transform="translate(27.343 10.977)" fill="#3e586d"/>
        <circle id="Ellipse_519" data-name="Ellipse 519" cx="9.104" cy="9.104" r="9.104" transform="translate(30.529 10.977)" fill="#f9be13"/>
        <circle id="Ellipse_520" data-name="Ellipse 520" cx="9.104" cy="9.104" r="9.104" transform="translate(31.667 10.977)" fill="#3e586d"/>
        <circle id="Ellipse_521" data-name="Ellipse 521" cx="6.601" cy="6.601" r="6.601" transform="translate(35.537 13.936)" fill="#f9be13"/>
      </g>
    </g>
    <g id="Group_60995" data-name="Group 60995" transform="translate(241.336 149.888)">
      <path id="Path_24521" data-name="Path 24521" d="M131.695,123.095H121.68a4.667,4.667,0,0,1-4.78-4.78V113.08a4.667,4.667,0,0,1,4.78-4.78h10.015a4.667,4.667,0,0,1,4.78,4.78v5.235A4.808,4.808,0,0,1,131.695,123.095Z" transform="translate(-112.575 -108.3)" fill="#31c1da" stroke="#fff" stroke-miterlimit="10" stroke-width="0.323"/>
      <path id="Path_24522" data-name="Path 24522" d="M133.58,123.095h10.015a4.667,4.667,0,0,0,4.78-4.78V113.08a4.667,4.667,0,0,0-4.78-4.78H133.58a4.667,4.667,0,0,0-4.78,4.78v5.235A4.808,4.808,0,0,0,133.58,123.095Z" transform="translate(-97.39 -108.3)" fill="#31c1da" stroke="#fff" stroke-miterlimit="10" stroke-width="0.323"/>
      <line id="Line_67" data-name="Line 67" x1="7.511" transform="translate(23.899 7.284)" fill="none" stroke="#fff" stroke-miterlimit="10" stroke-width="0.323"/>
      <line id="Line_68" data-name="Line 68" x1="4.325" y1="2.504" transform="translate(0 7.056)" fill="none" stroke="#fff" stroke-linecap="round" stroke-linejoin="round" stroke-miterlimit="10" stroke-width="0.323"/>
      <g id="Group_60993" data-name="Group 60993" transform="translate(10.925)">
        <line id="Line_69" data-name="Line 69" x2="7.284" y2="14.34" fill="none" stroke="#fff" stroke-linecap="round" stroke-linejoin="round" stroke-miterlimit="10" stroke-width="0.323"/>
        <line id="Line_70" data-name="Line 70" x2="4.78" y2="9.56" transform="translate(4.552 2.276)" fill="none" stroke="#fff" stroke-linecap="round" stroke-linejoin="round" stroke-miterlimit="10" stroke-width="0.323"/>
      </g>
      <g id="Group_60994" data-name="Group 60994" transform="translate(36.646)">
        <line id="Line_71" data-name="Line 71" x2="7.284" y2="14.567" fill="none" stroke="#fff" stroke-linecap="round" stroke-linejoin="round" stroke-miterlimit="10" stroke-width="0.323"/>
        <line id="Line_72" data-name="Line 72" x2="5.007" y2="9.56" transform="translate(4.325 2.504)" fill="none" stroke="#fff" stroke-linecap="round" stroke-linejoin="round" stroke-miterlimit="10" stroke-width="0.323"/>
      </g>
    </g>
    <g id="Group_60998" data-name="Group 60998" transform="translate(144.373 95.944)">
      <path id="Path_24523" data-name="Path 24523" d="M241.267,102.2H210.085l-6.146,10.47a7.127,7.127,0,0,0,6.146,10.7h31.41a7.127,7.127,0,0,0,6.146-10.7Z" transform="translate(94.233 -62.14)" fill="#ea3e2d"/>
      <path id="Path_24524" data-name="Path 24524" d="M232.718,107.6V86.2H218.606v21.4a2.052,2.052,0,0,1-.228,1.138l-14.34,24.354a7.127,7.127,0,0,0,6.146,10.7h31.638a7.127,7.127,0,0,0,6.145-10.7l-14.34-24.354C232.946,108.278,232.718,108.051,232.718,107.6Z" transform="translate(94.36 -82.558)" fill="none" stroke="#5269b0" stroke-linecap="round" stroke-linejoin="round" stroke-miterlimit="10" stroke-width="1"/>
      <line id="Line_73" data-name="Line 73" x2="5.463" transform="translate(321.388 9.104)" fill="none" stroke="#5269b0" stroke-linecap="round" stroke-linejoin="round" stroke-miterlimit="10" stroke-width="1"/>
      <line id="Line_74" data-name="Line 74" x2="5.463" transform="translate(321.388 17.071)" fill="none" stroke="#5269b0" stroke-linecap="round" stroke-linejoin="round" stroke-miterlimit="10" stroke-width="1"/>
      <line id="Line_75" data-name="Line 75" x2="7.739" transform="translate(318.884 25.493)" fill="none" stroke="#5269b0" stroke-linecap="round" stroke-linejoin="round" stroke-miterlimit="10" stroke-width="1"/>
      <line id="Line_76" data-name="Line 76" x2="10.015" transform="translate(321.616 33.687)" fill="none" stroke="#5269b0" stroke-linecap="round" stroke-linejoin="round" stroke-miterlimit="10" stroke-width="1"/>
      <line id="Line_77" data-name="Line 77" x2="12.063" transform="translate(325.257 43.019)" fill="none" stroke="#5269b0" stroke-linecap="round" stroke-linejoin="round" stroke-miterlimit="10" stroke-width="1"/>
      <line id="Line_78" data-name="Line 78" x2="10.015" transform="translate(332.313 52.123)" fill="none" stroke="#5269b0" stroke-linecap="round" stroke-linejoin="round" stroke-miterlimit="10" stroke-width="1"/>
      <path id="Path_24525" data-name="Path 24525" d="M210.734,84.6h14.742a1.914,1.914,0,0,1,1.734,1.821v.228a1.913,1.913,0,0,1-1.734,1.821H210.734A1.913,1.913,0,0,1,209,86.648v-.228A1.752,1.752,0,0,1,210.734,84.6Z" transform="translate(101.918 -84.6)" fill="none" stroke="#5269b0" stroke-linecap="round" stroke-linejoin="round" stroke-miterlimit="10" stroke-width="1"/>
      <line id="Line_79" data-name="Line 79" x1="14.34" y2="24.354" transform="translate(300.675 30.045)" fill="none" stroke="#fff" stroke-linecap="round" stroke-linejoin="round" stroke-miterlimit="10" stroke-width="0.646"/>
      <path id="Path_24526" data-name="Path 24526" d="M238.578,97.524l-15.478,2.5c-.683,0-1.593.91-1.593.91-3.414,2.049-11.381,10.243-13.657,13.2-.228.228-9.332,10.925-13.657,15.933-.455.228-1.593,7.056-1.593,7.056l18.664,10.47s1.821-7.739,1.593-8.194a35.625,35.625,0,0,0,12.746-20.03s6.373,3.869,8.422,1.593c1.366-1.593-7.284-6.828-7.284-6.828s9.787,4.1,11.608,4.1,3.187-2.731,1.593-4.1c-1.821-1.366-12.291-6.828-12.291-6.828s12.063,3.869,14.567,3.642c.91,0,1.821-2.5-.91-3.869a66.627,66.627,0,0,0-7.966-3.187l6.145-.91a2.609,2.609,0,0,0,2.048-3.414A2.515,2.515,0,0,0,238.578,97.524Z" transform="translate(80.99 -68.162)" fill="#f8ad9c"/>
      <g id="Group_60997" data-name="Group 60997" transform="translate(0 63.504)">
        <path id="Path_24527" data-name="Path 24527" d="M198.051,298.646,174.835,133.4l-24.354,2.276-22.761-1.821L108.6,298.646C122.029,298.419,190.768,297.736,198.051,298.646Z" transform="translate(-26.204 -85.829)" fill="#fff"/>
        <path id="Path_24528" data-name="Path 24528" d="M162.422,137.875a19.86,19.86,0,0,0-2.048-7.056,1.707,1.707,0,0,0-2.731,0c-.683,1.821-1.366,3.869-2.731,4.78-2.276,1.821-15.022,6.146-15.022,6.146s-12.063-5.463-14.112-7.739c-1.138-1.138-1.593-3.187-1.821-5.235-.228-1.138-2.049-1.366-2.731-.455a25.355,25.355,0,0,0-3.187,7.056l-1.138,5.69s7.966,11.836,9.332,13.2l1.366,1.366s3.869-8.422,7.056-10.015a13.035,13.035,0,0,1,5.235-1.593A12.267,12.267,0,0,1,144.9,146.3c2.959,2.049,5.918,10.7,5.918,10.7l1.593-1.138c1.593-1.138,10.7-12.063,10.7-12.063S162.878,143.565,162.422,137.875Z" transform="translate(-15.613 -93.035)" fill="#5269b0"/>
        <path id="Path_24529" data-name="Path 24529" d="M233.023,272.043c19.8-5.007,30.955-9.787,30.955-9.787L243.949,194.2H94.635L89.4,271.816a9.565,9.565,0,0,0,1.138.455H233.023Z" transform="translate(-50.706 -8.241)" fill="#191c39"/>
        <path id="Path_24530" data-name="Path 24530" d="M256.624,112.5,232.5,209.69l-26.4-26.175a88.384,88.384,0,0,0-43.7-23.444l-24.127-5.007A1.14,1.14,0,0,0,136.9,156.2c.683,12.519,5.463,106.067,18.664,164.336,10.015,44.157,11.608,50.757,13.2,55.765h47.571L195.4,263.634l48.481,14.34a32.541,32.541,0,0,0,41.653-28.452l8.422-132.7Z" transform="translate(9.91 -112.5)" fill="#c3d8e3"/>
        <line id="Line_80" data-name="Line 80" y1="14.567" x2="5.007" transform="translate(237.399 97.646)" fill="none" stroke="#fff" stroke-linecap="round" stroke-linejoin="round" stroke-miterlimit="10" stroke-width="0.646"/>
        <path id="Path_24531" data-name="Path 24531" d="M227.322,125.6v-1.366L188.628,116.5l-.228,1.366Z" transform="translate(75.63 -107.396)" fill="#fff"/>
        <circle id="Ellipse_522" data-name="Ellipse 522" cx="1.821" cy="1.821" r="1.821" transform="translate(298.399 7.739)" fill="#94a6b0"/>
        <path id="Path_24532" data-name="Path 24532" d="M141.1,132.6l28,41.653L157.26,187l14.795,10.925-8.877,50.757" transform="translate(15.269 -86.85)" fill="none" stroke="#fff" stroke-linecap="round" stroke-linejoin="round" stroke-miterlimit="10" stroke-width="0.646"/>
        <path id="Path_24533" data-name="Path 24533" d="M164.259,189.747,161.3,170.4l5.918,20.03Z" transform="translate(41.047 -38.613)" fill="#94a6b0"/>
        <g id="Group_60996" data-name="Group 60996" transform="translate(0 42.519)">
          <path id="Path_24534" data-name="Path 24534" d="M72.4,352.464h71.015c1.593-5.007,3.187-11.608,13.2-55.765,13.2-58.5,17.981-151.817,18.664-164.336a1.14,1.14,0,0,0-1.366-1.138l-24.127,5.007c-7.284,1.593-18.664,7.284-28.907,13.429A58.37,58.37,0,0,0,92.2,192.68Z" transform="translate(-72.4 -131.18)" fill="#c3d8e3"/>
          <path id="Path_24535" data-name="Path 24535" d="M130.883,132.6l-28,41.653L114.722,187,99.7,197.925l9.1,50.757" transform="translate(-37.562 -129.369)" fill="none" stroke="#fff" stroke-linecap="round" stroke-linejoin="round" stroke-miterlimit="10" stroke-width="0.646"/>
        </g>
        <path id="Path_24536" data-name="Path 24536" d="M135.028,215.5l-6.828,4.552V241.9" transform="translate(-1.193 18.94)" fill="none" stroke="#2d3471" stroke-linecap="round" stroke-linejoin="round" stroke-miterlimit="10" stroke-width="0.646"/>
        <line id="Line_81" data-name="Line 81" x1="5.235" y2="58.041" transform="translate(44.612 202.802)" fill="none" stroke="#fff" stroke-linecap="round" stroke-linejoin="round" stroke-miterlimit="10" stroke-width="0.646"/>
      </g>
    </g>
    <g id="Group_61000" data-name="Group 61000" transform="translate(16 361.567)">
      <line id="Line_82" data-name="Line 82" x1="569.5" transform="translate(0 61.683)" fill="none" stroke="#5269b0" stroke-linecap="round" stroke-linejoin="round" stroke-miterlimit="10" stroke-width="0.646"/>
      <path id="Path_24537" data-name="Path 24537" d="M124.366,219.2a23.315,23.315,0,0,0,2.731,16.388,7.265,7.265,0,0,0,6.373,3.642h23.9a7.265,7.265,0,0,0,6.373-3.642,24.371,24.371,0,0,0,2.731-16.388Z" transform="translate(121.683 -178.457)" fill="#f28e20"/>
      <path id="Path_24538" data-name="Path 24538" d="M154.662,223.84l-2.5-1.593a1.847,1.847,0,0,1-.91-1.821V202.9H139.412v17.526a2.81,2.81,0,0,1-.91,1.821L136,223.84a24.119,24.119,0,0,0-8.649,32.548,7.265,7.265,0,0,0,6.373,3.642h23.9a7.265,7.265,0,0,0,6.373-3.642C169.685,245.236,166.043,230.441,154.662,223.84Z" transform="translate(122.114 -199.258)" fill="none" stroke="#fff" stroke-linecap="round" stroke-linejoin="round" stroke-miterlimit="10" stroke-width="0.323"/>
      <path id="Path_24539" data-name="Path 24539" d="M131.041,201.3h15.25a1.8,1.8,0,0,1,1.821,1.821h0a1.8,1.8,0,0,1-1.821,1.821h-15.25a1.8,1.8,0,0,1-1.821-1.821h0C128.992,202.21,129.9,201.3,131.041,201.3Z" transform="translate(128.437 -201.3)" fill="none" stroke="#fff" stroke-linecap="round" stroke-linejoin="round" stroke-miterlimit="10" stroke-width="0.323"/>
      <line id="Line_83" data-name="Line 83" x2="6.146" transform="translate(266.989 7.511)" fill="none" stroke="#fff" stroke-linecap="round" stroke-linejoin="round" stroke-miterlimit="10" stroke-width="0.323"/>
      <line id="Line_84" data-name="Line 84" x2="6.146" transform="translate(266.989 16.388)" fill="none" stroke="#fff" stroke-linecap="round" stroke-linejoin="round" stroke-miterlimit="10" stroke-width="0.323"/>
      <line id="Line_85" data-name="Line 85" x2="8.422" transform="translate(270.175 25.948)" fill="none" stroke="#fff" stroke-linecap="round" stroke-linejoin="round" stroke-miterlimit="10" stroke-width="0.323"/>
      <line id="Line_86" data-name="Line 86" x2="11.153" transform="translate(274.955 34.825)" fill="none" stroke="#fff" stroke-linecap="round" stroke-linejoin="round" stroke-miterlimit="10" stroke-width="0.323"/>
      <line id="Line_87" data-name="Line 87" x2="13.201" transform="translate(274.955 45.295)" fill="none" stroke="#fff" stroke-linecap="round" stroke-linejoin="round" stroke-miterlimit="10" stroke-width="0.323"/>
      <line id="Line_88" data-name="Line 88" x2="11.153" transform="translate(274.955 55.31)" fill="none" stroke="#fff" stroke-linecap="round" stroke-linejoin="round" stroke-miterlimit="10" stroke-width="0.323"/>
      <path id="Path_24540" data-name="Path 24540" d="M136.531,213.2a21.9,21.9,0,0,0-7.966,29.59" transform="translate(124.085 -186.114)" fill="none" stroke="#fff" stroke-linecap="round" stroke-linejoin="round" stroke-miterlimit="10" stroke-width="0.646"/>
      <g id="Group_60999" data-name="Group 60999" transform="translate(294.021 1.821)">
        <path id="Path_24541" data-name="Path 24541" d="M182.1,219H152.059l-5.918,10.015a6.8,6.8,0,0,0,5.918,10.243H182.1a6.879,6.879,0,0,0,5.918-10.243Z" transform="translate(-145.176 -180.534)" fill="#99daf3"/>
        <path id="Path_24542" data-name="Path 24542" d="M173.782,224.185V203.7H160.353v20.485a2.052,2.052,0,0,1-.228,1.138l-13.884,23.444a6.8,6.8,0,0,0,5.918,10.243H182.2a6.879,6.879,0,0,0,5.918-10.243l-13.884-23.444A1.253,1.253,0,0,1,173.782,224.185Z" transform="translate(-145.049 -200.058)" fill="none" stroke="#fff" stroke-linecap="round" stroke-linejoin="round" stroke-miterlimit="10" stroke-width="0.323"/>
        <line id="Line_89" data-name="Line 89" x2="5.235" transform="translate(23.271 8.877)" fill="none" stroke="#fff" stroke-linecap="round" stroke-linejoin="round" stroke-miterlimit="10" stroke-width="0.323"/>
        <line id="Line_90" data-name="Line 90" x2="5.235" transform="translate(23.271 16.388)" fill="none" stroke="#fff" stroke-linecap="round" stroke-linejoin="round" stroke-miterlimit="10" stroke-width="0.323"/>
        <line id="Line_91" data-name="Line 91" x2="7.511" transform="translate(20.767 24.582)" fill="none" stroke="#fff" stroke-linecap="round" stroke-linejoin="round" stroke-miterlimit="10" stroke-width="0.323"/>
        <line id="Line_92" data-name="Line 92" x2="9.787" transform="translate(23.271 32.321)" fill="none" stroke="#fff" stroke-linecap="round" stroke-linejoin="round" stroke-miterlimit="10" stroke-width="0.323"/>
        <line id="Line_93" data-name="Line 93" x2="11.608" transform="translate(26.912 41.425)" fill="none" stroke="#fff" stroke-linecap="round" stroke-linejoin="round" stroke-miterlimit="10" stroke-width="0.323"/>
        <line id="Line_94" data-name="Line 94" x2="9.787" transform="translate(33.513 50.075)" fill="none" stroke="#fff" stroke-linecap="round" stroke-linejoin="round" stroke-miterlimit="10" stroke-width="0.323"/>
        <path id="Path_24543" data-name="Path 24543" d="M152.821,202.1h14.567a1.958,1.958,0,0,1,1.821,1.821h0a1.958,1.958,0,0,1-1.821,1.821H152.821A1.958,1.958,0,0,1,151,203.921h0A1.8,1.8,0,0,1,152.821,202.1Z" transform="translate(-137.744 -202.1)" fill="none" stroke="#fff" stroke-linecap="round" stroke-linejoin="round" stroke-miterlimit="10" stroke-width="0.323"/>
        <line id="Line_95" data-name="Line 95" x1="13.657" y2="23.444" transform="translate(3.468 28.907)" fill="none" stroke="#fff" stroke-linecap="round" stroke-linejoin="round" stroke-miterlimit="10" stroke-width="0.646"/>
      </g>
    </g>
    <circle id="Ellipse_523" data-name="Ellipse 523" cx="2.504" cy="2.504" r="2.504" transform="translate(126.164 351.78)" fill="#fff"/>
    <g id="Group_61001" data-name="Group 61001" transform="translate(236.784 114.917)">
      <path id="Path_24544" data-name="Path 24544" d="M115.5,119.485a7.723,7.723,0,0,1-2.5-5.463,4.294,4.294,0,0,1,1.366-3.414l.455-.455c2.049-1.821,5.463-4.325,6.6-6.6,1.593-3.187,6.6-7.511,12.974-9.56a24.135,24.135,0,0,1,18.892,2.049l-.455.683A23.013,23.013,0,0,0,134.4,94.676c-6.146,1.821-10.925,5.918-12.519,9.1-1.138,2.5-4.552,5.235-6.828,6.828l-.455.455a3.327,3.327,0,0,0-1.138,2.959,6.031,6.031,0,0,0,2.276,4.78Z" transform="translate(-113 -92.935)" fill="#74444a"/>
    </g>
  </g>
</svg>
