<svg xmlns="http://www.w3.org/2000/svg" xmlns:xlink="http://www.w3.org/1999/xlink" width="367.586" height="260.5" viewBox="0 0 367.586 260.5">
  <defs>
    <linearGradient id="linear-gradient" x1="0.164" y1="0.265" x2="0.993" y2="0.918" gradientUnits="objectBoundingBox">
      <stop offset="0" stop-color="#ff602e"/>
      <stop offset="0.368" stop-color="#fe1c5e"/>
      <stop offset="1" stop-color="#570ebe"/>
    </linearGradient>
    <linearGradient id="linear-gradient-2" x1="0.5" y1="1" x2="0.5" gradientUnits="objectBoundingBox">
      <stop offset="0" stop-color="gray" stop-opacity="0.251"/>
      <stop offset="0.54" stop-color="gray" stop-opacity="0.122"/>
      <stop offset="1" stop-color="gray" stop-opacity="0.102"/>
    </linearGradient>
    <linearGradient id="linear-gradient-9" x1="0.5" y1="1" x2="0.5" y2="0" xlink:href="#linear-gradient-2"/>
  </defs>
  <g id="Group_61008" data-name="Group 61008" transform="translate(-0.49 0.006)">
    <ellipse id="Ellipse_524" data-name="Ellipse 524" cx="32.428" cy="5.208" rx="32.428" ry="5.208" transform="translate(90.157 249.93)" fill="#6c63ff" opacity="0.1"/>
    <ellipse id="Ellipse_525" data-name="Ellipse 525" cx="40.465" cy="5.208" rx="40.465" ry="5.208" transform="translate(258.395 250.076)" fill="#6c63ff" opacity="0.1"/>
    <path id="Path_24545" data-name="Path 24545" d="M59.692,396.83H93.468v46.036h-31.3c-.083.473-.163.948-.25,1.424H93.468v37.127c-.057-.017-.107-.037-.16-.057-.892-.353-1.777-.725-2.662-1.125l-.566-.256q-1.331-.629-2.662-1.331c-.31-.163-.619-.333-.925-.506a55.384,55.384,0,0,1-13.272-10.37c-.113-.11-.22-.226-.333-.333-.539-.586-1.068-1.178-1.581-1.784l-.566-.666c-.606-.742-1.191-1.5-1.761-2.276-.083-.113-.163-.226-.25-.333a49.548,49.548,0,0,1-5.724-10.35c-.047-.11-.087-.23-.13-.333q-.686-1.764-1.215-3.561c-.153-.5-.3-1-.426-1.521-.047-.153-.087-.3-.123-.453C59.223,438.786,59,431.122,59,423.511v-2.662c0-3.078.037-6.177.09-9.272,0-.8.033-1.6.05-2.406q.07-3.065.2-6.13c.02-.569.047-1.135.077-1.7a9.632,9.632,0,0,1,.05-.978C59.546,399.176,59.612,398,59.692,396.83Z" transform="translate(-54.766 -284.281)" fill="#2d0c0d" opacity="0.1"/>
    <path id="Path_24546" data-name="Path 24546" d="M125.427,195.866H106.9a140.447,140.447,0,0,1,9.854-13.565c2.752-3.381,5.658-6.676,8.673-9.851Z" transform="translate(-86.725 -134.575)" fill="#2c0c0c" opacity="0.1"/>
    <path id="Path_24547" data-name="Path 24547" d="M95.07,247.09V295.5H61.4c0-.14.023-.283.033-.423.03-.383.06-.765.093-1.145.037-.446.077-.9.12-1.331s.09-.968.14-1.451.1-.972.153-1.454.106-.965.166-1.444.113-.965.176-1.444c.05-.4.1-.8.156-1.195.077-.562.156-1.128.243-1.687a1.556,1.556,0,0,1,.037-.25A115.118,115.118,0,0,1,65.2,271.521a89.883,89.883,0,0,1,4.177-12.314,92.437,92.437,0,0,1,6.283-12.1Z" transform="translate(-56.367 -184.374)" fill="#2c0c0c" opacity="0.1"/>
    <path id="Path_24548" data-name="Path 24548" d="M186.8,171.176v46.04h72.141v-46.04Zm0,47.461v39.537c.413.087.822.17,1.228.24.552.107,1.1.2,1.664.286.107.017.216.033.333.043.22.037.446.067.666.1.556.077,1.108.14,1.664.19.263.027.529.05.8.07l.642.05h0c.349.027.7.047,1.038.057.213,0,.426.02.646.027h2.373c.286,0,.572,0,.855-.027h.02a4.488,4.488,0,0,0,.6-.027,1.4,1.4,0,0,0,.166,0,3.438,3.438,0,0,0,.493-.023h.116l1.115-.087c.366-.033.736-.077,1.108-.116l.759-.09a66.381,66.381,0,0,0,9.135-1.944c6.729-1.877,13.312-4.5,20.038-6.426,8.7-2.479,18.3-3.7,26.707-.666v-31.19Zm72.141-98.716V58.629A92.742,92.742,0,0,0,235.5,61.378c-18.267,4.589-34.658,14.543-48.7,27.256v31.283h3.621v1.421H186.8v48.416h72.141V121.342H205.287v-1.421Zm92.662-20.7a29.882,29.882,0,0,1-13.076-3.8c-7.771-4.227-13.978-10.753-20.913-16.261A96.019,96.019,0,0,0,267,59.045v60.876H369.984l.256-.27Zm9.382-1.664,9.947,10.916V94.692A39.467,39.467,0,0,0,361,97.54Zm9.947,170.438V218.637h-21.2c-.057-.21-.113-.423-.18-.636.063.213.116.426.176.636H267.012V254.33c.785.582,1.561,1.195,2.33,1.817h0c.829.666,1.647,1.368,2.469,2.057l.829.686c.4.333.8.666,1.2.978q1.2.972,2.419,1.917c.4.333.815.632,1.225.945a166.809,166.809,0,0,0,20.511,13.415q2.406,1.331,4.856,2.6c1.088.556,2.183,1.108,3.281,1.644q2.476,1.208,4.992,2.33h0a183.32,183.32,0,0,0,48.589,14.154q5.588.825,11.219,1.3V267.988h.333ZM267.012,121.342v48.413H370.946V121.342Zm0,49.834v46.04H370.946v-46.04Zm112-76.544V110l12.7-13.931q-6.31-1.018-12.7-1.454Zm0,76.561v46.023H480.1v-46.04ZM479.732,271.646l.356-53.009H379.013V298.7a181.281,181.281,0,0,0,19.536-.233h.113q4.659-.293,9.275-.852h.07A170.808,170.808,0,0,0,455.664,284.9m43.93-106.141c-.379-.9-.775-1.784-1.178-2.662-.752-1.664-1.548-3.281-2.366-4.9h-7.887v46.02H508.1c-.01-13.033-3.308-26.345-8.5-38.475Zm-11.432,39.9v45.594a65.314,65.314,0,0,0,13.781-18.587,63.9,63.9,0,0,0,6.143-27.014Zm0-60.876v11.981h7.149a129.791,129.791,0,0,0-7.139-12ZM419.6,103.664c-.526-.2-1.052-.4-1.581-.6a144.306,144.306,0,0,0-17.076-5.132l-19.429,21.323h0l-.373.4.25.273h69.15a147.9,147.9,0,0,0-30.931-16.277Zm32.967,17.7H380.431l-1.418,1.3v47.1h101.1V146.941a144.036,144.036,0,0,0-27.533-25.6Z" transform="translate(-140.034 -58.63)" opacity="0.09" fill="url(#linear-gradient)"/>
    <path id="Path_24549" data-name="Path 24549" d="M95.07,320.46v23.992H61.4c0-.14.023-.283.033-.423.03-.383.06-.765.093-1.145.037-.446.077-.9.12-1.331s.09-.968.14-1.451.1-.972.153-1.454.106-.965.166-1.444.113-.965.176-1.444c.05-.4.1-.8.156-1.195.077-.562.156-1.128.243-1.687a1.557,1.557,0,0,1,.037-.25A115.12,115.12,0,0,1,65.2,320.473Z" transform="translate(-56.367 -233.327)" fill="#2c0c0c" opacity="0.1"/>
    <path id="Path_24551" data-name="Path 24551" d="M164.956,181.124V222.6h-25.4v-41.48h3.621V167.08h14.863v14.044Z" transform="translate(-92.794 -111.48)" fill="#2c0c0c" opacity="0.1"/>
    <rect id="Rectangle_1426" data-name="Rectangle 1426" width="25.393" height="46.036" transform="translate(46.769 112.546)" fill="#2c0c0c" opacity="0.1"/>
    <path id="Path_24552" data-name="Path 24552" d="M186.8,539.44h25.4v38.272a66.268,66.268,0,0,1-9.135,1.94l-.759.093c-.373.043-.742.08-1.108.116s-.745.063-1.115.087h-.116c-.16,0-.333.02-.489.023h-.17c-.2,0-.4.02-.6.027h0c-.283.017-.566.02-.855.023h-2.356L194.85,580c-.333,0-.692-.037-1.038-.06h0l-.639-.047-.8-.073c-.559-.05-1.115-.113-1.664-.19l-.666-.093-.333-.047c-.556-.087-1.1-.18-1.664-.286-.409-.07-.815-.156-1.228-.24Z" transform="translate(-140.034 -379.43)" fill="#2c0c0c" opacity="0.1"/>
    <rect id="Rectangle_1427" data-name="Rectangle 1427" width="20.94" height="46.376" transform="translate(209.972 64.746)" fill="#6c63ff" opacity="0.1"/>
    <path id="Path_24553" data-name="Path 24553" d="M484.517,338.19v46.04H380.58V364.372h55.362v11.715h27.633v-37.9Z" transform="translate(-253.602 -225.644)" fill="#2c0c0c" opacity="0.1"/>
    <path id="Path_24554" data-name="Path 24554" d="M532.087,587.527h-.333v30.2q-5.624-.476-11.215-1.295A183.327,183.327,0,0,1,471.93,602.25q-6.7-3.015-13.126-6.583a167.486,167.486,0,0,1-20.514-13.415q-2.449-1.877-4.836-3.841c-1.1-.909-2.2-1.84-3.3-2.746-.769-.622-1.544-1.235-2.33-1.82v-35.68h82.718c-.057-.213-.113-.426-.173-.636.063.21.123.423.18.636h21.209v49.341C531.867,587.51,531.977,587.52,532.087,587.527Z" transform="translate(-300.842 -378.155)" fill="#ff602e" opacity="0.1"/>
    <path id="Path_24555" data-name="Path 24555" d="M876.865,208.99H863.22v-4.24h6.117V192.12q.8.29,1.584.6V204.75h5.944Z" transform="translate(-591.34 -147.699)" fill="#6c63ff" opacity="0.1"/>
    <path id="Path_24556" data-name="Path 24556" d="M843.78,295.5H776.793l.023.017-.03-.017H764.36V249.123h3.521V283.4h16.091V263.1h13.292V247.09h13.645v16.024H824.2v20.3H843.78Z" transform="translate(-525.381 -184.374)" fill="#2d0c0c" opacity="0.1"/>
    <path id="Path_24557" data-name="Path 24557" d="M764.36,396.82v46.04h79.42V396.82ZM865.339,497.053l.11-36.442H843.78V444.3H764.36v80.039a181.273,181.273,0,0,0,19.536-.233h.113q4.659-.293,9.275-.852h.07a170.809,170.809,0,0,0,47.657-12.716" transform="translate(-525.381 -284.274)" fill="#2c0c0d" opacity="0.1"/>
    <path id="Path_24558" data-name="Path 24558" d="M1093.768,539.44h18.527a64.1,64.1,0,0,1-6.147,27.01,65.337,65.337,0,0,1-13.778,18.587V555.751h1.4Z" transform="translate(-744.228 -379.43)" fill="#2d0c0c" opacity="0.1"/>
    <path id="Path_24559" data-name="Path 24559" d="M1115.107,458.025H1096.57V419.55H1106.6C1111.792,431.681,1115.09,444.993,1115.107,458.025Z" transform="translate(-747.031 -299.439)" fill="#2d0c0c" opacity="0.1"/>
    <rect id="Rectangle_1428" data-name="Rectangle 1428" width="11.219" height="14.54" transform="translate(219.697 77.638)" fill="#6c63ff" opacity="0.1"/>
    <rect id="Rectangle_1429" data-name="Rectangle 1429" width="11.219" height="3.348" transform="translate(219.697 107.777)" fill="#6c63ff" opacity="0.1"/>
    <rect id="Rectangle_1430" data-name="Rectangle 1430" width="11.219" height="9.768" transform="translate(219.697 112.546)" fill="#6c63ff" opacity="0.1"/>
    <rect id="Rectangle_1431" data-name="Rectangle 1431" width="11.219" height="14.54" transform="translate(219.697 137.916)" fill="#6c63ff" opacity="0.1"/>
    <rect id="Rectangle_1432" data-name="Rectangle 1432" width="11.219" height="14.54" transform="translate(219.697 168.054)" fill="#6c63ff" opacity="0.1"/>
    <path id="Path_24560" data-name="Path 24560" d="M717.635,665.329a1.845,1.845,0,0,1,.333.02h-.333v3.378H706.42V654.17h11.215Z" transform="translate(-486.723 -455.977)" fill="#6c63ff" opacity="0.1"/>
    <path id="Path_24561" data-name="Path 24561" d="M717.635,744.71v11.232q-5.624-.476-11.215-1.295V744.71Z" transform="translate(-486.723 -516.385)" fill="#6c63ff" opacity="0.1"/>
    <rect id="Rectangle_1433" data-name="Rectangle 1433" width="48.08" height="1.068" transform="translate(126.978 157.518)" fill="#6c63ff" opacity="0.1"/>
    <rect id="Rectangle_1434" data-name="Rectangle 1434" width="48.08" height="4.093" transform="translate(126.978 160.007)" fill="#6c63ff" opacity="0.1"/>
    <rect id="Rectangle_1435" data-name="Rectangle 1435" width="48.08" height="6.583" transform="translate(126.978 177.519)" fill="#6c63ff" opacity="0.1"/>
    <path id="Path_24562" data-name="Path 24562" d="M480.56,652.15v6.583H442.954q-2.449-1.87-4.839-3.841c-1.1-.909-2.193-1.84-3.3-2.742Z" transform="translate(-305.506 -454.63)" fill="#6c63ff" opacity="0.1"/>
    <path id="Path_24563" data-name="Path 24563" d="M538.013,712.22V718.8h-3.97q-6.693-3.018-13.122-6.586Z" transform="translate(-362.958 -494.702)" fill="#6c63ff" opacity="0.1"/>
    <rect id="Rectangle_1436" data-name="Rectangle 1436" width="9.465" height="9.465" transform="translate(258.518 117.009)" fill="#6c63ff" opacity="0.1"/>
    <rect id="Rectangle_1437" data-name="Rectangle 1437" width="9.465" height="9.465" transform="translate(53.585 72.909)" fill="#6c63ff" opacity="0.1"/>
    <rect id="Rectangle_1438" data-name="Rectangle 1438" width="9.465" height="9.465" transform="translate(53.585 94.894)" fill="#6c63ff" opacity="0.1"/>
    <rect id="Rectangle_1439" data-name="Rectangle 1439" width="9.465" height="9.465" transform="translate(53.585 116.879)" fill="#6c63ff" opacity="0.1"/>
    <rect id="Rectangle_1440" data-name="Rectangle 1440" width="9.465" height="9.465" transform="translate(53.585 138.861)" fill="#6c63ff" opacity="0.1"/>
    <rect id="Rectangle_1441" data-name="Rectangle 1441" width="9.465" height="9.465" transform="translate(53.585 160.846)" fill="#6c63ff" opacity="0.1"/>
    <rect id="Rectangle_1442" data-name="Rectangle 1442" width="9.465" height="9.465" transform="translate(53.585 182.831)" fill="#6c63ff" opacity="0.1"/>
    <rect id="Rectangle_1443" data-name="Rectangle 1443" width="9.465" height="9.465" transform="translate(294.65 117.009)" fill="#6c63ff" opacity="0.1"/>
    <rect id="Rectangle_1444" data-name="Rectangle 1444" width="9.465" height="9.465" transform="translate(258.518 140.355)" fill="#6c63ff" opacity="0.1"/>
    <rect id="Rectangle_1445" data-name="Rectangle 1445" width="9.465" height="9.465" transform="translate(294.65 140.355)" fill="#6c63ff" opacity="0.1"/>
    <rect id="Rectangle_1446" data-name="Rectangle 1446" width="9.465" height="9.465" transform="translate(258.518 163.698)" fill="#6c63ff" opacity="0.1"/>
    <rect id="Rectangle_1447" data-name="Rectangle 1447" width="9.465" height="9.465" transform="translate(294.65 163.698)" fill="#6c63ff" opacity="0.1"/>
    <rect id="Rectangle_1448" data-name="Rectangle 1448" width="9.465" height="9.465" transform="translate(258.518 187.044)" fill="#6c63ff" opacity="0.1"/>
    <rect id="Rectangle_1449" data-name="Rectangle 1449" width="9.465" height="9.465" transform="translate(294.65 187.044)" fill="#6c63ff" opacity="0.1"/>
    <rect id="Rectangle_1450" data-name="Rectangle 1450" width="9.465" height="9.465" transform="translate(258.518 210.39)" fill="#6c63ff" opacity="0.1"/>
    <rect id="Rectangle_1451" data-name="Rectangle 1451" width="9.465" height="9.465" transform="translate(294.65 210.39)" fill="#6c63ff" opacity="0.1"/>
    <path id="Path_24564" data-name="Path 24564" d="M775.83,708.434v-6.1h9.462v5.235Z" transform="translate(-517.312 -468.597)" fill="#6c63ff" opacity="0.1"/>
    <path id="Path_24565" data-name="Path 24565" d="M65.24,357v5.415H97.632V357Zm3.228,5.075H65.826v-4.742h2.662Zm3.225,0H69.031v-4.742h2.662Zm3.218,0H72.249v-4.742h2.662Zm3.225,0H75.477v-4.742h2.662Zm3.222,0H78.7v-4.742h2.662Zm3.225,0H81.92v-4.742h2.662Zm3.225,0H85.145v-4.742h2.662Zm3.222,0H88.366v-4.742h2.662Zm3.222,0H91.588v-4.742H94.25Zm3.222,0H94.809v-4.742h2.662Z" transform="translate(-58.929 -257.706)" fill="#6c63ff" opacity="0.1"/>
    <path id="Path_24566" data-name="Path 24566" d="M65.24,404.34v5.415H97.632V404.34Zm3.228,5.072H65.826v-4.729h2.662Zm3.225,0H69.031v-4.729h2.662Zm3.218,0H72.249v-4.729h2.662Zm3.225,0H75.477v-4.729h2.662Zm3.222,0H78.7v-4.729h2.662Zm3.225,0H81.92v-4.729h2.662Zm3.225,0H85.145v-4.729h2.662Zm3.222,0H88.366v-4.729h2.662Zm3.222,0H91.588v-4.729H94.25Zm3.222,0H94.809v-4.729h2.662Z" transform="translate(-58.929 -289.291)" fill="#6c63ff" opacity="0.1"/>
    <path id="Path_24567" data-name="Path 24567" d="M65.24,451.7v5.425H97.632V451.7Zm3.228,5.072H65.826v-4.732h2.662Zm3.225,0H69.031v-4.732h2.662Zm3.218,0H72.249v-4.732h2.662Zm3.225,0H75.477v-4.732h2.662Zm3.222,0H78.7v-4.732h2.662Zm3.225,0H81.92v-4.732h2.662Zm3.225,0H85.145v-4.732h2.662Zm3.222,0H88.366v-4.732h2.662Zm3.222,0H91.588v-4.732H94.25Zm3.222,0H94.809v-4.732h2.662Z" transform="translate(-58.929 -320.89)" fill="#6c63ff" opacity="0.1"/>
    <path id="Path_24568" data-name="Path 24568" d="M65.24,499.06v5.408H97.632V499.06Zm3.228,5.072H65.826V499.4h2.662Zm3.225,0H69.031V499.4h2.662Zm3.218,0H72.249V499.4h2.662Zm3.225,0H75.477V499.4h2.662Zm3.222,0H78.7V499.4h2.662Zm3.225,0H81.92V499.4h2.662Zm3.225,0H85.145V499.4h2.662Zm3.222,0H88.366V499.4h2.662Zm3.222,0H91.588V499.4H94.25Zm3.222,0H94.809V499.4h2.662Z" transform="translate(-58.929 -352.488)" fill="#6c63ff" opacity="0.1"/>
    <path id="Path_24569" data-name="Path 24569" d="M65.66,546.41c.13.509.276,1.018.429,1.521v-1.181h2.662v4.732H67.327c.043.11.087.23.13.333H97.912v-5.4Zm6.323,5.072H69.321v-4.732h2.662Zm3.218,0H72.539v-4.732H75.2Zm3.225,0H75.757v-4.732H78.42Zm3.222,0H78.985v-4.732h2.662Zm3.225,0H82.21v-4.732h2.662Zm3.225,0H85.435v-4.732H88.1Zm3.222,0H88.657v-4.732h2.662Zm3.222,0H91.878v-4.732h2.662Zm3.222,0H95.1v-4.732h2.662Z" transform="translate(-59.21 -384.08)" fill="#6c63ff" opacity="0.1"/>
    <path id="Path_24570" data-name="Path 24570" d="M88.26,593.77c.083.107.163.226.25.333H90.27v2.273c.19.226.376.453.569.666V594.09H93.5v4.749H92.423c.106.11.21.226.333.333H113v-5.4Zm8.456,5.069H94.054v-4.729h2.662Zm3.225,0H97.279v-4.729h2.662Zm3.225,0H100.5v-4.729h2.662Zm3.222,0h-2.662v-4.729h2.662Zm3.222,0h-2.662v-4.729h2.662Zm3.222,0h-2.662v-4.729h2.662Z" transform="translate(-74.288 -415.679)" fill="#6c63ff" opacity="0.1"/>
    <path id="Path_24571" data-name="Path 24571" d="M141.65,641.12c.3.173.612.333.925.506v-.166h2.662v1.5l.566.263v-1.76h2.662v2.879a.834.834,0,0,0,.16.06V641.12Z" transform="translate(-109.91 -447.27)" fill="#6c63ff" opacity="0.1"/>
    <path id="Path_24572" data-name="Path 24572" d="M398.732,292.624Zm-20.5,98.223ZM356.843,340.87c.063.213.116.426.176.636h0C356.966,341.3,356.909,341.083,356.843,340.87Zm41.89-48.256ZM197.72,242.78V244.2h14.866V242.78ZM378.232,390.847ZM356.843,340.87c.063.213.116.426.176.636h0C356.966,341.3,356.909,341.083,356.843,340.87Zm41.89-48.256Zm-20.5,98.223ZM356.843,340.87c.063.213.116.426.176.636h0C356.966,341.3,356.909,341.083,356.843,340.87Z" transform="translate(-147.32 -181.499)" fill="#6c63ff" opacity="0.1"/>
    <path id="Path_24573" data-name="Path 24573" d="M366.58,291.422s-1.311-.183-1.311-2.093a29.925,29.925,0,0,0-.939-5.478h0c0-.017-.812-6.213-1.934-7.2s-2.563-6.769-2.563-6.769-.246-3.138-.749-3.814a32.4,32.4,0,0,1-2.183-4.689c-1-2.36-5.178-3.994-5.178-3.994s-7.551-4.38-9.691-5.807h0a3.282,3.282,0,0,1-.542-.409c-.373-.489-2-.5-2-.5a32.712,32.712,0,0,1-.386-3.418,2.6,2.6,0,0,0-.017-.359,11.515,11.515,0,0,0,5.062-6.263c.04-.126.073-.26.11-.386a1.082,1.082,0,0,0,.649-.586,12.21,12.21,0,0,1,.436-1.331,5.014,5.014,0,0,1,1.231-1.082,4.659,4.659,0,0,0,1.281-3.791c-.033-1.115-.213-2.24-.143-3.348l.02-.28c.02-.166.043-.333.073-.493.163-.825.519-1.6.719-2.423a3.117,3.117,0,0,0-.246-2.446c-.682-1.035-2.1-1.241-3.351-1.348-1.414-.12-2.679.037-3.584-1.138a12.776,12.776,0,0,0-1.424-1.721c-.186-.173-2-1.278-2-1.351a8.09,8.09,0,0,0-5.641-.433c-.939.273-1.824.719-2.776.942-2.053.486-4.416-.04-6.16,1.135a7.24,7.24,0,0,0-2.1,2.756q-.666,1.275-1.351,2.546a16.493,16.493,0,0,0-1.794,4.356,6.914,6.914,0,0,0-.12,1.018h0v.542a1.788,1.788,0,0,0,.02.333c.02.1.017.136.027.206s.027.226.047.333.06.293.1.439c.017.063.04.123.06.183.033.113.073.223.116.333.023.057.047.116.073.173a3.114,3.114,0,0,0,.17.333c.027.047.047.09.073.133a4.421,4.421,0,0,0,.306.446c.712.889,1.761,1.454,2.536,2.286v.373a11.392,11.392,0,0,0,5.185,9.3c0,.126.017.256.023.383a19.041,19.041,0,0,1-.037,2.965,1.4,1.4,0,0,0-1.1-.493,1.594,1.594,0,0,0-.426.037l-.03-.023h0v.03c-.732.18-1.634.942-2.5,3.108,0,0-2.622,2.955-4.619,2.832s-7.052,3.075-7.052,3.075-4.932,3.2-5.99,6.463a45.543,45.543,0,0,1-2.123,5.418L296.745,283h0l-1.125,9.967a46.25,46.25,0,0,1,.5,5.108c-.123.676,2.559,6.769,2.559,6.769s8.863,15.572,12.483,16.371l.26-.183a2.122,2.122,0,0,0,.489.183l.745-.526a8.124,8.124,0,0,1-.057,1.757c-.5,1.538.186,11.572,1.058,13.538s.562,27.756.562,27.756l-.123,2.276a.965.965,0,0,0,.03.2l-.03.539.09.047a6.409,6.409,0,0,1-.09,2.167,24.089,24.089,0,0,0-.439,3.821s-2.493,15.935-1.311,19.136,2.187,6.709,2.187,6.709,1.248,3.994.06,4.676-4.566,1.827-3.87,3.491c.632,1.538,3.032,5.658,3.388,6.26l-.03.316-.489,5.3a6.655,6.655,0,0,0,.562,2.023,3.487,3.487,0,0,0,3.558,2.223c.333-.023.719-.063,1.092-.113a47.172,47.172,0,0,0,8.087-2.1,3.3,3.3,0,0,1-.632-.522h0a1.827,1.827,0,0,1-.556-1.331c.053-.965-1.754-5.564-2.2-6.7-.07-.163-.107-.256-.107-.256s4.12-4.306,3.435-8.124c0,0-4.559-2.662-3.058-4.123A46.5,46.5,0,0,0,327.952,394s.123-15.692,0-18.035a19.4,19.4,0,0,1,.23-4.869c.05-.243.11-.479.173-.712a43.447,43.447,0,0,0,6.27.476c.765,0,1.544,0,2.33-.047q0,.333.03.719c.173,3.887.5,10.7.759,13.236.373,3.631,2.433,13.415,2.433,13.415s-3.93,2.523.686,8.739a8.427,8.427,0,0,1-.306,2.579h0a28.206,28.206,0,0,0-.789,3.248,5.727,5.727,0,0,0,.04,2.972c.749,1.471,5.242,1.351,5.242,1.351h0l.11-.02a6.44,6.44,0,0,1,4.756,1.434c1.707,1.371,8.187.769,11.695.333,1.374-.173,2.293-.333,2.293-.333a1.331,1.331,0,0,0,.047-.479h0c-.037-.862-.712-2.752-5.292-4.44,0,0-4.306-2.9-4.247-5.418h-.589a4.69,4.69,0,0,1,.6,0s-1.687-6.157-1-6.656-1.374-7.322-1.374-7.322-1.181-11.448-1.245-12.25a6.988,6.988,0,0,1,.31-2.03l-.31-6.277s-.06-2.087,0-2.766a13.821,13.821,0,0,0-.143-1.761c-.03-.233-.06-.476-.093-.716,1.614-.409,2.662-.789,2.662-.789l-.186-21.848c1.371-2.662,1.624-8.5,1.617-12.646,0-2.662-.12-4.633-.12-4.633l1.874-3.058s.433-3.661-.253-4.463a.768.768,0,0,1,.083-1.048,3.485,3.485,0,0,1,.409-.28s-.02-.03-.043-.073a3.3,3.3,0,0,1,.416-.3s-.666-1.032-.07-1.468c.559.379,1.058.666,1.438.9-.027.243-.053.383-.053.383l.16-.333.589.333s2.935-5.847,2.872-6.709,2-4.493,2-4.493a4.5,4.5,0,0,1,1.374-2.706c1.125-.8.872-6.586.872-6.586a14.19,14.19,0,0,1,1.062-4.247C368.011,293.083,366.58,291.422,366.58,291.422Zm-56.164-2.566.057,1.394-.572-.922Z" transform="translate(-212.638 -165.072)" fill="url(#linear-gradient-2)"/>
    <path id="Path_24574" data-name="Path 24574" d="M471.268,496.173l-.719,3.062s-5.757-2.939-6.8-6.673,1.737-5.152,1.737-5.152l5.365,2.273Z" transform="translate(-324.662 -344.715)" fill="#fff"/>
    <path id="Path_24575" data-name="Path 24575" d="M471.268,496.173l-.719,3.062s-5.757-2.939-6.8-6.673,1.737-5.152,1.737-5.152l5.365,2.273Z" transform="translate(-324.662 -344.715)" opacity="0.1"/>
    <path id="Path_24576" data-name="Path 24576" d="M363.6,802.544a41.371,41.371,0,0,1-8.986,2.2,3.419,3.419,0,0,1-3.491-2.21,6.688,6.688,0,0,1-.549-2.013l.476-5.275.253-2.809,7.778-2.02,1.1,3.368.1.256c.443,1.125,2.216,5.7,2.163,6.656a1.817,1.817,0,0,0,.546,1.315,3.164,3.164,0,0,0,.606.529Z" transform="translate(-249.301 -546.883)" fill="#fff"/>
    <path id="Path_24577" data-name="Path 24577" d="M451.079,799.161a1.331,1.331,0,0,1-.047.476s-11.388,1.9-13.718,0a6.17,6.17,0,0,0-4.792-1.4s-4.406.12-5.142-1.331a5.777,5.777,0,0,1-.037-2.955,28.151,28.151,0,0,1,.772-3.232l.176-.14,1.048-.842,12.274-.363h.093c-.06,2.509,4.167,5.388,4.167,5.388C450.363,796.422,451.025,798.3,451.079,799.161Z" transform="translate(-300.412 -546.182)" fill="#fff"/>
    <path id="Path_24578" data-name="Path 24578" d="M451.082,808.335a1.358,1.358,0,0,1-.05.476s-11.385,1.9-13.715,0a6.17,6.17,0,0,0-4.789-1.4s-4.41.12-5.142-1.331a5.773,5.773,0,0,1-.04-2.955c1.7.17,4.376.592,5.428,1.6,1.591,1.534,4.286,3.065,5.941,3.185C440.01,807.989,447.754,808.235,451.082,808.335Z" transform="translate(-300.415 -555.357)" opacity="0.1"/>
    <path id="Path_24579" data-name="Path 24579" d="M364.7,825.822a41.375,41.375,0,0,1-8.986,2.2,3.41,3.41,0,0,1-3.488-2.213c1.355.456,3.235.935,4.223.5,1.171-.519,5.325-.855,7.654-1A3.277,3.277,0,0,0,364.7,825.822Z" transform="translate(-250.408 -570.162)" opacity="0.1"/>
    <path id="Path_24580" data-name="Path 24580" d="M395.7,312.968c-4.393-1.707-10.044-7.348-8.633-9.984a5.9,5.9,0,0,0,.549-2.117,19.324,19.324,0,0,0,.04-3,41.019,41.019,0,0,0-.589-4.872s13.715.31,12.916,2.33a7.553,7.553,0,0,0-.206,2.772c.063,1.151.23,2.453.4,3.554.24,1.511.479,2.662.479,2.662s-.839,1.175-1.331,1.238S402,315.4,395.7,312.968Z" transform="translate(-273.505 -215.005)" fill="#cf6f80"/>
    <path id="Path_24581" data-name="Path 24581" d="M361.205,794.044l-.1.113c-4.1-4.959-9.059,1.221-9.059,1.221l-.073-.13.253-2.809L360,790.42l1.1,3.368Z" transform="translate(-250.235 -546.883)" opacity="0.1"/>
    <path id="Path_24582" data-name="Path 24582" d="M443.607,789.693s-3-.063-4.593,1.348-9.318.306-8.986,0a1.1,1.1,0,0,0,.173-.506l1.048-.842,12.274-.363C443.571,789.553,443.607,789.693,443.607,789.693Z" transform="translate(-302.309 -546.156)" opacity="0.1"/>
    <path id="Path_24583" data-name="Path 24583" d="M359.516,660.233a9.256,9.256,0,0,0-.506,1.707,19.535,19.535,0,0,0-.23,4.846c.123,2.33,0,17.941,0,17.941a47.761,47.761,0,0,1-4.1,5.631c-1.468,1.468,3,4.1,3,4.1.666,3.794-3.368,8.08-3.368,8.08-4.1-4.959-9.059,1.225-9.059,1.225s-2.7-4.659-3.368-6.323,2.632-2.816,3.794-3.491-.057-4.659-.057-4.659-.982-3.491-2.147-6.676,1.285-19.04,1.285-19.04a24.57,24.57,0,0,1,.429-3.8,6.35,6.35,0,0,0,.09-2.157c-.02-.243-.043-.446-.06-.582s-.03-.2-.03-.2l.047-.08,1.664-3.1S360.315,658.279,359.516,660.233Z" transform="translate(-243.444 -455.637)" fill="url(#linear-gradient)"/>
    <path id="Path_24584" data-name="Path 24584" d="M436.4,705.333s-3-.063-4.593,1.331-9.318.306-8.986,0,.306-2.573.306-2.573c-4.529-6.183-.666-8.693-.666-8.693s-2.023-9.734-2.39-13.345c-.256-2.523-.572-9.3-.742-13.172-.073-1.664-.116-2.809-.116-2.809l3.7-.745.476-.1,8.926-1.79s.246,1.664.413,3.025a14.141,14.141,0,0,1,.14,1.754c-.06.666,0,2.749,0,2.749l.3,6.247a7.1,7.1,0,0,0-.3,2.02c.06.8,1.221,12.184,1.221,12.184s2.02,6.8,1.331,7.285S436.4,705.333,436.4,705.333Z" transform="translate(-295.097 -462.162)" fill="url(#linear-gradient)"/>
    <path id="Path_24585" data-name="Path 24585" d="M400.426,295.33a7.552,7.552,0,0,0-.206,2.772,11.4,11.4,0,0,1-12.121-.226A41.01,41.01,0,0,0,387.51,293S401.225,293.3,400.426,295.33Z" transform="translate(-273.947 -215.005)" opacity="0.1"/>
    <path id="Path_24586" data-name="Path 24586" d="M396.6,255.068a11.272,11.272,0,0,1-.559,3.531,11.388,11.388,0,0,1-22.211-3.258v-.273a11.388,11.388,0,1,1,22.775,0Z" transform="translate(-264.82 -182.099)" fill="#cf6f80"/>
    <path id="Path_24587" data-name="Path 24587" d="M395.7,328.741c-4.393-1.707-10.044-7.348-8.633-9.984a5.9,5.9,0,0,0,.549-2.117l6.014,4.942,3.721,3.052,2.829-7.2c.24,1.511.479,2.662.479,2.662s-.839,1.175-1.331,1.238S402,331.173,395.7,328.741Z" transform="translate(-273.505 -230.778)" opacity="0.1"/>
    <path id="Path_24588" data-name="Path 24588" d="M355.741,290.892l-5.022,84.365-6.55.429-16.96-48.919,2.782-58.077.586-12.27,7.541,6.193,3.724,3.052,2.912-7.411,5.415,4.719Z" transform="translate(-217.994 -171.087)" fill="url(#linear-gradient)"/>
    <path id="Path_24589" data-name="Path 24589" d="M366.327,660.286a9.257,9.257,0,0,0-.506,1.707,48.256,48.256,0,0,1-13.731-4.29l-.09-.047.03-.536.017-.28,1.664-3.1S367.126,658.333,366.327,660.286Z" transform="translate(-250.255 -455.69)" opacity="0.1"/>
    <path id="Path_24590" data-name="Path 24590" d="M422.947,672.3a33.691,33.691,0,0,1-3.681.419c-.073-1.664-.116-2.809-.116-2.809l3.7-.745Z" transform="translate(-295.057 -465.979)" opacity="0.1"/>
    <path id="Path_24591" data-name="Path 24591" d="M441.038,666.515a25.832,25.832,0,0,1-9.292.875l-.047-2.11,8.926-1.791S440.872,665.137,441.038,666.515Z" transform="translate(-303.431 -462.196)" opacity="0.1"/>
    <path id="Path_24592" data-name="Path 24592" d="M345.151,435.267c-13.645,2.33-26.142-4.35-26.142-4.35l.12-2.263s.31-25.656-.549-27.623-1.528-11.941-1.042-13.472-1.774-24.488-1.774-24.488l-.366-9.318L302,348.326l5.99-12.487a45.055,45.055,0,0,0,2.083-5.391c1.042-3.241,5.877-6.426,5.877-6.426s4.959-3.182,6.919-3.062,4.529-2.815,4.529-2.815c1.9-4.836,3.614-2.646,3.614-2.646a4.319,4.319,0,0,1-.093.716c-.666,5.308,10.763,22.081,10.926,22.378h0l1.088,26.511,1.1,33.55Z" transform="translate(-216.895 -229.686)" opacity="0.1"/>
    <path id="Path_24593" data-name="Path 24593" d="M344.031,435.227c-13.645,2.33-26.145-4.35-26.145-4.35l.123-2.263s.31-25.656-.552-27.623-1.528-11.941-1.038-13.472-1.774-24.488-1.774-24.488l-.369-9.318-13.405-5.448,5.99-12.487a45.763,45.763,0,0,0,2.083-5.391c1.038-3.241,5.877-6.426,5.877-6.426s4.959-3.182,6.916-3.062,4.529-2.815,4.529-2.815c1.9-4.836,3.994-2.646,3.994-2.646,0,.23-.2.333-.093.716,1.464,5.148,10.4,22.081,10.56,22.378h0l1.1,26.511,1.1,33.55Z" transform="translate(-216.141 -229.646)" fill="#fff"/>
    <path id="Path_24594" data-name="Path 24594" d="M394.31,340.832c-1.468-.612-9.242-9.488-9.242-9.488v-2.02c-.283-.666-1.964-.26-3.328.206l.586-12.27.666.552C384.449,322.958,394.14,340.536,394.31,340.832Z" transform="translate(-270.098 -231.192)" opacity="0.1"/>
    <path id="Path_24595" data-name="Path 24595" d="M395.413,338.622c-1.471-.612-9.245-9.488-9.245-9.488v-2.02c-.283-.666-1.964-.26-3.328.206l.589-12.27.666.552C385.556,320.748,395.25,338.329,395.413,338.622Z" transform="translate(-270.831 -229.717)" fill="#fff"/>
    <path id="Path_24596" data-name="Path 24596" d="M351.609,516.928c.183,0,9.488-.978,9.488-.978s5.634,11.079,5.265,13.775-1.038,5.082-3.3,4.659-12.2.333-12.2.333Z" transform="translate(-249.494 -363.757)" opacity="0.1"/>
    <path id="Path_24597" data-name="Path 24597" d="M350.5,514.718c.183,0,9.488-.978,9.488-.978s5.631,11.082,5.265,13.775-1.042,5.082-3.3,4.659-12.2.333-12.2.333Z" transform="translate(-248.754 -362.283)" fill="#fff"/>
    <path id="Path_24598" data-name="Path 24598" d="M362.869,501.05s8.54,4.589,8.723,5.99-4.346-.612-5.325-.855a12.188,12.188,0,0,0-1.96-.306l-6.526.176Z" transform="translate(-254.111 -353.816)" fill="#cf6f80"/>
    <circle id="Ellipse_526" data-name="Ellipse 526" cx="0.899" cy="0.899" r="0.899" transform="translate(120.931 108.416)" opacity="0.1"/>
    <circle id="Ellipse_527" data-name="Ellipse 527" cx="0.899" cy="0.899" r="0.899" transform="translate(120.931 108.05)" fill="#3f3d56"/>
    <circle id="Ellipse_528" data-name="Ellipse 528" cx="0.899" cy="0.899" r="0.899" transform="translate(122.585 147.314)" opacity="0.1"/>
    <circle id="Ellipse_529" data-name="Ellipse 529" cx="0.899" cy="0.899" r="0.899" transform="translate(122.585 146.944)" fill="#3f3d56"/>
    <circle id="Ellipse_530" data-name="Ellipse 530" cx="0.899" cy="0.899" r="0.899" transform="translate(121.826 127.865)" opacity="0.1"/>
    <circle id="Ellipse_531" data-name="Ellipse 531" cx="0.899" cy="0.899" r="0.899" transform="translate(121.826 127.499)" fill="#3f3d56"/>
    <path id="Path_24599" data-name="Path 24599" d="M443.667,384.135s.612.919,0,1.348.06,1.468.06,1.468-1.528.9-.855,1.7.246,4.443.246,4.443l-1.837,3.042s.11,1.96.116,4.609c0,4.133-.243,9.944-1.587,12.593L440,435.073s-6.433,2.35-11.818,1.634l-.8-34.878s1.165-19.778,1.594-23.572a39.493,39.493,0,0,0,.306-5.941,66.374,66.374,0,0,0-.8-8.693s-.666-11.938-.732-15.242c-.03-1.581.053-6.193.146-10.58.1-4.8.22-9.318.22-9.318l-1.215-9.611s1.215-.123,1.581.366a3.5,3.5,0,0,0,.532.409h0c2.1,1.418,9.5,5.777,9.5,5.777s4.1,1.631,5.082,3.967a34.572,34.572,0,0,0,2.14,4.659c.476.666.735,3.794.735,3.794s1.411,5.757,2.513,6.733,1.907,7.179,1.907,7.179l-9.734,7.654s-.855,12.733-1.038,13.226S443.667,384.135,443.667,384.135Z" transform="translate(-300.228 -232.258)" fill="#fff"/>
    <path id="Path_24600" data-name="Path 24600" d="M443.989,383.922s.609.919,0,1.348.057,1.468.057,1.468-1.518.905-.852,1.711.246,4.443.246,4.443l-1.837,3.042s.11,1.96.12,4.609c0,4.133-.243,9.944-1.587,12.593l.183,21.735s-6.443,2.35-11.821,1.634l-.8-34.878s1.165-19.778,1.594-23.572a39.133,39.133,0,0,0,.3-5.941,66.779,66.779,0,0,0-.8-8.693s-.666-11.938-.736-15.242c-.03-1.581.057-6.193.146-10.58.1-4.8.22-9.318.22-9.318l-1.6-9.741s1.6,0,1.974.5a3.158,3.158,0,0,0,.533.409h0c2.1,1.418,9.508,5.777,9.508,5.777s4.1,1.631,5.079,3.967a34.024,34.024,0,0,0,2.143,4.659c.479.666.732,3.794.732,3.794s1.411,5.758,2.513,6.733,1.9,7.165,1.9,7.165l-9.734,7.654s-.855,12.733-1.042,13.226S443.989,383.922,443.989,383.922Z" transform="translate(-300.181 -232.046)" fill="#fff"/>
    <path id="Path_24601" data-name="Path 24601" d="M433.072,332.568l.879,2.563-4.626,4.659c.1-4.792.22-9.318.22-9.318l-1.6-9.741s1.6,0,1.974.5a3.037,3.037,0,0,0,.532.406h0l3.934,11.349Z" transform="translate(-300.922 -233.507)" opacity="0.1"/>
    <path id="Path_24602" data-name="Path 24602" d="M431.962,330.358l.882,2.563-4.626,4.659c.1-4.8.22-9.318.22-9.318l-1.607-9.741s1.607,0,1.974.5a3.333,3.333,0,0,0,.532.409h0l3.937,11.345Z" transform="translate(-300.181 -232.032)" fill="#fff"/>
    <path id="Path_24603" data-name="Path 24603" d="M396.6,255.068a11.272,11.272,0,0,1-.559,3.531.476.476,0,0,1-.359-.09,14.692,14.692,0,0,0-3.375-8.2,8.617,8.617,0,0,0-1.83-1.9,3.581,3.581,0,0,0-2.483-.7c-1,.136-1.88.815-2.889.9-1.331.11-2.523-.812-3.844-.859a3.777,3.777,0,0,0-2.825,1.311,7.751,7.751,0,0,0-1.514,2.809,16.433,16.433,0,0,0-.845,4.846c-.017.932-.107,2.1-.972,2.439a4.972,4.972,0,0,0-1.255-3.8l-.02-.02v-.273a11.388,11.388,0,1,1,22.775,0Z" transform="translate(-264.82 -182.099)" opacity="0.1"/>
    <path id="Path_24604" data-name="Path 24604" d="M382.958,222.075a7.841,7.841,0,0,0-5.531-.433c-.922.273-1.79.716-2.726.939-2,.483-4.326-.04-6.04,1.128a7.224,7.224,0,0,0-2.057,2.739l-1.331,2.536a16.457,16.457,0,0,0-1.761,4.326,5.524,5.524,0,0,0,.849,4.466c.706.9,1.747,1.458,2.513,2.3a4.992,4.992,0,0,1,1.251,3.794c.869-.333.952-1.5.972-2.436a16.434,16.434,0,0,1,.845-4.846,7.724,7.724,0,0,1,1.514-2.809,3.784,3.784,0,0,1,2.825-1.311c1.331.047,2.526.965,3.844.855,1-.083,1.884-.765,2.889-.9a3.568,3.568,0,0,1,2.483.7,8.527,8.527,0,0,1,1.827,1.9,14.653,14.653,0,0,1,3.378,8.2c.376.276.919-.083,1.1-.509a12.152,12.152,0,0,1,.429-1.331,4.909,4.909,0,0,1,1.2-1.072,4.71,4.71,0,0,0,1.258-3.771,18.786,18.786,0,0,1-.047-4.1c.156-.825.509-1.6.7-2.413a3.155,3.155,0,0,0-.24-2.433c-.666-1.032-2.067-1.235-3.288-1.331-1.388-.12-2.629.033-3.514-1.135a12.745,12.745,0,0,0-1.4-1.711C384.738,223.246,382.958,222.148,382.958,222.075Z" transform="translate(-257.847 -167.187)" fill="#512e4e"/>
    <path id="Path_24605" data-name="Path 24605" d="M304.339,421.56l-3.478-6.43-1.1,9.921a45.991,45.991,0,0,1,.489,5.082c-.123.676,2.509,6.733,2.509,6.733s8.7,15.489,12.247,16.287l12-8.573-3.182-4.04s-1.1-.429-1.378,0c0,0-5.907-10.164-6.52-10.9a3.671,3.671,0,0,1-.493-2.2s-.919-.978-.612-1.9-1.774-4.1-1.774-4.1l1.9-1.774Z" transform="translate(-215.401 -296.49)" opacity="0.1"/>
    <path id="Path_24606" data-name="Path 24606" d="M299.57,412.93l-.919.732-1.1,9.921a45.983,45.983,0,0,1,.489,5.082c-.123.676,2.513,6.733,2.513,6.733s8.693,15.489,12.244,16.287l12-8.573-3.185-4.04s-1.1-.429-1.378,0c0,0-5.907-10.164-6.52-10.9a3.659,3.659,0,0,1-.489-2.2s-.919-.978-.612-1.9-1.777-4.1-1.777-4.1l1.9-1.774Z" transform="translate(-213.926 -295.022)" fill="#fff"/>
    <path id="Path_24607" data-name="Path 24607" d="M460.971,517.827c.666.809.246,4.44.246,4.44l-1.837,3.042s.11,1.964.117,4.609l-3.088.965a1.834,1.834,0,0,1-2.38-1.807l.532-17.176,7.205,2.756c-.612.426.06,1.471.06,1.471S460.3,517.019,460.971,517.827Z" transform="translate(-318.327 -361.055)" opacity="0.1"/>
    <path id="Path_24608" data-name="Path 24608" d="M462.074,516.724c.666.809.246,4.443.246,4.443l-1.837,3.042s.11,1.96.12,4.609l-3.145.982a1.8,1.8,0,0,1-2.33-1.771l.536-17.229,7.208,2.756c-.616.426.057,1.468.057,1.468S461.408,515.918,462.074,516.724Z" transform="translate(-319.062 -360.321)" fill="#fff"/>
    <path id="Path_24609" data-name="Path 24609" d="M471.614,498.628s-.489,3.125-1.714,3.308-1.774,5.055-3,4.882-.413-4.529-.369-5.375-1.331-4.346-.3-5.142,4.283,0,4.283,0Z" transform="translate(-326.216 -350.412)" fill="#cf6f80"/>
    <path id="Path_24610" data-name="Path 24610" d="M471.7,422.349l2.31-4.659a30.247,30.247,0,0,1,.919,5.448c0,1.9,1.285,2.083,1.285,2.083s1.408,1.664.666,2.875a13.957,13.957,0,0,0-1.042,4.227s.243,5.754-.859,6.55a4.457,4.457,0,0,0-1.331,2.7s-2.023,3.611-1.96,4.47-2.815,6.673-2.815,6.673,1.408-7.225-6.8-10.347c0,0-.063-2.453.549-3.125s1.568-.978.968-4.376a39.687,39.687,0,0,1-.173-8.273,52.1,52.1,0,0,1,1.837-5.9Z" transform="translate(-323.696 -298.198)" opacity="0.1"/>
    <path id="Path_24611" data-name="Path 24611" d="M474.094,415.69l2.017.666a30.149,30.149,0,0,1,.922,5.448c0,1.9,1.285,2.083,1.285,2.083s1.408,1.664.666,2.875a13.921,13.921,0,0,0-1.038,4.227s.243,5.754-.859,6.549a4.518,4.518,0,0,0-1.348,2.7s-2.02,3.611-1.957,4.47-2.819,6.673-2.819,6.673,1.411-7.225-6.8-10.347c0,0-.06-2.453.552-3.125s1.568-.978.968-4.376a39.687,39.687,0,0,1-.173-8.273,52.1,52.1,0,0,1,1.837-5.9Z" transform="translate(-325.091 -296.864)" fill="#fff"/>
    <path id="Path_24612" data-name="Path 24612" d="M360.15,776.381s3.215-2.02,5.325-.552S360.15,776.381,360.15,776.381Z" transform="translate(-255.693 -536.791)" opacity="0.1"/>
    <path id="Path_24613" data-name="Path 24613" d="M435.21,759.754a6.508,6.508,0,0,1,5.235,2.206C442.834,764.533,435.21,759.754,435.21,759.754Z" transform="translate(-305.773 -526.411)" opacity="0.1"/>
    <g id="Group_61007" data-name="Group 61007" transform="translate(105.534 61.454)" opacity="0.1">
      <path id="Path_24614" data-name="Path 24614" d="M400.989,260.342a4.937,4.937,0,0,0-1.208,1.075,12.175,12.175,0,0,0-.426,1.331c-.186.433-.729.785-1.1.513a14.716,14.716,0,0,0-3.378-8.2,8.526,8.526,0,0,0-1.827-1.9,3.578,3.578,0,0,0-2.486-.7c-1,.136-1.877.815-2.885.9-1.331.113-2.526-.809-3.847-.855A3.767,3.767,0,0,0,381,253.816a7.707,7.707,0,0,0-1.514,2.806,16.453,16.453,0,0,0-.845,4.846c-.02.929-.106,2.087-.965,2.433a4.559,4.559,0,0,1,0,.739c.865-.333.952-1.5.972-2.436a16.434,16.434,0,0,1,.845-4.846,7.724,7.724,0,0,1,1.514-2.809,3.777,3.777,0,0,1,2.822-1.311c1.331.047,2.529.965,3.847.855,1-.083,1.884-.765,2.885-.9a3.578,3.578,0,0,1,2.486.7,8.527,8.527,0,0,1,1.827,1.9,14.676,14.676,0,0,1,3.378,8.2c.376.276.919-.083,1.1-.509a12.908,12.908,0,0,1,.426-1.331A4.926,4.926,0,0,1,401,261.081a4.71,4.71,0,0,0,1.258-3.771v-.126A4.369,4.369,0,0,1,400.989,260.342Z" transform="translate(-372.922 -249.4)"/>
      <path id="Path_24615" data-name="Path 24615" d="M366.884,265.4c-.765-.842-1.81-1.4-2.513-2.3a4.872,4.872,0,0,1-.968-2.726,5.125,5.125,0,0,0,.968,3.458c.7.9,1.747,1.458,2.513,2.3a4.992,4.992,0,0,1,1.255,2.969A4.992,4.992,0,0,0,366.884,265.4Z" transform="translate(-363.385 -254.696)"/>
      <path id="Path_24616" data-name="Path 24616" d="M451.832,243.959c-.2.815-.546,1.591-.706,2.413a7.684,7.684,0,0,0-.1,1.664,6.458,6.458,0,0,1,.1-.945c.16-.825.509-1.6.706-2.413a4.094,4.094,0,0,0,.11-1.378A4.625,4.625,0,0,1,451.832,243.959Z" transform="translate(-421.851 -243.3)"/>
    </g>
    <ellipse id="Ellipse_532" data-name="Ellipse 532" cx="32.428" cy="5.208" rx="32.428" ry="5.208" transform="translate(12.065 242.705)" fill="#6c63ff" opacity="0.1"/>
    <rect id="Rectangle_1452" data-name="Rectangle 1452" width="2.087" height="46.982" transform="translate(43.451 148.139)" fill="#fff"/>
    <path id="Path_24617" data-name="Path 24617" d="M165.755,638.118l-.13,2.117-.186,3-.077,1.245-.183,3-.08,1.245-.186,3-2.1,33.969a5.757,5.757,0,0,1-5.744,5.4H146.13a5.754,5.754,0,0,1-5.741-5.4L138.3,651.687l-.186-3-.077-1.245-.186-3-.077-1.245-.186-3-.133-2.117a3,3,0,0,1,3-3.165h22.368a2.975,2.975,0,0,1,2.942,3.188Z" transform="translate(-107.105 -443.141)" fill="#3f3d56"/>
    <path id="Path_24618" data-name="Path 24618" d="M118.635,592.24l-.186,2.985H90.766l-.186-2.985Z" transform="translate(-60.115 -395.146)" fill="#9d9cb5"/>
    <path id="Path_24619" data-name="Path 24619" d="M118.9,604.95l-.183,2.989H91.556l-.186-2.989Z" transform="translate(-60.642 -403.626)" fill="#9d9cb5"/>
    <path id="Path_24620" data-name="Path 24620" d="M119.164,617.68l-.183,2.985H92.346l-.186-2.985Z" transform="translate(-61.169 -412.119)" fill="#9d9cb5"/>
    <path id="Path_24621" data-name="Path 24621" d="M74.541,538.052C86.691,546.844,91.763,560.6,91.763,560.6s-14.643-.5-26.8-9.3S47.75,528.76,47.75,528.76,62.387,529.259,74.541,538.052Z" transform="translate(-47.26 -372.304)" fill="url(#linear-gradient)"/>
    <path id="Path_24622" data-name="Path 24622" d="M47.72,528.76s13.36,7.273,17.644,13.3,21.043,14.151,21.043,14.151" transform="translate(-41.904 -367.915)" fill="none" stroke="#fff" stroke-linecap="round" stroke-miterlimit="10" stroke-width="2"/>
    <path id="Path_24623" data-name="Path 24623" d="M122.583,493.319a29.548,29.548,0,0,1,9.378,12.267A26.784,26.784,0,0,1,108,488.26,29.466,29.466,0,0,1,122.583,493.319Z" transform="translate(-87.459 -345.283)" fill="url(#linear-gradient)"/>
    <path id="Path_24624" data-name="Path 24624" d="M108,488.26s6.271,3.375,8.281,6.167,9.88,6.564,9.88,6.564" transform="translate(-81.658 -340.688)" fill="none" stroke="#fff" stroke-linecap="round" stroke-miterlimit="10" stroke-width="2"/>
    <path id="Path_24625" data-name="Path 24625" d="M190.4,517.162c-7.6,8.35-9.205,19.263-9.205,19.263s10.713-2.629,18.3-10.982S208.7,506.18,208.7,506.18,197.993,508.812,190.4,517.162Z" transform="translate(-136.291 -357.239)" fill="url(#linear-gradient)"/>
    <path id="Path_24626" data-name="Path 24626" d="M204.133,506.19s-8.253,7.139-10.351,12.058-12.593,13.165-12.593,13.165" transform="translate(-136.291 -352.226)" fill="none" stroke="#fff" stroke-linecap="round" stroke-miterlimit="10" stroke-width="2"/>
    <path id="Path_24627" data-name="Path 24627" d="M897.164,352.436S891.67,325.1,893.773,321.7c0,0,.077-3.162-.05-7.192v-.463a10.242,10.242,0,0,0,1.155.666,9.345,9.345,0,0,0,6.29.812l-1.664-1.854a3.072,3.072,0,0,1-.9-1.508,3.159,3.159,0,0,1,.359-1.631c1.581-3.994,1.664-9.016-1.381-12.064-2.573-2.563-3.2-5.871-5.99-8.21-2.04-1.714-3.162-4.227-4.22-6.656a37.438,37.438,0,0,1-2.31-6.3c-.4-1.7-.559-3.461-1.108-5.122a6.519,6.519,0,0,0-3.185-4.017,12.018,12.018,0,0,1-1.731-.762,7.474,7.474,0,0,1-1.594-1.874c-2.519-3.328-10.956-1.368-14.949-.017a8.41,8.41,0,0,0-2.955,1.637l.037-.06c.03-.05.067-.1.1-.15a5.25,5.25,0,0,0-1.118,1.248,29.915,29.915,0,0,0-1.311,3c-.586,1.181-3.844,4.48-2.443,5.807a1.182,1.182,0,0,0,.333.213,2.879,2.879,0,0,0,1.664.166l-.06.143a9.726,9.726,0,0,0-.722,3.691,9.989,9.989,0,0,0,10.077,9.9,10.174,10.174,0,0,0,3.085-.476c.023.126.043.253.067.379a1.155,1.155,0,0,0,.023.15h0l-.176.246a.342.342,0,0,0-.03-.043l-5.225,7.3c-.8.562-5.4,3.89-5.658,6.386-.273,2.732-.546,5.931-.546,5.931l-.037.686a2.057,2.057,0,0,1-1.664.449c-1.631-.266-1.631,5.99-1.631,5.99s-1.085,1-1.83.133-2.716,2.067-2.716,2.067l-12.347.533h0l-.283.017-.666-2.06a.869.869,0,0,0-1.088-.556,1,1,0,0,0-.15.063l-.047.027-.087.06-.043.04a.667.667,0,0,0-.067.07l-.04.047-.02.02h0a.839.839,0,0,0-.12.745l.572,1.767c-2.383.479-4.819,1.83-2.832,5.551l-10.071-1.86,3.258,2.736,16.82,3.471c-.223.4-.077.978.619,1.794,3,3.518,8.453,4.473,10.65,4.719a18.907,18.907,0,0,0,2.16,3.661l-.19,3.5s-5.561,26.711-6.579,28.065a15.827,15.827,0,0,0,1.408-1.854c-1.614,5.488-3.87,13-4.463,14.124-.952,1.8-1.834,9.069-.749,9.535a9.131,9.131,0,0,0,2.642-.03v.6l-.06,22.827s.273,14-.476,15.336a13.052,13.052,0,0,0-.948,4.133s-3,5.521-5.368,7.741a.355.355,0,0,1-.053.047l-.073-.519s-2.852,3.6-9.162,3.4c0,0-3.8,2.469,1.834,2.6s12.823-.2,12.823-.2,5.022-7.654,9.229-6.656v5.8h1.288v-5.894a5.282,5.282,0,0,0,2.293-3.471,4.22,4.22,0,0,0-1.5-3.9,2.5,2.5,0,0,1-.822-1.824l-.047.04a3.52,3.52,0,0,0-.043-.359c-.369-3-.832-9.175.8-13.748,2.24-6.27,2.919-15,1.288-20.2a46.448,46.448,0,0,1-1.295-5.062c-.04-.216-.077-.423-.11-.616a26.241,26.241,0,0,1,3.3.666c3.777,1.042,12.041,1.235,19.1,1.178.017.193.037.4.06.6a21.8,21.8,0,0,0,.785,4.167c.885,2.662,1.291,14.4,1.291,14.4s1.142,9.651.519,13.578c-.333,2.183-.666,4.376-.855,6.579v.043s-1.87,5.325-3.238,8.217c-.033.073-.07.146-.1.216a4.326,4.326,0,0,0-1.068.236s-1.834,3.661-3.661,4.267-1.221,2.6,2.915,1.867,10.383-1.331,10.383-1.331l.27-3.734,1.271-1.591-.333,3.724,1.355-.266-.18-4.529,2.08-2.6s2.513-2.236-1.221-6.636v.1c-.04-.063-.077-.13-.12-.193v-.02c-.619-.958-1.112-2.746-.21-5.917,1.631-5.731,2.579-10.933,2.579-10.933s3.641-13.934-.735-20.527h.193a11.088,11.088,0,0,1-.942-2.929q-.033-.18-.06-.369a24.013,24.013,0,0,0,9.009-2.037C900.016,390.768,898.455,357.7,897.164,352.436Zm-41.111-23.063v.067l-.666.033Zm-2.283.316a.736.736,0,0,0-.3.143,2.955,2.955,0,0,0-.522,1.368l-1.038-.233s-.729-.156-1.777-.333l-.5-.5C851,330.022,852.419,329.856,853.77,329.689Z" transform="translate(-564.152 -195.451)" fill="url(#linear-gradient-9)"/>
    <path id="Path_24628" data-name="Path 24628" d="M971.716,742.2l-.4,4.716,1.328-.266-.2-5.115Z" transform="translate(-647.743 -494.752)" fill="#fff"/>
    <path id="Path_24629" data-name="Path 24629" d="M892.42,678.282c-1.6,4.559-1.148,10.713-.789,13.7.133,1.1.256,1.777.256,1.777s-2.393,5.451-2.593,5.658-7.042,4.383-7.042,4.383l-4.782,2.792s-4.852-2.127-2.526-2.859a3.532,3.532,0,0,0,1.255-.855c2.33-2.213,5.255-7.714,5.255-7.714a13.267,13.267,0,0,1,.932-4.12c.732-1.328.466-15.282.466-15.282l.057-22.747V650.05l9.1.067a20.583,20.583,0,0,0,.393,3,45.773,45.773,0,0,0,1.268,5.045C895.275,663.345,894.61,672.035,892.42,678.282Z" transform="translate(-598.741 -453.229)" fill="#ffb0b1"/>
    <path id="Path_24630" data-name="Path 24630" d="M891.887,777.84s-2.393,5.451-2.593,5.658-7.042,4.383-7.042,4.383l-4.782,2.792s-4.852-2.127-2.526-2.859a3.532,3.532,0,0,0,1.255-.855l.206,1.454,1.594-.067,13.645-12.277C891.764,777.168,891.887,777.84,891.887,777.84Z" transform="translate(-598.741 -537.309)" opacity="0.1"/>
    <path id="Path_24631" data-name="Path 24631" d="M874.773,777l-13.721,12.36-1.594.067-.333-2.33s-2.789,3.588-8.986,3.388c0,0-3.721,2.459,1.794,2.593s12.557-.2,12.557-.2,4.919-7.654,9.036-6.656V792h1.265v-5.834a5.255,5.255,0,0,0,2.243-3.461,4.24,4.24,0,0,0-1.468-3.887,2.506,2.506,0,0,1-.792-1.82Z" transform="translate(-581.794 -537.929)" fill="#fff"/>
    <path id="Path_24632" data-name="Path 24632" d="M998.774,684.893c-.885,3.162-.4,4.942.2,5.9v.02a10.9,10.9,0,0,1,1.591,3.884l.053.3-6.243,9.1-3.388,1.331s-5.448-1.86-4.453-2.393a5.1,5.1,0,0,0,1.085-1.777c1.331-2.879,3.168-8.19,3.168-8.19v-.043c.193-2.193.5-4.38.839-6.556.609-3.917-.509-13.532-.509-13.532s-.4-11.691-1.265-14.35a21.943,21.943,0,0,1-.775-4.14c-.18-1.664-.22-3.035-.22-3.035s3.588-4.992,10.164.4a7.235,7.235,0,0,1,1.375,1.491c4.543,6.463.885,20.7.885,20.7S1000.368,679.179,998.774,684.893Z" transform="translate(-673.536 -452.732)" fill="#ffb0b1"/>
    <path id="Path_24633" data-name="Path 24633" d="M1000.651,778l-6.243,9.1-3.388,1.331s-5.448-1.86-4.453-2.393a5.1,5.1,0,0,0,1.085-1.777,4.306,4.306,0,0,1,3.5,2.177l2.922-.466s3.854-7.575,4.719-8.037.133-3.458.133-3.458v-.762c.023.027.043.057.07.083v.02a10.9,10.9,0,0,1,1.591,3.884Z" transform="translate(-673.556 -535.741)" opacity="0.1"/>
    <path id="Path_24634" data-name="Path 24634" d="M982.348,787.026s-1.664-3.055-4.852-1.927c0,0-1.794,3.661-3.588,4.253s-1.195,2.589,2.859,1.86,10.164-1.331,10.164-1.331l.266-3.724,4.12-5.248s2.456-2.227-1.2-6.609v.762s.732,3-.133,3.458-4.706,8.04-4.706,8.04Z" transform="translate(-664.551 -536.128)" fill="#fff"/>
    <path id="Path_24635" data-name="Path 24635" d="M909.252,650.1a20.591,20.591,0,0,0,.393,3,41.751,41.751,0,0,0-9.5-.1V650.03Z" transform="translate(-615.973 -453.215)" opacity="0.1"/>
    <path id="Path_24636" data-name="Path 24636" d="M1005.694,654.122s-5.325.26-11.675.313c-.18-1.664-.22-3.035-.22-3.035s3.588-4.992,10.164.4a7.238,7.238,0,0,1,1.375,1.491,8.109,8.109,0,0,0,.356.832Z" transform="translate(-678.463 -452.725)" opacity="0.1"/>
    <path id="Path_24637" data-name="Path 24637" d="M937.046,536.654s-23.323,1.128-30.431-.865-14.154-.266-15.216-.729-.2-7.708.732-9.5,6.044-19.935,6.044-19.935l4.919-25.646,5.182-1.428.366-.1,9.029-2.489,6.616-1.827s13.156,51.361,12.027,55.149a9.7,9.7,0,0,0-.193,4.456A11.122,11.122,0,0,0,937.046,536.654Z" transform="translate(-609.815 -335.855)" fill="url(#linear-gradient)"/>
    <path id="Path_24638" data-name="Path 24638" d="M871.085,439s-4.659,4.992-1.131,7.774,5.847.266,5.847.266Z" transform="translate(-594.952 -312.416)" fill="#c7daf5"/>
    <path id="Path_24639" data-name="Path 24639" d="M871.085,439s-4.659,4.992-1.131,7.774,5.847.266,5.847.266Z" transform="translate(-594.952 -312.416)" opacity="0.1"/>
    <path id="Path_24640" data-name="Path 24640" d="M969.127,322.138s-.546.519-1.368,1.285c-1.172,1.095-2.905,2.7-4.443,4.037-2.13,1.854-3.887,3.215-3.258,2.053s.509-3.185.2-5.079c-.023-.126-.043-.253-.067-.376a34.873,34.873,0,0,0-1.028-4.113,71.163,71.163,0,0,1,5.345-6.2c.709-.666,1.2-.939,1.235-.476a15.461,15.461,0,0,0,1.078,3.454c.017.047.033.09.053.136.386,1,.822,2.023,1.2,2.909C968.662,321.126,969.127,322.138,969.127,322.138Z" transform="translate(-655.351 -228.375)" fill="#ffb0b1"/>
    <path id="Path_24641" data-name="Path 24641" d="M966.871,316.867a9.878,9.878,0,0,1-6.616,7.575,34.625,34.625,0,0,0-1.095-4.49s6.48-8.37,6.58-6.676A15.83,15.83,0,0,0,966.871,316.867Z" transform="translate(-655.351 -228.383)" opacity="0.1"/>
    <path id="Path_24642" data-name="Path 24642" d="M935.53,351.631l.839-1.181s.556,3.388,2.6,1.894,2.143,11.245,2.143,11.245l-2.193,32.791-15.848-.948.449-15.845,1.794-7.987,4.436-11.611,2.639-3.837Z" transform="translate(-631.272 -253.336)" opacity="0.1"/>
    <path id="Path_24643" data-name="Path 24643" d="M941.131,364.166l-2,29.649-.21,3.142-8.836-.529-.333-.02-6.656-.4.449-15.848,1.794-7.987,4.436-11.611,2.639-3.837,3.142-4.536.839-1.178s.556,3.388,2.6,1.894l.043-.03h0C941.038,351.609,941.131,364.166,941.131,364.166Z" transform="translate(-631.292 -253.71)" fill="url(#linear-gradient)"/>
    <path id="Path_24644" data-name="Path 24644" d="M889.337,406.26a2.425,2.425,0,0,1-2.393,1.394c-1.6-.27-1.594,5.99-1.594,5.99s-1.062,1-1.794.133-2.662,2.06-2.662,2.06l-12.094.533s5.381,2.459,4.326,9.9c0,0,18.271-1.132,18.87-2.859S889.337,406.26,889.337,406.26Z" transform="translate(-595.063 -290.572)" fill="#fff"/>
    <path id="Path_24645" data-name="Path 24645" d="M889.337,406.26a2.425,2.425,0,0,1-2.393,1.394c-1.6-.27-1.594,5.99-1.594,5.99s-1.062,1-1.794.133-2.662,2.06-2.662,2.06l-12.094.533s5.381,2.459,4.326,9.9c0,0,18.271-1.132,18.87-2.859S889.337,406.26,889.337,406.26Z" transform="translate(-595.063 -290.572)" opacity="0.03"/>
    <path id="Path_24646" data-name="Path 24646" d="M777.66,389.76l3.188,2.722L807.093,398l-3.255-3.321Z" transform="translate(-518.533 -260.051)" fill="#fff"/>
    <path id="Path_24647" data-name="Path 24647" d="M922.57,350.912a67.126,67.126,0,0,0-2.726,7.049c-.869,2.479-1.594,4.659-1.594,4.659s-1.694,11.029-2.559,13.023-.4,9.768-.4,9.768l-3.225,19.2s-1.461,9.9-3.717,15.815a28.8,28.8,0,0,1-4.782,8.636c1-1.351,6.44-27.955,6.44-27.955l1.8-33.553s.263-3.188.529-5.914,5.658-6.446,5.658-6.446l5.2-7.392C923.714,348.5,923.365,349.717,922.57,350.912Z" transform="translate(-618.261 -251.568)" fill="#fff"/>
    <path id="Path_24648" data-name="Path 24648" d="M895.753,471.965s-7.654-.333-11.362-4.786,8.57-1.777,8.57-1.777l3.192.732Z" transform="translate(-605 -329.5)" fill="#ffb0b1"/>
    <path id="Path_24649" data-name="Path 24649" d="M971.129,450.755a9.7,9.7,0,0,0-.193,4.456,63.436,63.436,0,0,1-17.282-1.664,38.824,38.824,0,0,1-6.047,3.787l-2.39-29.619c-1.528-3.994-2.127-24.917-2.127-24.917s.136-1.095.333-2.736a.315.315,0,0,1,.017-.123c.6-4.583,1.777-13.186,2.356-14.347.8-1.6-2.456-5.847-2.456-5.847l1.481-12.63.18-1.524c3.122-1.394,5.515-5.847,5.515-5.847l1.837-3.218h0c2-1.281,2.1,11.275,2.1,11.275l-2,29.649,6.616-1.827S972.257,446.968,971.129,450.755Z" transform="translate(-644.629 -257.329)" opacity="0.1"/>
    <path id="Path_24650" data-name="Path 24650" d="M980.5,436.9c-9.1,4.519-25.646.333-25.646.333a38.825,38.825,0,0,1-6.047,3.787L946.413,411.4c-1.524-3.994-2.123-24.917-2.123-24.917s1.924-15.612,2.722-17.206a2.564,2.564,0,0,0-.156-1.9,24.088,24.088,0,0,1-1.458-11.146l.639-5.428.176-1.521c3.125-1.4,5.518-5.851,5.518-5.851l1.664-2.915,3.062-5.371,1.451-2.543.246.223,1.88,1.7,2,1.664c2.606,2.2,7.109,6.064,9.432,8.43,2.043,2.083,2.689,10.187,2.875,16.287.123,4.017.05,7.165.05,7.165-2.06,3.391,3.328,30.618,3.328,30.618C978.971,403.953,980.5,436.9,980.5,436.9Z" transform="translate(-645.43 -241.426)" fill="#fff"/>
    <path id="Path_24651" data-name="Path 24651" d="M944.44,364s-6.247,11.891-5.521,16.41,2.789,9.635,1.794,10.829a3.677,3.677,0,0,1-2.925,1.461,9.617,9.617,0,0,0-3.661,2.127c0,.2-2.459.2-4.659,1.132a29.01,29.01,0,0,1-5.448,1.461s-6.323-.2-6.912.4-1.195,4.183.067,7.042,2.662,4.992,3.721,5.381,7.774-1.86,13.222-2.393S945.479,403,945.479,403s6.513-2.33,7.654-6.247-1.394-25.446-1.394-25.446S949.822,361.273,944.44,364Z" transform="translate(-626.843 -262.063)" opacity="0.03"/>
    <path id="Path_24652" data-name="Path 24652" d="M942.06,361s-6.247,11.894-5.515,16.41,2.789,9.635,1.79,10.833a3.661,3.661,0,0,1-2.922,1.461,9.617,9.617,0,0,0-3.661,2.127c0,.2-2.459.2-4.659,1.128a29.3,29.3,0,0,1-5.448,1.461s-6.323-.2-6.909.4-1.2,4.187.067,7.042,2.662,4.992,3.721,5.381,7.774-1.86,13.222-2.39S943.108,400,943.108,400s6.51-2.33,7.638-6.243-1.394-25.449-1.394-25.449S947.441,358.278,942.06,361Z" transform="translate(-625.261 -260.063)" opacity="0.03"/>
    <path id="Path_24653" data-name="Path 24653" d="M943.864,362.208s-6.247,11.894-5.515,16.41,2.789,9.635,1.794,10.829a3.661,3.661,0,0,1-2.925,1.464,9.661,9.661,0,0,0-3.661,2.123c0,.2-2.456.2-4.659,1.132a29.078,29.078,0,0,1-5.448,1.461s-6.323-.2-6.912.4-1.195,4.187.067,7.042,2.662,4.992,3.721,5.381,7.774-1.86,13.222-2.393,11.362-4.849,11.362-4.849,6.513-2.33,7.654-6.247-1.378-25.446-1.378-25.446S949.242,359.5,943.864,362.208Z" transform="translate(-626.463 -260.871)" fill="#fff"/>
    <path id="Path_24654" data-name="Path 24654" d="M992.329,458.4s-4.992-1-3.255.666,1.727,3.122,3.854,3.055S992.329,458.4,992.329,458.4Z" transform="translate(-675.065 -325.165)" opacity="0.1"/>
    <path id="Path_24655" data-name="Path 24655" d="M1023.758,566.58s-2.256,1.528,2.06,5.049S1023.758,566.58,1023.758,566.58Z" transform="translate(-698.057 -397.538)" opacity="0.1"/>
    <path id="Path_24656" data-name="Path 24656" d="M1011.806,604.31c0,.2-.8,7.322,2.19,9.1S1011.806,604.31,1011.806,604.31Z" transform="translate(-690.411 -422.711)" opacity="0.1"/>
    <path id="Path_24657" data-name="Path 24657" d="M858.048,436.59c-2.409.083-7.615.819-4.915,5.854,2.386,4.456,6.4,1.478,8.653-.782A8.5,8.5,0,0,0,858.048,436.59Z" transform="translate(-584.105 -310.808)" fill="#ffb0b1"/>
    <path id="Path_24658" data-name="Path 24658" d="M881.39,451Z" transform="translate(-603.463 -320.423)" fill="#ffb0b1"/>
    <path id="Path_24659" data-name="Path 24659" d="M880.74,451.5l.1-.1Z" transform="translate(-603.029 -320.69)" fill="#ffb0b1"/>
    <path id="Path_24660" data-name="Path 24660" d="M965.534,336.788c-2.556,1.747-4.7,3.221-5.119,3.528-1.145.849-3.328,5.831-4.736,8.373-1.122,2.047-4.766,2.573-6.14,2.7l.176-1.521c3.125-1.4,5.518-5.851,5.518-5.851l6.177-10.829,2.127,1.934Z" transform="translate(-648.932 -241.82)" opacity="0.1"/>
    <path id="Path_24661" data-name="Path 24661" d="M965.534,336.188c-2.556,1.747-4.7,3.222-5.119,3.531-1.145.845-3.328,5.827-4.736,8.37-1.122,2.047-4.766,2.573-6.14,2.7l.176-1.521c3.125-1.4,5.518-5.851,5.518-5.851l6.177-10.829,2.127,1.927S964.336,335.176,965.534,336.188Z" transform="translate(-648.932 -241.42)" fill="#dce7ff"/>
    <path id="Path_24662" data-name="Path 24662" d="M943.239,298.133a9.871,9.871,0,1,1-8.391-9.758,9.854,9.854,0,0,1,8.391,9.758Z" transform="translate(-631.556 -211.845)" fill="#ffb0b1"/>
    <path id="Path_24663" data-name="Path 24663" d="M961.9,331.329a8.774,8.774,0,0,1-3.185-3.421c-.556-1.1-.925-2.366-1.874-3.145a8.322,8.322,0,0,0-3.062-1.181c-3.5-1.035-6.436-4.23-6.546-7.877-.053-1.717.483-3.431.24-5.132a5.684,5.684,0,0,0-1.112-2.646,9.11,9.11,0,0,0-.962-1.035c-.466-.439-.955-.865-1.381-1.331a5.17,5.17,0,0,1-.7-.949,4.557,4.557,0,0,1-.383-.882c-.666-2.037-.06-4.453-.792-6.513l-.04-.113a2.119,2.119,0,0,0-1.621-1.521c-.782-.057-1.451.592-2.2.882-1.561.606-3.245-.426-4.546-1.478s-2.769-2.253-4.423-2.02a14.287,14.287,0,0,0-2.969,1.288,4.161,4.161,0,0,1-.7.2,9.87,9.87,0,0,1,18.81,5.738c.017.047.033.09.053.136.386,1,.822,2.023,1.2,2.909l1.88,1.7,2,1.664c2.606,2.2,7.109,6.064,9.432,8.43C961.07,317.129,961.709,325.229,961.9,331.329Z" transform="translate(-632.993 -211.844)" opacity="0.1"/>
    <path id="Path_24664" data-name="Path 24664" d="M921.934,272.99c.476-.968.712-2.053,1.281-2.972a7.081,7.081,0,0,1,3.791-2.7c3.91-1.348,12.174-3.3,14.643,0a7.2,7.2,0,0,0,1.561,1.864,11.585,11.585,0,0,0,1.694.762,6.474,6.474,0,0,1,3.115,3.994c.536,1.644.7,3.408,1.088,5.1a37.521,37.521,0,0,0,2.263,6.28c1.035,2.416,2.133,4.922,4.13,6.629,2.726,2.33,3.328,5.628,5.857,8.184,3,3.035,2.9,8.044,1.354,12.021a3.3,3.3,0,0,0-.353,1.624,3.185,3.185,0,0,0,.882,1.5l1.637,1.847a9.207,9.207,0,0,1-10.061-4.639,9,9,0,0,0-1.877-3.145,8.3,8.3,0,0,0-3.058-1.178c-3.5-1.038-6.436-4.237-6.546-7.884-.053-1.714.483-3.428.24-5.125a5.658,5.658,0,0,0-1.115-2.662c-.915-1.195-2.3-2-3.042-3.328-1.261-2.226-.3-5.118-1.211-7.508a2.123,2.123,0,0,0-1.621-1.521c-.782-.057-1.451.592-2.2.882-1.557.606-3.241-.423-4.543-1.478s-2.769-2.253-4.426-2.017a13.915,13.915,0,0,0-2.965,1.288c-.745.286-2.256.542-2.909-.087C918.167,277.46,921.358,274.175,921.934,272.99Z" transform="translate(-628.691 -196.659)" fill="#591d4b"/>
    <path id="Path_24665" data-name="Path 24665" d="M955.6,317.882c-.559-1.1-.925-2.363-1.877-3.142a8.3,8.3,0,0,0-3.062-1.181c-3.5-1.035-6.433-4.233-6.546-7.881-.053-1.714.483-3.431.243-5.128a5.691,5.691,0,0,0-1.115-2.646c-.919-1.195-2.3-2-3.042-3.328-1.261-2.223-.3-5.115-1.215-7.508a2.13,2.13,0,0,0-1.617-1.521c-.779-.06-1.454.6-2.2.885-1.557.606-3.245-.426-4.543-1.478s-2.772-2.253-4.426-2.02a14.184,14.184,0,0,0-2.965,1.288c-.745.286-2.26.546-2.912-.083-1.371-1.331,1.82-4.609,2.393-5.787A31.868,31.868,0,0,1,924,275.38c.03-.05.063-.1.1-.15A5.287,5.287,0,0,0,923,276.475a32.348,32.348,0,0,0-1.281,2.972c-.576,1.178-3.767,4.466-2.393,5.787.666.632,2.163.373,2.909.087a13.7,13.7,0,0,1,2.965-1.288c1.664-.236,3.128.965,4.426,2.017s3,2.083,4.546,1.478c.745-.29,1.4-.942,2.2-.882a2.119,2.119,0,0,1,1.621,1.521c.909,2.389-.05,5.282,1.211,7.508.745,1.308,2.127,2.127,3.042,3.328a5.658,5.658,0,0,1,1.115,2.662c.243,1.7-.293,3.411-.24,5.125.11,3.661,3.045,6.846,6.546,7.884a8.346,8.346,0,0,1,3.058,1.178A8.8,8.8,0,0,1,954.6,319a9.207,9.207,0,0,0,10.061,4.639l-.772-.872A9.307,9.307,0,0,1,955.6,317.882Z" transform="translate(-628.547 -203.149)" opacity="0.1"/>
    <path id="Path_24666" data-name="Path 24666" d="M950.866,351.445a67.147,67.147,0,0,0-2.726,7.049c-.975-.379-1.86-2.8-1.86-2.8l5.2-7.395C952.011,349.032,951.661,350.247,950.866,351.445Z" transform="translate(-646.757 -251.901)" opacity="0.1"/>
    <path id="Path_24667" data-name="Path 24667" d="M951.466,350.852a67.14,67.14,0,0,0-2.726,7.049c-.975-.376-1.86-2.8-1.86-2.8l5.2-7.392C952.611,348.439,952.261,349.657,951.466,350.852Z" transform="translate(-647.158 -251.508)" fill="#dce7ff"/>
    <path id="Path_24668" data-name="Path 24668" d="M863.981,438.869,861.1,429.78a.849.849,0,0,1,.552-1.068h0a.852.852,0,0,1,1.065.552l2.882,9.079-.286,1.9Z" transform="translate(-589.898 -305.526)" fill="#be8b87"/>
    <path id="Path_24669" data-name="Path 24669" d="M861.646,429.008h0a.852.852,0,0,1,1.068.552l2.882,9.079-.216,1.424.21.22.286-1.9-2.9-9.079a.852.852,0,0,0-1.065-.552h0a.852.852,0,0,0-.443.333A1.164,1.164,0,0,1,861.646,429.008Z" transform="translate(-590.172 -305.553)" fill="#fff" opacity="0.1"/>
    <path id="Path_24670" data-name="Path 24670" d="M822.6,399.653l1.617-.513-.236,1.557-.05.343-.473-.493Z" transform="translate(-548.517 -266.31)" fill="#efc8c4"/>
    <path id="Path_24671" data-name="Path 24671" d="M872.42,461.781a.332.332,0,0,1,.1-.087.146.146,0,0,1,.156,0,.414.414,0,0,1,.057.09.286.286,0,0,0,.206.136l-.05.333Z" transform="translate(-597.478 -327.543)" fill="#727a9c"/>
    <path id="Path_24672" data-name="Path 24672" d="M861.13,441.7s5.781-.033,4.42,2.426a5.2,5.2,0,0,1-3.488,2.756Z" transform="translate(-589.946 -314.218)" fill="#ffb0b1"/>
    <path id="Path_24673" data-name="Path 24673" d="M600.639,110.05h-.25a28.466,28.466,0,0,0-23.765,13.009,28.466,28.466,0,0,0-23.765-13.009h-.25a28.288,28.288,0,0,0-28.019,28.272c0,9.255,4.054,22.388,11.958,33.194,15.059,20.59,40.076,38.605,40.076,38.605s25.017-18.011,40.073-38.605c7.907-10.806,11.958-23.938,11.958-33.194a28.288,28.288,0,0,0-28.015-28.272ZM597.068,173.1a5.608,5.608,0,0,1-5.215-3.6h-5.937a1.877,1.877,0,0,1-1.767-1.278l-1.824-5.495-5.771,20.164a1.867,1.867,0,0,1-1.79,1.348h-.117a1.844,1.844,0,0,1-1.731-1.544l-5.947-35.77-4.346,21.166a1.854,1.854,0,0,1-1.8,1.408h-8.363a1.86,1.86,0,1,1,0-3.717h6.9l6.157-28.458a1.867,1.867,0,0,1,3.661.153l6.074,36.488,5.172-18.041a1.83,1.83,0,0,1,1.741-1.331h.037a1.857,1.857,0,0,1,1.764,1.278l3.3,9.921h4.519a5.578,5.578,0,1,1,5.3,7.322Z" transform="translate(-365.407 -92.942)" fill="url(#linear-gradient)"/>
  </g>
</svg>
