<svg id="Component_92_1" data-name="Component 92 – 1" xmlns="http://www.w3.org/2000/svg" width="36" height="36" viewBox="0 0 36 36">
  <g id="_90d72be193cdd24a145aa41017717338" data-name="90d72be193cdd24a145aa41017717338" transform="translate(0.492 0.5)">
    <path id="Path_24266" data-name="Path 24266" d="M30.59,17.72a1.25,1.25,0,0,1-1.25-1.25v-3.6A2.7,2.7,0,0,0,26.86,10H5.23a1.25,1.25,0,0,1,0-2.5H26.86a5.19,5.19,0,0,1,5,5.36v3.6a1.25,1.25,0,0,1-1.27,1.26Z" fill="#fff"/>
    <path id="Path_24267" data-name="Path 24267" d="M26.86,33.68H5.23a5.19,5.19,0,0,1-5-5.36V5.76a1.25,1.25,0,0,1,2.5,0V28.32a2.69,2.69,0,0,0,2.48,2.86H26.86a2.69,2.69,0,0,0,2.48-2.86V25.78a1.25,1.25,0,1,1,2.5,0v2.54A5.19,5.19,0,0,1,26.86,33.68Z" fill="#fff"/>
    <path id="Path_24268" data-name="Path 24268" d="M26.35,10A1.25,1.25,0,0,1,25.1,8.77V6a2.25,2.25,0,0,0-2.32-2.16h-18a1.93,1.93,0,0,0-2,1.85,1.93,1.93,0,0,0,2,1.85h11a1.25,1.25,0,0,1,0,2.5H4.75A4.43,4.43,0,0,1,.25,5.67a4.43,4.43,0,0,1,4.5-4.35h18A4.75,4.75,0,0,1,27.6,6V8.77A1.25,1.25,0,0,1,26.35,10ZM31.4,27H24.47a5.11,5.11,0,0,1-5.21-5V20.19a5.11,5.11,0,0,1,5.21-5h7a3.33,3.33,0,0,1,3.32,3.34v5.19h0A3.34,3.34,0,0,1,31.4,27Zm-6.93-9.3a2.61,2.61,0,0,0-2.71,2.49v1.86a2.61,2.61,0,0,0,2.71,2.49H31.4a.83.83,0,0,0,.83-.82V18.53A.78.78,0,0,0,32,18a.81.81,0,0,0-.58-.25Zm9,6Z" fill="#fff"/>
    <circle id="Ellipse_465" data-name="Ellipse 465" cx="1.25" cy="1.25" r="1.25" transform="translate(23.91 19.87)" fill="#fff"/>
  </g>
  <rect id="Rectangle_1027" data-name="Rectangle 1027" width="36" height="36" fill="none"/>
</svg>
