<?xml version="1.0" encoding="UTF-8"?>
<svg id="Layer_1" data-name="Layer 1" xmlns="http://www.w3.org/2000/svg" xmlns:xlink="http://www.w3.org/1999/xlink" viewBox="0 0 29.08 29.08">
  <defs>
    <style>
      .cls-1 {
        fill: #fff;
      }

      .cls-2 {
        fill: url(#linear-gradient);
      }
    </style>
    <linearGradient id="linear-gradient" x1="-85.75" y1="159.03" x2="-84.92" y2="158.37" gradientTransform="translate(2499.12 4632.27) scale(29.08 -29.08)" gradientUnits="userSpaceOnUse">
      <stop offset="0" stop-color="#ff602e"/>
      <stop offset=".37" stop-color="#fe1c5e"/>
      <stop offset="1" stop-color="#570ebe"/>
    </linearGradient>
  </defs>
  <path id="Path_48" data-name="Path 48" class="cls-2" d="m0,14.54C0,6.51,6.51,0,14.54,0c8.03,0,14.54,6.51,14.54,14.54s-6.51,14.54-14.54,14.54h0C6.51,29.08,0,22.57,0,14.54c0,0,0,0,0,0Z"/>
  <path class="cls-1" d="m15.08,11.94c.09-.1.18-.19.26-.29.54-.62,1.09-1.24,1.63-1.87.62-.71,1.23-1.42,1.85-2.12.03-.03.08-.06.12-.06.72,0,1.44,0,2.17,0,0,0,.02,0,.05.01-1.68,1.92-3.35,3.83-5.03,5.74,1.97,2.6,3.94,5.21,5.92,7.82-.05,0-.09,0-.13,0-1.45,0-2.9,0-4.35,0-.09,0-.15-.03-.21-.1-1.15-1.51-2.31-3.01-3.46-4.52-.02-.02-.03-.04-.05-.06-.04-.06-.08-.06-.13,0-.51.58-1.02,1.16-1.53,1.74-.81.93-1.63,1.85-2.43,2.79-.1.11-.19.15-.33.15-.65,0-1.3,0-1.95,0h-.13c.04-.05.06-.09.09-.13.71-.81,1.42-1.61,2.13-2.42.77-.88,1.54-1.77,2.32-2.66.26-.29.51-.58.77-.87.04-.05.07-.08.02-.15-1.2-1.56-2.39-3.13-3.59-4.69-.63-.83-1.27-1.66-1.9-2.49-.04-.05-.08-.11-.14-.18.06,0,.1,0,.14,0,1.49,0,2.98,0,4.47,0,.1,0,.16.04.22.12.57.76,1.14,1.53,1.72,2.29.48.64.96,1.27,1.44,1.91,0,0,.02.01.03.03Zm-5.35-3.03c.04.06.07.11.11.15.52.69,1.05,1.37,1.57,2.06.64.83,1.28,1.66,1.92,2.49.53.69,1.05,1.39,1.58,2.08,1.03,1.35,2.07,2.69,3.1,4.04.04.06.09.09.16.09.36,0,.71,0,1.07,0,.03,0,.06,0,.11-.02-.16-.22-.31-.42-.46-.63-.76-1-1.53-2-2.29-3-1.08-1.43-2.15-2.86-3.23-4.29-.73-.97-1.47-1.94-2.2-2.9-.03-.03-.09-.06-.13-.06-.4,0-.81,0-1.21,0-.02,0-.04,0-.08,0Z"/>
</svg>